G04 #@! TF.FileFunction,Soldermask,Bot*
%FSLAX46Y46*%
G04 Gerber Fmt 4.6, Leading zero omitted, Abs format (unit mm)*
G04 Created by KiCad (PCBNEW 4.0.7-e2-6376~58~ubuntu16.04.1) date Sun Jan 24 13:39:57 2021*
%MOMM*%
%LPD*%
G01*
G04 APERTURE LIST*
%ADD10C,0.100000*%
%ADD11C,1.901140*%
%ADD12R,1.700000X1.700000*%
%ADD13C,1.700000*%
%ADD14R,2.200000X2.200000*%
%ADD15C,2.200000*%
%ADD16R,1.924000X2.432000*%
%ADD17C,3.100020*%
%ADD18O,3.900000X2.400000*%
%ADD19R,2.000000X2.000000*%
%ADD20C,2.000000*%
%ADD21O,2.400000X4.400000*%
%ADD22R,2.127200X2.127200*%
%ADD23O,2.127200X2.127200*%
%ADD24C,6.800000*%
%ADD25R,2.800000X2.000000*%
%ADD26O,2.800000X2.000000*%
%ADD27C,5.401260*%
%ADD28C,1.900000*%
G04 APERTURE END LIST*
D10*
D11*
X15748000Y-35532060D03*
X15748000Y-40413940D03*
D12*
X20828000Y-6096000D03*
D13*
X20828000Y-3596000D03*
D14*
X38608000Y-32004000D03*
D15*
X41148000Y-32004000D03*
D14*
X38608000Y-36576000D03*
D15*
X41148000Y-36576000D03*
D14*
X38608000Y-41656000D03*
D15*
X41148000Y-41656000D03*
D16*
X12827000Y-9398000D03*
X12827000Y-6858000D03*
X10828020Y-6858000D03*
X10828020Y-9398000D03*
D17*
X8128000Y-14127480D03*
X8128000Y-2128520D03*
D18*
X5913000Y-17123000D03*
X5913000Y-30823000D03*
D19*
X8763000Y-25273000D03*
D20*
X8763000Y-22673000D03*
X8763000Y-27373000D03*
X8763000Y-20573000D03*
X11563000Y-27373000D03*
X11563000Y-20573000D03*
D21*
X5113000Y-23973000D03*
D22*
X38100000Y-56896000D03*
D23*
X38100000Y-59436000D03*
X35560000Y-56896000D03*
X35560000Y-59436000D03*
X33020000Y-56896000D03*
X33020000Y-59436000D03*
X30480000Y-56896000D03*
X30480000Y-59436000D03*
X27940000Y-56896000D03*
X27940000Y-59436000D03*
D24*
X38354000Y-48387000D03*
X38354000Y-5461000D03*
D25*
X28956000Y-18796000D03*
D26*
X36576000Y-26416000D03*
X28956000Y-21336000D03*
X36576000Y-23876000D03*
X28956000Y-23876000D03*
X36576000Y-21336000D03*
X28956000Y-26416000D03*
X36576000Y-18796000D03*
D27*
X4249420Y-60373260D03*
D28*
X6731000Y-52197000D03*
D27*
X4249420Y-35384740D03*
D28*
X6731000Y-49911000D03*
X6731000Y-47625000D03*
X6731000Y-45339000D03*
X6731000Y-43053000D03*
X4191000Y-53340000D03*
X4191000Y-51054000D03*
X4191000Y-48768000D03*
X4191000Y-46482000D03*
X4191000Y-44196000D03*
X1651000Y-52197000D03*
X1651000Y-49911000D03*
X1651000Y-47625000D03*
X1651000Y-45339000D03*
X1651000Y-43053000D03*
M02*
