G04 #@! TF.FileFunction,Copper,L1,Top,Signal*
%FSLAX46Y46*%
G04 Gerber Fmt 4.6, Leading zero omitted, Abs format (unit mm)*
G04 Created by KiCad (PCBNEW 4.0.7-e2-6376~58~ubuntu16.04.1) date Sun Jan 24 13:39:57 2021*
%MOMM*%
%LPD*%
G01*
G04 APERTURE LIST*
%ADD10C,0.100000*%
%ADD11C,1.501140*%
%ADD12R,0.700000X1.300000*%
%ADD13R,1.300000X1.300000*%
%ADD14C,1.300000*%
%ADD15R,1.300000X0.700000*%
%ADD16R,1.651000X1.651000*%
%ADD17R,1.800000X1.800000*%
%ADD18C,1.800000*%
%ADD19R,4.826000X2.794000*%
%ADD20R,1.524000X2.032000*%
%ADD21C,2.700020*%
%ADD22O,3.500000X2.000000*%
%ADD23R,1.600000X1.600000*%
%ADD24C,1.600000*%
%ADD25O,2.000000X4.000000*%
%ADD26R,1.727200X1.727200*%
%ADD27O,1.727200X1.727200*%
%ADD28C,6.400000*%
%ADD29R,0.800100X0.800100*%
%ADD30R,1.550000X1.300000*%
%ADD31R,0.762000X0.508000*%
%ADD32R,2.400000X1.600000*%
%ADD33O,2.400000X1.600000*%
%ADD34R,0.560000X0.300000*%
%ADD35R,5.600000X5.600000*%
%ADD36R,0.300000X0.560000*%
%ADD37C,5.001260*%
%ADD38C,1.500000*%
%ADD39C,0.600000*%
%ADD40C,0.250000*%
%ADD41C,0.400000*%
%ADD42C,0.254000*%
G04 APERTURE END LIST*
D10*
D11*
X15748000Y-35532060D03*
X15748000Y-40413940D03*
D12*
X12253000Y-35433000D03*
X10353000Y-35433000D03*
X12253000Y-41148000D03*
X10353000Y-41148000D03*
X19873000Y-54483000D03*
X17973000Y-54483000D03*
D13*
X20828000Y-6096000D03*
D14*
X20828000Y-3596000D03*
D12*
X28763000Y-45593000D03*
X26863000Y-45593000D03*
X18354000Y-32004000D03*
X20254000Y-32004000D03*
X28890000Y-3556000D03*
X26990000Y-3556000D03*
X29022000Y-32004000D03*
X30922000Y-32004000D03*
D15*
X33020000Y-21656000D03*
X33020000Y-23556000D03*
D16*
X20955000Y-10033000D03*
X24511000Y-10033000D03*
D17*
X38608000Y-32004000D03*
D18*
X41148000Y-32004000D03*
D17*
X38608000Y-36576000D03*
D18*
X41148000Y-36576000D03*
D17*
X38608000Y-41656000D03*
D18*
X41148000Y-41656000D03*
D19*
X21844000Y-20955000D03*
X21844000Y-14605000D03*
D20*
X12827000Y-9398000D03*
X12827000Y-6858000D03*
X10828020Y-6858000D03*
X10828020Y-9398000D03*
D21*
X8128000Y-14127480D03*
X8128000Y-2128520D03*
D22*
X5913000Y-17123000D03*
X5913000Y-30823000D03*
D23*
X8763000Y-25273000D03*
D24*
X8763000Y-22673000D03*
X8763000Y-27373000D03*
X8763000Y-20573000D03*
X11563000Y-27373000D03*
X11563000Y-20573000D03*
D25*
X5113000Y-23973000D03*
D26*
X38100000Y-56896000D03*
D27*
X38100000Y-59436000D03*
X35560000Y-56896000D03*
X35560000Y-59436000D03*
X33020000Y-56896000D03*
X33020000Y-59436000D03*
X30480000Y-56896000D03*
X30480000Y-59436000D03*
X27940000Y-56896000D03*
X27940000Y-59436000D03*
D28*
X38354000Y-48387000D03*
X38354000Y-5461000D03*
D29*
X17714000Y-21351240D03*
X15814000Y-21351240D03*
X16764000Y-23350220D03*
D12*
X14163000Y-52578000D03*
X16063000Y-52578000D03*
X14163000Y-50673000D03*
X16063000Y-50673000D03*
X14163000Y-48768000D03*
X16063000Y-48768000D03*
X17714000Y-27940000D03*
X15814000Y-27940000D03*
X17714000Y-25400000D03*
X15814000Y-25400000D03*
X12253000Y-44958000D03*
X10353000Y-44958000D03*
X12253000Y-46863000D03*
X10353000Y-46863000D03*
X19873000Y-52578000D03*
X17973000Y-52578000D03*
X21910000Y-32004000D03*
X23810000Y-32004000D03*
X10353000Y-48768000D03*
X12253000Y-48768000D03*
X10353000Y-50673000D03*
X12253000Y-50673000D03*
X10353000Y-52578000D03*
X12253000Y-52578000D03*
X15814000Y-19304000D03*
X17714000Y-19304000D03*
X33970000Y-14732000D03*
X32070000Y-14732000D03*
X36510000Y-32004000D03*
X34610000Y-32004000D03*
X36510000Y-36576000D03*
X34610000Y-36576000D03*
X36510000Y-41656000D03*
X34610000Y-41656000D03*
D30*
X19723000Y-61813000D03*
X11773000Y-61813000D03*
X19723000Y-57313000D03*
X11773000Y-57313000D03*
D31*
X26670000Y-6667500D03*
X26670000Y-8572500D03*
X29210000Y-6667500D03*
X26670000Y-7620000D03*
X29210000Y-8572500D03*
D32*
X28956000Y-18796000D03*
D33*
X36576000Y-26416000D03*
X28956000Y-21336000D03*
X36576000Y-23876000D03*
X28956000Y-23876000D03*
X36576000Y-21336000D03*
X28956000Y-26416000D03*
X36576000Y-18796000D03*
D34*
X21136000Y-36493000D03*
D35*
X24511000Y-39243000D03*
D34*
X21136000Y-36993000D03*
X21136000Y-37493000D03*
X21136000Y-37993000D03*
X21136000Y-38493000D03*
X21136000Y-38993000D03*
X21136000Y-39493000D03*
X21136000Y-39993000D03*
X21136000Y-40493000D03*
X21136000Y-40993000D03*
X21136000Y-41493000D03*
X21136000Y-41993000D03*
D36*
X21761000Y-42618000D03*
D34*
X27886000Y-41993000D03*
X27886000Y-41493000D03*
X27886000Y-40993000D03*
X27886000Y-40493000D03*
X27886000Y-39993000D03*
X27886000Y-39493000D03*
X27886000Y-38993000D03*
X27886000Y-38493000D03*
X27886000Y-37993000D03*
X27886000Y-37493000D03*
X27886000Y-36993000D03*
X27886000Y-36493000D03*
D36*
X27261000Y-35868000D03*
X26761000Y-35868000D03*
X26261000Y-35868000D03*
X25761000Y-35868000D03*
X25261000Y-35868000D03*
X24761000Y-35868000D03*
X24261000Y-35868000D03*
X23761000Y-35868000D03*
X23261000Y-35868000D03*
X22761000Y-35868000D03*
X22261000Y-35868000D03*
X21761000Y-35868000D03*
X22261000Y-42618000D03*
X22761000Y-42618000D03*
X23261000Y-42618000D03*
X23761000Y-42618000D03*
X24261000Y-42618000D03*
X24761000Y-42618000D03*
X25261000Y-42618000D03*
X25761000Y-42618000D03*
X26261000Y-42618000D03*
X26761000Y-42618000D03*
X27261000Y-42618000D03*
D37*
X4249420Y-60373260D03*
D38*
X6731000Y-52197000D03*
D37*
X4249420Y-35384740D03*
D38*
X6731000Y-49911000D03*
X6731000Y-47625000D03*
X6731000Y-45339000D03*
X6731000Y-43053000D03*
X4191000Y-53340000D03*
X4191000Y-51054000D03*
X4191000Y-48768000D03*
X4191000Y-46482000D03*
X4191000Y-44196000D03*
X1651000Y-52197000D03*
X1651000Y-49911000D03*
X1651000Y-47625000D03*
X1651000Y-45339000D03*
X1651000Y-43053000D03*
D39*
X24003000Y-24003000D03*
X31115000Y-28829000D03*
X24384000Y-7747000D03*
X14351000Y-21336000D03*
X19558000Y-50673000D03*
X15748000Y-42418000D03*
X26289000Y-14732000D03*
X31369000Y-37211000D03*
X31369000Y-36068000D03*
X13208000Y-48768000D03*
X13208000Y-50673000D03*
X13208000Y-52578000D03*
X17653000Y-29464000D03*
X22606000Y-45593000D03*
X18796000Y-25400000D03*
X23368000Y-46101000D03*
X19685000Y-45847000D03*
X18542000Y-45847000D03*
X14605000Y-19304000D03*
X24003000Y-45466000D03*
X29083000Y-35433000D03*
X18288000Y-34544000D03*
X18288000Y-40640000D03*
X29083000Y-43688000D03*
X31496000Y-38100000D03*
X34544000Y-34036000D03*
X31496000Y-39116000D03*
X34544000Y-39116000D03*
X34544000Y-40132000D03*
X31496000Y-40132000D03*
X17399000Y-45847000D03*
X14097000Y-17399000D03*
D40*
X21136000Y-38493000D02*
X16268000Y-38493000D01*
X16268000Y-38493000D02*
X15748000Y-37973000D01*
X15748000Y-37973000D02*
X15748000Y-35532060D01*
X15748000Y-35532060D02*
X15748000Y-36068000D01*
X12253000Y-35433000D02*
X15648940Y-35433000D01*
X15648940Y-35433000D02*
X15748000Y-35532060D01*
X4249420Y-35384740D02*
X4249420Y-32486580D01*
X4249420Y-32486580D02*
X5913000Y-30823000D01*
X4249420Y-60373260D02*
X8303260Y-60373260D01*
X8303260Y-60373260D02*
X8605500Y-60675500D01*
X4191000Y-44196000D02*
X4191000Y-43815000D01*
X4191000Y-43815000D02*
X5461000Y-43053000D01*
X5461000Y-43053000D02*
X6731000Y-43053000D01*
X4191000Y-53340000D02*
X4445000Y-53340000D01*
X4445000Y-53340000D02*
X6096000Y-54483000D01*
X4191000Y-51054000D02*
X4191000Y-53340000D01*
X22261000Y-35868000D02*
X22261000Y-33691000D01*
X21910000Y-33340000D02*
X21910000Y-32004000D01*
X22261000Y-33691000D02*
X21910000Y-33340000D01*
X22261000Y-35868000D02*
X22261000Y-36993000D01*
X22261000Y-36993000D02*
X24511000Y-39243000D01*
X27886000Y-36993000D02*
X26761000Y-36993000D01*
X26761000Y-36993000D02*
X24511000Y-39243000D01*
X26761000Y-42618000D02*
X26761000Y-41493000D01*
X26761000Y-41493000D02*
X24511000Y-39243000D01*
X21136000Y-39993000D02*
X23761000Y-39993000D01*
X23761000Y-39993000D02*
X24511000Y-39243000D01*
X26863000Y-45593000D02*
X26863000Y-44262000D01*
X26761000Y-44160000D02*
X26761000Y-42618000D01*
X26863000Y-44262000D02*
X26761000Y-44160000D01*
X28956000Y-26416000D02*
X30988000Y-26416000D01*
X33020000Y-24384000D02*
X33020000Y-23556000D01*
X30988000Y-26416000D02*
X33020000Y-24384000D01*
X33020000Y-61813000D02*
X33020000Y-61468000D01*
X33020000Y-61468000D02*
X33020000Y-59436000D01*
X35115500Y-8699500D02*
X35306000Y-8509000D01*
X35306000Y-8509000D02*
X38354000Y-5461000D01*
X10414000Y-54483000D02*
X10414000Y-52639000D01*
X10414000Y-52639000D02*
X10353000Y-52578000D01*
X42926000Y-48895000D02*
X38862000Y-48895000D01*
X38862000Y-48895000D02*
X38354000Y-48387000D01*
X30922000Y-32004000D02*
X30922000Y-29022000D01*
X30922000Y-29022000D02*
X31115000Y-28829000D01*
X21910000Y-32004000D02*
X21910000Y-26096000D01*
X21910000Y-26096000D02*
X24003000Y-24003000D01*
X10353000Y-32578000D02*
X14920000Y-32578000D01*
X20254000Y-31049000D02*
X20254000Y-32004000D01*
X19685000Y-30480000D02*
X20254000Y-31049000D01*
X17018000Y-30480000D02*
X19685000Y-30480000D01*
X14920000Y-32578000D02*
X17018000Y-30480000D01*
X31115000Y-28829000D02*
X41148000Y-28829000D01*
X41148000Y-28829000D02*
X41021000Y-28829000D01*
X26670000Y-7620000D02*
X24511000Y-7620000D01*
X24511000Y-7620000D02*
X24384000Y-7747000D01*
X33020000Y-59436000D02*
X35560000Y-59436000D01*
X30480000Y-59436000D02*
X33020000Y-59436000D01*
X41148000Y-41656000D02*
X41148000Y-44831000D01*
X41148000Y-44831000D02*
X42926000Y-46609000D01*
X42926000Y-46609000D02*
X42926000Y-48895000D01*
X42926000Y-48895000D02*
X42926000Y-60579000D01*
X42926000Y-60579000D02*
X41692000Y-61813000D01*
X41692000Y-61813000D02*
X33020000Y-61813000D01*
X33020000Y-61813000D02*
X32675000Y-61813000D01*
X32675000Y-61813000D02*
X19723000Y-61813000D01*
X14366240Y-21351240D02*
X15814000Y-21351240D01*
X14351000Y-21336000D02*
X14366240Y-21351240D01*
X20828000Y-3596000D02*
X19518000Y-3596000D01*
X19939000Y-10033000D02*
X20955000Y-10033000D01*
X19304000Y-9398000D02*
X19939000Y-10033000D01*
X19304000Y-3810000D02*
X19304000Y-9398000D01*
X19518000Y-3596000D02*
X19304000Y-3810000D01*
X26924000Y-1143000D02*
X26924000Y-3490000D01*
X26924000Y-3490000D02*
X26990000Y-3556000D01*
X20701000Y-1143000D02*
X20701000Y-3469000D01*
X20701000Y-3469000D02*
X20828000Y-3596000D01*
X8128000Y-2128520D02*
X13111480Y-2128520D01*
X41148000Y-14732000D02*
X41148000Y-28829000D01*
X26924000Y-1143000D02*
X30226000Y-1143000D01*
X30226000Y-1143000D02*
X32512000Y-3429000D01*
X32512000Y-3429000D02*
X32512000Y-6096000D01*
X32512000Y-6096000D02*
X34925000Y-8509000D01*
X34925000Y-8509000D02*
X35115500Y-8699500D01*
X35115500Y-8699500D02*
X41148000Y-14732000D01*
X41148000Y-28829000D02*
X41148000Y-32004000D01*
X14097000Y-1143000D02*
X20701000Y-1143000D01*
X20701000Y-1143000D02*
X26924000Y-1143000D01*
X13111480Y-2128520D02*
X14097000Y-1143000D01*
X41148000Y-36576000D02*
X41148000Y-41656000D01*
X41148000Y-32004000D02*
X41148000Y-36576000D01*
X21910000Y-32004000D02*
X20254000Y-32004000D01*
X26863000Y-45593000D02*
X26543000Y-45593000D01*
X5913000Y-17123000D02*
X5913000Y-16342480D01*
X5913000Y-16342480D02*
X8128000Y-14127480D01*
X5113000Y-23973000D02*
X5113000Y-19718000D01*
X5913000Y-18918000D02*
X5913000Y-17123000D01*
X5113000Y-19718000D02*
X5913000Y-18918000D01*
X5913000Y-30823000D02*
X5913000Y-28138000D01*
X5113000Y-27338000D02*
X5113000Y-23973000D01*
X5913000Y-28138000D02*
X5113000Y-27338000D01*
X8763000Y-30988000D02*
X6078000Y-30988000D01*
X6078000Y-30988000D02*
X5913000Y-30823000D01*
X10353000Y-35433000D02*
X10353000Y-32578000D01*
X8763000Y-30988000D02*
X8763000Y-27373000D01*
X10353000Y-32578000D02*
X8763000Y-30988000D01*
X26888000Y-45568000D02*
X26863000Y-45593000D01*
X8128000Y-9398000D02*
X10828020Y-9398000D01*
X8128000Y-14127480D02*
X8128000Y-9398000D01*
X8128000Y-9398000D02*
X8128000Y-2128520D01*
X10414000Y-54483000D02*
X17973000Y-54483000D01*
X11773000Y-61813000D02*
X19723000Y-61813000D01*
X9743000Y-61813000D02*
X11773000Y-61813000D01*
X10353000Y-35433000D02*
X10353000Y-41148000D01*
X10353000Y-50673000D02*
X10353000Y-52578000D01*
X10353000Y-48768000D02*
X10353000Y-50673000D01*
X6096000Y-54483000D02*
X8605500Y-54483000D01*
X8605500Y-54483000D02*
X10414000Y-54483000D01*
X8605500Y-54483000D02*
X8605500Y-60675500D01*
X8605500Y-60675500D02*
X9743000Y-61813000D01*
X4191000Y-48768000D02*
X4191000Y-51054000D01*
X21136000Y-38993000D02*
X15998000Y-38993000D01*
X15998000Y-38993000D02*
X15748000Y-39243000D01*
X15748000Y-39243000D02*
X15748000Y-40413940D01*
X12253000Y-41148000D02*
X13843000Y-41148000D01*
X14577060Y-40413940D02*
X15748000Y-40413940D01*
X13843000Y-41148000D02*
X14577060Y-40413940D01*
X17399000Y-39497000D02*
X21132000Y-39497000D01*
X21132000Y-39497000D02*
X21136000Y-39493000D01*
X19558000Y-50673000D02*
X19873000Y-50988000D01*
X19873000Y-52578000D02*
X19873000Y-50988000D01*
X17018000Y-41148000D02*
X15748000Y-42418000D01*
X17018000Y-39878000D02*
X17018000Y-41148000D01*
X17403000Y-39493000D02*
X17399000Y-39497000D01*
X17399000Y-39497000D02*
X17018000Y-39878000D01*
X19873000Y-54483000D02*
X19873000Y-52578000D01*
D41*
X24511000Y-10033000D02*
X27940000Y-10033000D01*
X26670000Y-8572500D02*
X27940000Y-8572500D01*
X27940000Y-8572500D02*
X27940000Y-8636000D01*
X26670000Y-6667500D02*
X27876500Y-6667500D01*
X27876500Y-6667500D02*
X27940000Y-6731000D01*
X27940000Y-6731000D02*
X27940000Y-8636000D01*
X26289000Y-13589000D02*
X26289000Y-14732000D01*
X27940000Y-8636000D02*
X27940000Y-10033000D01*
X27940000Y-10033000D02*
X27940000Y-11938000D01*
X27940000Y-11938000D02*
X26289000Y-13589000D01*
X26670000Y-6667500D02*
X25717500Y-6667500D01*
X25146000Y-6096000D02*
X20828000Y-6096000D01*
X25717500Y-6667500D02*
X25146000Y-6096000D01*
X26162000Y-14605000D02*
X21844000Y-14605000D01*
X26289000Y-14732000D02*
X26162000Y-14605000D01*
X8763000Y-20573000D02*
X8763000Y-18542000D01*
X12700000Y-14605000D02*
X21844000Y-14605000D01*
X8763000Y-18542000D02*
X12700000Y-14605000D01*
D40*
X26479500Y-8763000D02*
X26670000Y-8572500D01*
X21844000Y-14605000D02*
X22225000Y-14605000D01*
X8763000Y-20573000D02*
X8764000Y-20573000D01*
X30099000Y-38481000D02*
X27898000Y-38481000D01*
X27898000Y-38481000D02*
X27886000Y-38493000D01*
X31369000Y-37211000D02*
X30099000Y-38481000D01*
X30099000Y-38481000D02*
X30087000Y-38493000D01*
X27886000Y-37993000D02*
X29952000Y-37993000D01*
X31369000Y-36068000D02*
X30734000Y-36703000D01*
X30734000Y-36703000D02*
X30734000Y-37211000D01*
X30734000Y-37211000D02*
X29952000Y-37993000D01*
X16764000Y-24003000D02*
X16764000Y-24130000D01*
X16764000Y-23350220D02*
X16764000Y-24003000D01*
X15814000Y-24572000D02*
X15814000Y-25400000D01*
X16002000Y-24384000D02*
X15814000Y-24572000D01*
X16510000Y-24384000D02*
X16002000Y-24384000D01*
X16764000Y-24130000D02*
X16510000Y-24384000D01*
X15814000Y-25400000D02*
X15814000Y-24953000D01*
X8763000Y-25273000D02*
X12700000Y-25273000D01*
X12827000Y-25400000D02*
X15814000Y-25400000D01*
X12700000Y-25273000D02*
X12827000Y-25400000D01*
X11563000Y-27373000D02*
X13657000Y-27373000D01*
X14224000Y-27940000D02*
X15814000Y-27940000D01*
X13657000Y-27373000D02*
X14224000Y-27940000D01*
X14163000Y-48768000D02*
X13208000Y-48768000D01*
X13208000Y-48768000D02*
X12253000Y-48768000D01*
X14163000Y-50673000D02*
X13208000Y-50673000D01*
X13208000Y-50673000D02*
X12253000Y-50673000D01*
X14163000Y-52578000D02*
X13208000Y-52578000D01*
X13208000Y-52578000D02*
X12253000Y-52578000D01*
X9271000Y-44196000D02*
X10033000Y-44958000D01*
X10033000Y-44958000D02*
X10353000Y-44958000D01*
X1651000Y-47625000D02*
X1270000Y-47625000D01*
X1270000Y-47625000D02*
X508000Y-46863000D01*
X508000Y-46863000D02*
X508000Y-42037000D01*
X508000Y-42037000D02*
X1905000Y-40640000D01*
X1905000Y-40640000D02*
X8001000Y-40640000D01*
X8001000Y-40640000D02*
X9271000Y-41910000D01*
X9271000Y-41910000D02*
X9271000Y-44196000D01*
X9271000Y-46863000D02*
X10353000Y-46863000D01*
X8636000Y-46228000D02*
X9271000Y-46863000D01*
X8636000Y-42545000D02*
X8636000Y-46228000D01*
X7747000Y-41656000D02*
X8636000Y-42545000D01*
X4445000Y-41656000D02*
X7747000Y-41656000D01*
X2921000Y-43180000D02*
X4445000Y-41656000D01*
X1651000Y-45339000D02*
X1651000Y-45085000D01*
X1651000Y-45085000D02*
X2921000Y-43815000D01*
X2921000Y-43815000D02*
X2921000Y-43180000D01*
X27886000Y-40493000D02*
X30968000Y-40493000D01*
X17018000Y-48768000D02*
X17653000Y-48133000D01*
X17653000Y-48133000D02*
X30353000Y-48133000D01*
X30353000Y-48133000D02*
X31623000Y-46863000D01*
X31623000Y-46863000D02*
X31623000Y-41148000D01*
X31623000Y-41148000D02*
X30968000Y-40493000D01*
X17018000Y-48768000D02*
X16063000Y-48768000D01*
X16063000Y-50673000D02*
X16063000Y-52578000D01*
X16063000Y-48768000D02*
X16063000Y-50673000D01*
X22888000Y-45311000D02*
X22888000Y-44351000D01*
X17714000Y-29403000D02*
X17653000Y-29464000D01*
X22606000Y-45593000D02*
X22888000Y-45311000D01*
X17714000Y-27940000D02*
X17714000Y-29403000D01*
X22761000Y-44224000D02*
X22761000Y-42618000D01*
X22888000Y-44351000D02*
X22761000Y-44224000D01*
X23368000Y-46101000D02*
X23368000Y-44069000D01*
X23261000Y-43962000D02*
X23261000Y-42618000D01*
X23368000Y-44069000D02*
X23261000Y-43962000D01*
X18796000Y-25400000D02*
X17714000Y-25400000D01*
X23388000Y-46081000D02*
X23368000Y-46101000D01*
X21136000Y-40993000D02*
X19078000Y-40993000D01*
X15113000Y-44958000D02*
X19078000Y-40993000D01*
X15113000Y-44958000D02*
X12253000Y-44958000D01*
X30226000Y-41021000D02*
X27914000Y-41021000D01*
X27914000Y-41021000D02*
X27886000Y-40993000D01*
X30480000Y-46736000D02*
X29972000Y-47244000D01*
X12827000Y-46863000D02*
X12253000Y-46863000D01*
X13208000Y-47244000D02*
X12827000Y-46863000D01*
X29972000Y-47244000D02*
X13208000Y-47244000D01*
X30988000Y-41783000D02*
X30226000Y-41021000D01*
X30226000Y-41021000D02*
X30198000Y-40993000D01*
X30988000Y-46228000D02*
X30988000Y-41783000D01*
X30353000Y-46863000D02*
X30480000Y-46736000D01*
X30480000Y-46736000D02*
X30988000Y-46228000D01*
X19723000Y-57313000D02*
X19723000Y-56553000D01*
X18923000Y-52578000D02*
X17973000Y-52578000D01*
X18923000Y-55753000D02*
X18923000Y-52578000D01*
X19723000Y-56553000D02*
X18923000Y-55753000D01*
X11773000Y-57313000D02*
X19723000Y-57313000D01*
X23761000Y-35868000D02*
X23761000Y-32053000D01*
X23761000Y-32053000D02*
X23810000Y-32004000D01*
X23888000Y-32082000D02*
X23810000Y-32004000D01*
X27886000Y-37493000D02*
X29873000Y-37493000D01*
X30282000Y-35250000D02*
X30607000Y-34925000D01*
X30607000Y-34925000D02*
X32131000Y-34925000D01*
X32131000Y-34925000D02*
X32512000Y-35306000D01*
X32512000Y-35306000D02*
X32512000Y-37084000D01*
X32512000Y-38100000D02*
X32512000Y-47244000D01*
X32512000Y-47244000D02*
X25908000Y-53848000D01*
X25908000Y-53848000D02*
X25908000Y-57404000D01*
X25908000Y-57404000D02*
X27940000Y-59436000D01*
X29873000Y-37493000D02*
X30282000Y-37084000D01*
X30282000Y-37084000D02*
X30282000Y-36774000D01*
X32512000Y-37084000D02*
X32512000Y-38100000D01*
X30282000Y-36774000D02*
X30282000Y-35250000D01*
X27388000Y-31032000D02*
X27388000Y-34207000D01*
X31369000Y-33020000D02*
X33020000Y-34671000D01*
X33020000Y-34671000D02*
X33020000Y-36068000D01*
X27940000Y-56896000D02*
X27940000Y-53848000D01*
X33020000Y-48768000D02*
X27940000Y-53848000D01*
X33020000Y-36068000D02*
X33020000Y-48768000D01*
X29972000Y-30988000D02*
X29972000Y-33020000D01*
X29464000Y-30480000D02*
X29972000Y-30988000D01*
X27940000Y-30480000D02*
X29464000Y-30480000D01*
X27388000Y-31032000D02*
X27940000Y-30480000D01*
X29972000Y-33020000D02*
X31369000Y-33020000D01*
X27261000Y-34334000D02*
X27261000Y-35868000D01*
X27388000Y-34207000D02*
X27261000Y-34334000D01*
X20438000Y-45094000D02*
X20438000Y-43443000D01*
X20438000Y-45094000D02*
X19685000Y-45847000D01*
X21136000Y-42745000D02*
X21136000Y-41993000D01*
X20438000Y-43443000D02*
X21136000Y-42745000D01*
X21888000Y-44914000D02*
X21888000Y-43859000D01*
X18542000Y-45847000D02*
X19431000Y-46736000D01*
X19431000Y-46736000D02*
X20066000Y-46736000D01*
X20066000Y-46736000D02*
X21888000Y-44914000D01*
X21761000Y-43732000D02*
X21761000Y-42618000D01*
X21888000Y-43859000D02*
X21761000Y-43732000D01*
X26388000Y-31270000D02*
X26388000Y-34064000D01*
X26388000Y-31270000D02*
X28702000Y-28956000D01*
X28702000Y-28956000D02*
X29464000Y-28956000D01*
X29464000Y-28956000D02*
X34544000Y-23876000D01*
X36576000Y-23876000D02*
X34544000Y-23876000D01*
X26261000Y-34191000D02*
X26261000Y-35868000D01*
X26388000Y-34064000D02*
X26261000Y-34191000D01*
X25888000Y-28722000D02*
X25888000Y-32786000D01*
X25888000Y-28722000D02*
X26924000Y-27686000D01*
X26924000Y-27686000D02*
X26924000Y-22098000D01*
X26924000Y-22098000D02*
X27686000Y-21336000D01*
X28956000Y-21336000D02*
X27686000Y-21336000D01*
X25761000Y-32913000D02*
X25761000Y-35868000D01*
X25888000Y-32786000D02*
X25761000Y-32913000D01*
X25388000Y-28079000D02*
X25388000Y-32651000D01*
X31877000Y-22606000D02*
X31242000Y-21971000D01*
X31242000Y-21971000D02*
X31242000Y-20447000D01*
X31242000Y-20447000D02*
X30861000Y-20066000D01*
X37338000Y-26416000D02*
X38354000Y-25400000D01*
X38354000Y-22860000D02*
X38354000Y-25400000D01*
X38100000Y-22606000D02*
X38354000Y-22860000D01*
X27559000Y-20066000D02*
X30861000Y-20066000D01*
X26162000Y-21463000D02*
X27559000Y-20066000D01*
X26162000Y-27305000D02*
X26162000Y-21463000D01*
X25388000Y-28079000D02*
X26162000Y-27305000D01*
X38100000Y-22606000D02*
X31877000Y-22606000D01*
X25261000Y-32778000D02*
X25261000Y-35868000D01*
X25388000Y-32651000D02*
X25261000Y-32778000D01*
X37338000Y-26416000D02*
X36576000Y-26416000D01*
X17714000Y-21351240D02*
X17714000Y-19304000D01*
X23876000Y-44831000D02*
X23876000Y-44069000D01*
X23761000Y-43954000D02*
X23761000Y-42618000D01*
X23876000Y-44069000D02*
X23761000Y-43954000D01*
X14605000Y-19304000D02*
X15814000Y-19304000D01*
X24003000Y-45212000D02*
X24003000Y-45466000D01*
X23876000Y-45085000D02*
X24003000Y-45212000D01*
X23876000Y-44831000D02*
X23876000Y-45085000D01*
X23888000Y-44819000D02*
X23876000Y-44831000D01*
X18288000Y-40640000D02*
X18542000Y-40640000D01*
X18689000Y-40493000D02*
X21136000Y-40493000D01*
X18542000Y-40640000D02*
X18689000Y-40493000D01*
X21136000Y-36195000D02*
X21136000Y-36122000D01*
X21136000Y-36122000D02*
X19558000Y-34544000D01*
X19558000Y-34544000D02*
X18288000Y-34544000D01*
X21136000Y-36493000D02*
X21136000Y-36195000D01*
X21390000Y-35868000D02*
X21761000Y-35868000D01*
X21136000Y-36122000D02*
X21390000Y-35868000D01*
X29083000Y-35433000D02*
X29083000Y-36068000D01*
X28658000Y-36493000D02*
X27886000Y-36493000D01*
X29083000Y-36068000D02*
X28658000Y-36493000D01*
X29083000Y-43688000D02*
X27559000Y-43688000D01*
X27261000Y-43390000D02*
X27261000Y-42618000D01*
X27559000Y-43688000D02*
X27261000Y-43390000D01*
D41*
X36576000Y-18796000D02*
X36576000Y-21336000D01*
X33970000Y-14732000D02*
X33970000Y-15809000D01*
X33970000Y-15809000D02*
X36576000Y-18415000D01*
X36576000Y-18415000D02*
X36576000Y-18796000D01*
X29210000Y-6667500D02*
X30543500Y-6667500D01*
X33970000Y-10094000D02*
X33970000Y-14732000D01*
X30543500Y-6667500D02*
X33970000Y-10094000D01*
D40*
X33020000Y-21656000D02*
X36256000Y-21656000D01*
X36256000Y-21656000D02*
X36576000Y-21336000D01*
X28890000Y-3556000D02*
X28890000Y-6347500D01*
X28890000Y-6347500D02*
X29210000Y-6667500D01*
X18354000Y-33020000D02*
X18354000Y-34478000D01*
X18354000Y-33020000D02*
X18354000Y-32004000D01*
X18354000Y-34478000D02*
X18288000Y-34544000D01*
X18288000Y-40640000D02*
X18435000Y-40493000D01*
X29083000Y-35433000D02*
X29083000Y-32065000D01*
X29083000Y-32065000D02*
X29022000Y-32004000D01*
X28763000Y-45593000D02*
X28763000Y-44008000D01*
X28763000Y-44008000D02*
X29083000Y-43688000D01*
X36510000Y-32004000D02*
X38608000Y-32004000D01*
X36510000Y-36576000D02*
X38608000Y-36576000D01*
X36510000Y-41656000D02*
X38608000Y-41656000D01*
X24892000Y-27432000D02*
X24892000Y-32131000D01*
X24761000Y-32262000D02*
X24761000Y-35868000D01*
X24892000Y-32131000D02*
X24761000Y-32262000D01*
X32070000Y-14732000D02*
X32070000Y-15682000D01*
X32070000Y-15682000D02*
X28956000Y-18796000D01*
X26924000Y-18796000D02*
X28956000Y-18796000D01*
X25400000Y-20320000D02*
X26924000Y-18796000D01*
X25400000Y-26924000D02*
X25400000Y-20320000D01*
X24888000Y-27436000D02*
X24892000Y-27432000D01*
X24892000Y-27432000D02*
X25400000Y-26924000D01*
X27886000Y-38993000D02*
X30603000Y-38993000D01*
X30603000Y-38993000D02*
X31496000Y-38100000D01*
X34544000Y-34036000D02*
X34610000Y-33970000D01*
X34610000Y-33970000D02*
X34610000Y-32004000D01*
X27886000Y-39493000D02*
X31119000Y-39493000D01*
X31119000Y-39493000D02*
X31496000Y-39116000D01*
X34544000Y-39116000D02*
X34610000Y-39050000D01*
X34610000Y-39050000D02*
X34610000Y-36576000D01*
X27886000Y-39993000D02*
X31357000Y-39993000D01*
X31357000Y-39993000D02*
X31496000Y-40132000D01*
X34610000Y-40198000D02*
X34610000Y-41656000D01*
X34544000Y-40132000D02*
X34610000Y-40198000D01*
X31357000Y-39993000D02*
X31496000Y-40132000D01*
X21136000Y-41493000D02*
X19467000Y-41493000D01*
X19467000Y-41493000D02*
X17399000Y-43561000D01*
X17399000Y-43561000D02*
X17399000Y-45847000D01*
D41*
X21844000Y-20955000D02*
X21844000Y-18288000D01*
X20955000Y-17399000D02*
X14097000Y-17399000D01*
X21844000Y-18288000D02*
X20955000Y-17399000D01*
D42*
G36*
X6906368Y-727283D02*
X8128000Y-1948915D01*
X9349632Y-727283D01*
X9337710Y-702000D01*
X42986000Y-702000D01*
X42986000Y-62798000D01*
X21037898Y-62798000D01*
X21125000Y-62587718D01*
X21125000Y-62096750D01*
X20968250Y-61940000D01*
X19850000Y-61940000D01*
X19850000Y-61960000D01*
X19596000Y-61960000D01*
X19596000Y-61940000D01*
X18477750Y-61940000D01*
X18321000Y-62096750D01*
X18321000Y-62587718D01*
X18408102Y-62798000D01*
X13087898Y-62798000D01*
X13175000Y-62587718D01*
X13175000Y-62096750D01*
X13018250Y-61940000D01*
X11900000Y-61940000D01*
X11900000Y-61960000D01*
X11646000Y-61960000D01*
X11646000Y-61940000D01*
X10527750Y-61940000D01*
X10371000Y-62096750D01*
X10371000Y-62587718D01*
X10458102Y-62798000D01*
X6172422Y-62798000D01*
X6301792Y-62605238D01*
X4249420Y-60552865D01*
X2197048Y-62605238D01*
X2326418Y-62798000D01*
X702000Y-62798000D01*
X702000Y-59752907D01*
X1121438Y-59752907D01*
X1122143Y-60997155D01*
X1596941Y-62143418D01*
X2017442Y-62425632D01*
X4069815Y-60373260D01*
X4429025Y-60373260D01*
X6481398Y-62425632D01*
X6901899Y-62143418D01*
X7358929Y-61038282D01*
X10371000Y-61038282D01*
X10371000Y-61529250D01*
X10527750Y-61686000D01*
X11646000Y-61686000D01*
X11646000Y-60692750D01*
X11900000Y-60692750D01*
X11900000Y-61686000D01*
X13018250Y-61686000D01*
X13175000Y-61529250D01*
X13175000Y-61038282D01*
X18321000Y-61038282D01*
X18321000Y-61529250D01*
X18477750Y-61686000D01*
X19596000Y-61686000D01*
X19596000Y-60692750D01*
X19850000Y-60692750D01*
X19850000Y-61686000D01*
X20968250Y-61686000D01*
X21125000Y-61529250D01*
X21125000Y-61038282D01*
X21029545Y-60807833D01*
X20853167Y-60631455D01*
X20622718Y-60536000D01*
X20006750Y-60536000D01*
X19850000Y-60692750D01*
X19596000Y-60692750D01*
X19439250Y-60536000D01*
X18823282Y-60536000D01*
X18592833Y-60631455D01*
X18416455Y-60807833D01*
X18321000Y-61038282D01*
X13175000Y-61038282D01*
X13079545Y-60807833D01*
X12903167Y-60631455D01*
X12672718Y-60536000D01*
X12056750Y-60536000D01*
X11900000Y-60692750D01*
X11646000Y-60692750D01*
X11489250Y-60536000D01*
X10873282Y-60536000D01*
X10642833Y-60631455D01*
X10466455Y-60807833D01*
X10371000Y-61038282D01*
X7358929Y-61038282D01*
X7377402Y-60993613D01*
X7376697Y-59749365D01*
X6901899Y-58603102D01*
X6481398Y-58320888D01*
X4429025Y-60373260D01*
X4069815Y-60373260D01*
X2017442Y-58320888D01*
X1596941Y-58603102D01*
X1121438Y-59752907D01*
X702000Y-59752907D01*
X702000Y-58141282D01*
X2197048Y-58141282D01*
X4249420Y-60193655D01*
X6301792Y-58141282D01*
X6019578Y-57720781D01*
X4869773Y-57245278D01*
X3625525Y-57245983D01*
X2479262Y-57720781D01*
X2197048Y-58141282D01*
X702000Y-58141282D01*
X702000Y-54766750D01*
X16996000Y-54766750D01*
X16996000Y-55257718D01*
X17091455Y-55488167D01*
X17267833Y-55664545D01*
X17498282Y-55760000D01*
X17689250Y-55760000D01*
X17846000Y-55603250D01*
X17846000Y-54610000D01*
X17152750Y-54610000D01*
X16996000Y-54766750D01*
X702000Y-54766750D01*
X702000Y-54307141D01*
X3403464Y-54307141D01*
X3471891Y-54545833D01*
X3988082Y-54729235D01*
X4535166Y-54701140D01*
X4910109Y-54545833D01*
X4978536Y-54307141D01*
X4191000Y-53519605D01*
X3403464Y-54307141D01*
X702000Y-54307141D01*
X702000Y-53195416D01*
X869974Y-53363683D01*
X1375896Y-53573760D01*
X1923701Y-53574238D01*
X2429989Y-53365044D01*
X2658349Y-53137082D01*
X2801765Y-53137082D01*
X2829860Y-53684166D01*
X2985167Y-54059109D01*
X3223859Y-54127536D01*
X4011395Y-53340000D01*
X4370605Y-53340000D01*
X5158141Y-54127536D01*
X5396833Y-54059109D01*
X5580235Y-53542918D01*
X5552140Y-52995834D01*
X5396833Y-52620891D01*
X5158141Y-52552464D01*
X4370605Y-53340000D01*
X4011395Y-53340000D01*
X3223859Y-52552464D01*
X2985167Y-52620891D01*
X2801765Y-53137082D01*
X2658349Y-53137082D01*
X2817683Y-52978026D01*
X3027760Y-52472104D01*
X3028153Y-52021141D01*
X3403464Y-52021141D01*
X3453878Y-52197000D01*
X3403464Y-52372859D01*
X4191000Y-53160395D01*
X4978536Y-52372859D01*
X4928122Y-52197000D01*
X4978536Y-52021141D01*
X4191000Y-51233605D01*
X3403464Y-52021141D01*
X3028153Y-52021141D01*
X3028238Y-51924299D01*
X2819044Y-51418011D01*
X2455373Y-51053705D01*
X2658349Y-50851082D01*
X2801765Y-50851082D01*
X2829860Y-51398166D01*
X2985167Y-51773109D01*
X3223859Y-51841536D01*
X4011395Y-51054000D01*
X4370605Y-51054000D01*
X5158141Y-51841536D01*
X5396833Y-51773109D01*
X5580235Y-51256918D01*
X5552140Y-50709834D01*
X5396833Y-50334891D01*
X5158141Y-50266464D01*
X4370605Y-51054000D01*
X4011395Y-51054000D01*
X3223859Y-50266464D01*
X2985167Y-50334891D01*
X2801765Y-50851082D01*
X2658349Y-50851082D01*
X2817683Y-50692026D01*
X3027760Y-50186104D01*
X3028153Y-49735141D01*
X3403464Y-49735141D01*
X3453878Y-49911000D01*
X3403464Y-50086859D01*
X4191000Y-50874395D01*
X4978536Y-50086859D01*
X4928122Y-49911000D01*
X4978536Y-49735141D01*
X4191000Y-48947605D01*
X3403464Y-49735141D01*
X3028153Y-49735141D01*
X3028238Y-49638299D01*
X2819044Y-49132011D01*
X2455373Y-48767705D01*
X2658349Y-48565082D01*
X2801765Y-48565082D01*
X2829860Y-49112166D01*
X2985167Y-49487109D01*
X3223859Y-49555536D01*
X4011395Y-48768000D01*
X4370605Y-48768000D01*
X5158141Y-49555536D01*
X5396833Y-49487109D01*
X5580235Y-48970918D01*
X5552140Y-48423834D01*
X5396833Y-48048891D01*
X5158141Y-47980464D01*
X4370605Y-48768000D01*
X4011395Y-48768000D01*
X3223859Y-47980464D01*
X2985167Y-48048891D01*
X2801765Y-48565082D01*
X2658349Y-48565082D01*
X2817683Y-48406026D01*
X3027760Y-47900104D01*
X3028238Y-47352299D01*
X2819044Y-46846011D01*
X2727894Y-46754701D01*
X2813762Y-46754701D01*
X3022956Y-47260989D01*
X3409974Y-47648683D01*
X3443141Y-47662455D01*
X3403464Y-47800859D01*
X4191000Y-48588395D01*
X4978536Y-47800859D01*
X4938975Y-47662859D01*
X4969989Y-47650044D01*
X5357683Y-47263026D01*
X5567760Y-46757104D01*
X5568238Y-46209299D01*
X5359044Y-45703011D01*
X4972026Y-45315317D01*
X4938859Y-45301545D01*
X4978536Y-45163141D01*
X4191000Y-44375605D01*
X3403464Y-45163141D01*
X3443025Y-45301141D01*
X3412011Y-45313956D01*
X3024317Y-45700974D01*
X2814240Y-46206896D01*
X2813762Y-46754701D01*
X2727894Y-46754701D01*
X2455373Y-46481705D01*
X2817683Y-46120026D01*
X3027760Y-45614104D01*
X3028238Y-45066299D01*
X2941971Y-44857517D01*
X2955647Y-44843841D01*
X2985167Y-44915109D01*
X3223859Y-44983536D01*
X4011395Y-44196000D01*
X4370605Y-44196000D01*
X5158141Y-44983536D01*
X5396833Y-44915109D01*
X5580235Y-44398918D01*
X5552140Y-43851834D01*
X5396833Y-43476891D01*
X5158141Y-43408464D01*
X4370605Y-44196000D01*
X4011395Y-44196000D01*
X3997253Y-44181858D01*
X4176858Y-44002253D01*
X4191000Y-44016395D01*
X4978536Y-43228859D01*
X4910109Y-42990167D01*
X4393918Y-42806765D01*
X4355764Y-42808724D01*
X4756489Y-42408000D01*
X5498836Y-42408000D01*
X5341765Y-42850082D01*
X5369860Y-43397166D01*
X5525167Y-43772109D01*
X5763859Y-43840536D01*
X6551395Y-43053000D01*
X6537253Y-43038858D01*
X6716858Y-42859253D01*
X6731000Y-42873395D01*
X6745143Y-42859253D01*
X6924748Y-43038858D01*
X6910605Y-43053000D01*
X7698141Y-43840536D01*
X7884000Y-43787255D01*
X7884000Y-44544941D01*
X7512026Y-44172317D01*
X7478859Y-44158545D01*
X7518536Y-44020141D01*
X6731000Y-43232605D01*
X5943464Y-44020141D01*
X5983025Y-44158141D01*
X5952011Y-44170956D01*
X5564317Y-44557974D01*
X5354240Y-45063896D01*
X5353762Y-45611701D01*
X5562956Y-46117989D01*
X5926627Y-46482295D01*
X5564317Y-46843974D01*
X5354240Y-47349896D01*
X5353762Y-47897701D01*
X5562956Y-48403989D01*
X5926627Y-48768295D01*
X5564317Y-49129974D01*
X5354240Y-49635896D01*
X5353762Y-50183701D01*
X5562956Y-50689989D01*
X5926627Y-51054295D01*
X5564317Y-51415974D01*
X5354240Y-51921896D01*
X5353762Y-52469701D01*
X5562956Y-52975989D01*
X5949974Y-53363683D01*
X6455896Y-53573760D01*
X7003701Y-53574238D01*
X7509989Y-53365044D01*
X7897683Y-52978026D01*
X7945964Y-52861750D01*
X9376000Y-52861750D01*
X9376000Y-53352718D01*
X9471455Y-53583167D01*
X9647833Y-53759545D01*
X9878282Y-53855000D01*
X10069250Y-53855000D01*
X10226000Y-53698250D01*
X10226000Y-52705000D01*
X9532750Y-52705000D01*
X9376000Y-52861750D01*
X7945964Y-52861750D01*
X8107760Y-52472104D01*
X8108238Y-51924299D01*
X7899044Y-51418011D01*
X7535373Y-51053705D01*
X7632497Y-50956750D01*
X9376000Y-50956750D01*
X9376000Y-51447718D01*
X9449640Y-51625500D01*
X9376000Y-51803282D01*
X9376000Y-52294250D01*
X9532750Y-52451000D01*
X10226000Y-52451000D01*
X10226000Y-50800000D01*
X9532750Y-50800000D01*
X9376000Y-50956750D01*
X7632497Y-50956750D01*
X7897683Y-50692026D01*
X8107760Y-50186104D01*
X8108238Y-49638299D01*
X7899044Y-49132011D01*
X7818923Y-49051750D01*
X9376000Y-49051750D01*
X9376000Y-49542718D01*
X9449640Y-49720500D01*
X9376000Y-49898282D01*
X9376000Y-50389250D01*
X9532750Y-50546000D01*
X10226000Y-50546000D01*
X10226000Y-48895000D01*
X9532750Y-48895000D01*
X9376000Y-49051750D01*
X7818923Y-49051750D01*
X7535373Y-48767705D01*
X7897683Y-48406026D01*
X8107760Y-47900104D01*
X8108238Y-47352299D01*
X7899044Y-46846011D01*
X7535373Y-46481705D01*
X7884000Y-46133685D01*
X7884000Y-46228000D01*
X7941243Y-46515778D01*
X8104256Y-46759744D01*
X8739256Y-47394745D01*
X8864930Y-47478717D01*
X8983222Y-47557757D01*
X9271000Y-47615000D01*
X9382910Y-47615000D01*
X9407437Y-47745352D01*
X9450790Y-47812724D01*
X9376000Y-47993282D01*
X9376000Y-48484250D01*
X9532750Y-48641000D01*
X10226000Y-48641000D01*
X10226000Y-48621000D01*
X10480000Y-48621000D01*
X10480000Y-48641000D01*
X10500000Y-48641000D01*
X10500000Y-48895000D01*
X10480000Y-48895000D01*
X10480000Y-50546000D01*
X10500000Y-50546000D01*
X10500000Y-50800000D01*
X10480000Y-50800000D01*
X10480000Y-52451000D01*
X10500000Y-52451000D01*
X10500000Y-52705000D01*
X10480000Y-52705000D01*
X10480000Y-53698250D01*
X10636750Y-53855000D01*
X10827718Y-53855000D01*
X11058167Y-53759545D01*
X11234545Y-53583167D01*
X11300559Y-53423796D01*
X11307437Y-53460352D01*
X11444757Y-53673753D01*
X11654283Y-53816917D01*
X11903000Y-53867283D01*
X12603000Y-53867283D01*
X12835352Y-53823563D01*
X13048753Y-53686243D01*
X13172613Y-53504970D01*
X13246189Y-53505034D01*
X13354757Y-53673753D01*
X13564283Y-53816917D01*
X13813000Y-53867283D01*
X14513000Y-53867283D01*
X14745352Y-53823563D01*
X14958753Y-53686243D01*
X15101917Y-53476717D01*
X15111558Y-53429108D01*
X15117437Y-53460352D01*
X15254757Y-53673753D01*
X15464283Y-53816917D01*
X15713000Y-53867283D01*
X16413000Y-53867283D01*
X16645352Y-53823563D01*
X16858753Y-53686243D01*
X17001917Y-53476717D01*
X17016742Y-53403511D01*
X17027437Y-53460352D01*
X17070790Y-53527724D01*
X16996000Y-53708282D01*
X16996000Y-54199250D01*
X17152750Y-54356000D01*
X17846000Y-54356000D01*
X17846000Y-54336000D01*
X18100000Y-54336000D01*
X18100000Y-54356000D01*
X18120000Y-54356000D01*
X18120000Y-54610000D01*
X18100000Y-54610000D01*
X18100000Y-55603250D01*
X18171000Y-55674250D01*
X18171000Y-55753000D01*
X18228243Y-56040778D01*
X18391256Y-56284744D01*
X18424725Y-56318213D01*
X18359083Y-56414283D01*
X18329372Y-56561000D01*
X13168090Y-56561000D01*
X13143563Y-56430648D01*
X13006243Y-56217247D01*
X12796717Y-56074083D01*
X12548000Y-56023717D01*
X10998000Y-56023717D01*
X10765648Y-56067437D01*
X10552247Y-56204757D01*
X10409083Y-56414283D01*
X10358717Y-56663000D01*
X10358717Y-57963000D01*
X10402437Y-58195352D01*
X10539757Y-58408753D01*
X10749283Y-58551917D01*
X10998000Y-58602283D01*
X12548000Y-58602283D01*
X12780352Y-58558563D01*
X12993753Y-58421243D01*
X13136917Y-58211717D01*
X13166628Y-58065000D01*
X18327910Y-58065000D01*
X18352437Y-58195352D01*
X18489757Y-58408753D01*
X18699283Y-58551917D01*
X18948000Y-58602283D01*
X20498000Y-58602283D01*
X20730352Y-58558563D01*
X20943753Y-58421243D01*
X21086917Y-58211717D01*
X21137283Y-57963000D01*
X21137283Y-56663000D01*
X21093563Y-56430648D01*
X20956243Y-56217247D01*
X20746717Y-56074083D01*
X20498000Y-56023717D01*
X20256388Y-56023717D01*
X20254744Y-56021256D01*
X20005771Y-55772283D01*
X20223000Y-55772283D01*
X20455352Y-55728563D01*
X20668753Y-55591243D01*
X20811917Y-55381717D01*
X20862283Y-55133000D01*
X20862283Y-53833000D01*
X20818563Y-53600648D01*
X20774270Y-53531815D01*
X20811917Y-53476717D01*
X20862283Y-53228000D01*
X20862283Y-51928000D01*
X20818563Y-51695648D01*
X20681243Y-51482247D01*
X20625000Y-51443818D01*
X20625000Y-50988000D01*
X20567757Y-50700222D01*
X20485085Y-50576495D01*
X20485161Y-50489417D01*
X20344331Y-50148583D01*
X20083789Y-49887586D01*
X19743201Y-49746161D01*
X19374417Y-49745839D01*
X19033583Y-49886669D01*
X18772586Y-50147211D01*
X18631161Y-50487799D01*
X18630839Y-50856583D01*
X18771669Y-51197417D01*
X19032211Y-51458414D01*
X19073331Y-51475488D01*
X18934083Y-51679283D01*
X18924442Y-51726892D01*
X18918563Y-51695648D01*
X18781243Y-51482247D01*
X18571717Y-51339083D01*
X18323000Y-51288717D01*
X17623000Y-51288717D01*
X17390648Y-51332437D01*
X17177247Y-51469757D01*
X17034083Y-51679283D01*
X17019258Y-51752489D01*
X17008563Y-51695648D01*
X16964270Y-51626815D01*
X17001917Y-51571717D01*
X17052283Y-51323000D01*
X17052283Y-50023000D01*
X17008563Y-49790648D01*
X16964270Y-49721815D01*
X17001917Y-49666717D01*
X17032200Y-49517175D01*
X17305778Y-49462757D01*
X17549744Y-49299744D01*
X17964489Y-48885000D01*
X29807511Y-48885000D01*
X25376256Y-53316256D01*
X25213243Y-53560222D01*
X25156000Y-53848000D01*
X25156000Y-57404000D01*
X25213243Y-57691778D01*
X25376256Y-57935744D01*
X26495904Y-59055392D01*
X26420197Y-59436000D01*
X26533662Y-60006428D01*
X26856784Y-60490013D01*
X27340369Y-60813135D01*
X27910797Y-60926600D01*
X27969203Y-60926600D01*
X28539631Y-60813135D01*
X29023216Y-60490013D01*
X29209018Y-60211942D01*
X29595705Y-60635976D01*
X30122229Y-60883038D01*
X30353000Y-60764440D01*
X30353000Y-59563000D01*
X30607000Y-59563000D01*
X30607000Y-60764440D01*
X30837771Y-60883038D01*
X31364295Y-60635976D01*
X31750000Y-60213019D01*
X32135705Y-60635976D01*
X32662229Y-60883038D01*
X32893000Y-60764440D01*
X32893000Y-59563000D01*
X33147000Y-59563000D01*
X33147000Y-60764440D01*
X33377771Y-60883038D01*
X33904295Y-60635976D01*
X34290000Y-60213019D01*
X34675705Y-60635976D01*
X35202229Y-60883038D01*
X35433000Y-60764440D01*
X35433000Y-59563000D01*
X33147000Y-59563000D01*
X32893000Y-59563000D01*
X30607000Y-59563000D01*
X30353000Y-59563000D01*
X30333000Y-59563000D01*
X30333000Y-59309000D01*
X30353000Y-59309000D01*
X30353000Y-59289000D01*
X30607000Y-59289000D01*
X30607000Y-59309000D01*
X32893000Y-59309000D01*
X32893000Y-59289000D01*
X33147000Y-59289000D01*
X33147000Y-59309000D01*
X35433000Y-59309000D01*
X35433000Y-59289000D01*
X35687000Y-59289000D01*
X35687000Y-59309000D01*
X35707000Y-59309000D01*
X35707000Y-59563000D01*
X35687000Y-59563000D01*
X35687000Y-60764440D01*
X35917771Y-60883038D01*
X36444295Y-60635976D01*
X36830982Y-60211942D01*
X37016784Y-60490013D01*
X37500369Y-60813135D01*
X38070797Y-60926600D01*
X38129203Y-60926600D01*
X38699631Y-60813135D01*
X39183216Y-60490013D01*
X39506338Y-60006428D01*
X39619803Y-59436000D01*
X39506338Y-58865572D01*
X39183216Y-58381987D01*
X39154691Y-58362927D01*
X39195952Y-58355163D01*
X39409353Y-58217843D01*
X39552517Y-58008317D01*
X39602883Y-57759600D01*
X39602883Y-56032400D01*
X39559163Y-55800048D01*
X39421843Y-55586647D01*
X39212317Y-55443483D01*
X38963600Y-55393117D01*
X37236400Y-55393117D01*
X37004048Y-55436837D01*
X36790647Y-55574157D01*
X36647483Y-55783683D01*
X36636575Y-55837550D01*
X36159631Y-55518865D01*
X35589203Y-55405400D01*
X35530797Y-55405400D01*
X34960369Y-55518865D01*
X34476784Y-55841987D01*
X34290000Y-56121528D01*
X34103216Y-55841987D01*
X33619631Y-55518865D01*
X33049203Y-55405400D01*
X32990797Y-55405400D01*
X32420369Y-55518865D01*
X31936784Y-55841987D01*
X31750000Y-56121528D01*
X31563216Y-55841987D01*
X31079631Y-55518865D01*
X30509203Y-55405400D01*
X30450797Y-55405400D01*
X29880369Y-55518865D01*
X29396784Y-55841987D01*
X29210000Y-56121528D01*
X29023216Y-55841987D01*
X28692000Y-55620675D01*
X28692000Y-54159488D01*
X31727935Y-51123553D01*
X35797052Y-51123553D01*
X36164437Y-51616740D01*
X37567075Y-52208800D01*
X39089516Y-52219027D01*
X40499981Y-51645861D01*
X40543563Y-51616740D01*
X40910948Y-51123553D01*
X38354000Y-48566605D01*
X35797052Y-51123553D01*
X31727935Y-51123553D01*
X33551744Y-49299744D01*
X33670164Y-49122516D01*
X34521973Y-49122516D01*
X35095139Y-50532981D01*
X35124260Y-50576563D01*
X35617447Y-50943948D01*
X38174395Y-48387000D01*
X38533605Y-48387000D01*
X41090553Y-50943948D01*
X41583740Y-50576563D01*
X42175800Y-49173925D01*
X42186027Y-47651484D01*
X41612861Y-46241019D01*
X41583740Y-46197437D01*
X41090553Y-45830052D01*
X38533605Y-48387000D01*
X38174395Y-48387000D01*
X35617447Y-45830052D01*
X35124260Y-46197437D01*
X34532200Y-47600075D01*
X34521973Y-49122516D01*
X33670164Y-49122516D01*
X33714757Y-49055778D01*
X33772000Y-48768000D01*
X33772000Y-45650447D01*
X35797052Y-45650447D01*
X38354000Y-48207395D01*
X40910948Y-45650447D01*
X40543563Y-45157260D01*
X39140925Y-44565200D01*
X37618484Y-44554973D01*
X36208019Y-45128139D01*
X36164437Y-45157260D01*
X35797052Y-45650447D01*
X33772000Y-45650447D01*
X33772000Y-42705509D01*
X33801757Y-42751753D01*
X34011283Y-42894917D01*
X34260000Y-42945283D01*
X34960000Y-42945283D01*
X35192352Y-42901563D01*
X35405753Y-42764243D01*
X35548917Y-42554717D01*
X35558558Y-42507108D01*
X35564437Y-42538352D01*
X35701757Y-42751753D01*
X35911283Y-42894917D01*
X36160000Y-42945283D01*
X36860000Y-42945283D01*
X37092352Y-42901563D01*
X37158073Y-42859273D01*
X37249757Y-43001753D01*
X37459283Y-43144917D01*
X37708000Y-43195283D01*
X39508000Y-43195283D01*
X39740352Y-43151563D01*
X39953753Y-43014243D01*
X40096917Y-42804717D01*
X40097171Y-42803465D01*
X40138657Y-42844951D01*
X40251818Y-42731790D01*
X40338663Y-42986023D01*
X40909248Y-43194501D01*
X41516181Y-43168756D01*
X41957337Y-42986023D01*
X42044183Y-42731788D01*
X41148000Y-41835605D01*
X41133858Y-41849748D01*
X40954253Y-41670143D01*
X40968395Y-41656000D01*
X41327605Y-41656000D01*
X42223788Y-42552183D01*
X42478023Y-42465337D01*
X42686501Y-41894752D01*
X42660756Y-41287819D01*
X42478023Y-40846663D01*
X42223788Y-40759817D01*
X41327605Y-41656000D01*
X40968395Y-41656000D01*
X40954253Y-41641858D01*
X41133858Y-41462253D01*
X41148000Y-41476395D01*
X42044183Y-40580212D01*
X41957337Y-40325977D01*
X41386752Y-40117499D01*
X40779819Y-40143244D01*
X40338663Y-40325977D01*
X40251818Y-40580210D01*
X40138657Y-40467049D01*
X40095143Y-40510563D01*
X39966243Y-40310247D01*
X39756717Y-40167083D01*
X39508000Y-40116717D01*
X37708000Y-40116717D01*
X37475648Y-40160437D01*
X37262247Y-40297757D01*
X37157800Y-40450620D01*
X37108717Y-40417083D01*
X36860000Y-40366717D01*
X36160000Y-40366717D01*
X35927648Y-40410437D01*
X35714247Y-40547757D01*
X35571083Y-40757283D01*
X35561442Y-40804892D01*
X35555563Y-40773648D01*
X35418243Y-40560247D01*
X35380598Y-40534525D01*
X35470839Y-40317201D01*
X35471161Y-39948417D01*
X35336958Y-39623621D01*
X35470839Y-39301201D01*
X35471161Y-38932417D01*
X35362000Y-38668228D01*
X35362000Y-37712397D01*
X35405753Y-37684243D01*
X35548917Y-37474717D01*
X35558558Y-37427108D01*
X35564437Y-37458352D01*
X35701757Y-37671753D01*
X35911283Y-37814917D01*
X36160000Y-37865283D01*
X36860000Y-37865283D01*
X37092352Y-37821563D01*
X37158073Y-37779273D01*
X37249757Y-37921753D01*
X37459283Y-38064917D01*
X37708000Y-38115283D01*
X39508000Y-38115283D01*
X39740352Y-38071563D01*
X39953753Y-37934243D01*
X40096917Y-37724717D01*
X40097171Y-37723465D01*
X40138657Y-37764951D01*
X40251818Y-37651790D01*
X40338663Y-37906023D01*
X40909248Y-38114501D01*
X41516181Y-38088756D01*
X41957337Y-37906023D01*
X42044183Y-37651788D01*
X41148000Y-36755605D01*
X41133858Y-36769748D01*
X40954253Y-36590143D01*
X40968395Y-36576000D01*
X41327605Y-36576000D01*
X42223788Y-37472183D01*
X42478023Y-37385337D01*
X42686501Y-36814752D01*
X42660756Y-36207819D01*
X42478023Y-35766663D01*
X42223788Y-35679817D01*
X41327605Y-36576000D01*
X40968395Y-36576000D01*
X40954253Y-36561858D01*
X41133858Y-36382253D01*
X41148000Y-36396395D01*
X42044183Y-35500212D01*
X41957337Y-35245977D01*
X41386752Y-35037499D01*
X40779819Y-35063244D01*
X40338663Y-35245977D01*
X40251818Y-35500210D01*
X40138657Y-35387049D01*
X40095143Y-35430563D01*
X39966243Y-35230247D01*
X39756717Y-35087083D01*
X39508000Y-35036717D01*
X37708000Y-35036717D01*
X37475648Y-35080437D01*
X37262247Y-35217757D01*
X37157800Y-35370620D01*
X37108717Y-35337083D01*
X36860000Y-35286717D01*
X36160000Y-35286717D01*
X35927648Y-35330437D01*
X35714247Y-35467757D01*
X35571083Y-35677283D01*
X35561442Y-35724892D01*
X35555563Y-35693648D01*
X35418243Y-35480247D01*
X35208717Y-35337083D01*
X34960000Y-35286717D01*
X34260000Y-35286717D01*
X34027648Y-35330437D01*
X33814247Y-35467757D01*
X33772000Y-35529587D01*
X33772000Y-34671000D01*
X33742888Y-34524644D01*
X33757669Y-34560417D01*
X34018211Y-34821414D01*
X34358799Y-34962839D01*
X34727583Y-34963161D01*
X35068417Y-34822331D01*
X35329414Y-34561789D01*
X35470839Y-34221201D01*
X35471161Y-33852417D01*
X35362000Y-33588228D01*
X35362000Y-33140397D01*
X35405753Y-33112243D01*
X35548917Y-32902717D01*
X35558558Y-32855108D01*
X35564437Y-32886352D01*
X35701757Y-33099753D01*
X35911283Y-33242917D01*
X36160000Y-33293283D01*
X36860000Y-33293283D01*
X37092352Y-33249563D01*
X37158073Y-33207273D01*
X37249757Y-33349753D01*
X37459283Y-33492917D01*
X37708000Y-33543283D01*
X39508000Y-33543283D01*
X39740352Y-33499563D01*
X39953753Y-33362243D01*
X40096917Y-33152717D01*
X40097171Y-33151465D01*
X40138657Y-33192951D01*
X40251818Y-33079790D01*
X40338663Y-33334023D01*
X40909248Y-33542501D01*
X41516181Y-33516756D01*
X41957337Y-33334023D01*
X42044183Y-33079788D01*
X41148000Y-32183605D01*
X41133858Y-32197748D01*
X40954253Y-32018143D01*
X40968395Y-32004000D01*
X41327605Y-32004000D01*
X42223788Y-32900183D01*
X42478023Y-32813337D01*
X42686501Y-32242752D01*
X42660756Y-31635819D01*
X42478023Y-31194663D01*
X42223788Y-31107817D01*
X41327605Y-32004000D01*
X40968395Y-32004000D01*
X40954253Y-31989858D01*
X41133858Y-31810253D01*
X41148000Y-31824395D01*
X42044183Y-30928212D01*
X41957337Y-30673977D01*
X41386752Y-30465499D01*
X40779819Y-30491244D01*
X40338663Y-30673977D01*
X40251818Y-30928210D01*
X40138657Y-30815049D01*
X40095143Y-30858563D01*
X39966243Y-30658247D01*
X39756717Y-30515083D01*
X39508000Y-30464717D01*
X37708000Y-30464717D01*
X37475648Y-30508437D01*
X37262247Y-30645757D01*
X37157800Y-30798620D01*
X37108717Y-30765083D01*
X36860000Y-30714717D01*
X36160000Y-30714717D01*
X35927648Y-30758437D01*
X35714247Y-30895757D01*
X35571083Y-31105283D01*
X35561442Y-31152892D01*
X35555563Y-31121648D01*
X35418243Y-30908247D01*
X35208717Y-30765083D01*
X34960000Y-30714717D01*
X34260000Y-30714717D01*
X34027648Y-30758437D01*
X33814247Y-30895757D01*
X33671083Y-31105283D01*
X33620717Y-31354000D01*
X33620717Y-32654000D01*
X33664437Y-32886352D01*
X33801757Y-33099753D01*
X33858000Y-33138182D01*
X33858000Y-33410970D01*
X33758586Y-33510211D01*
X33617161Y-33850799D01*
X33616839Y-34219583D01*
X33635348Y-34264378D01*
X33605417Y-34219583D01*
X33551745Y-34139256D01*
X31900744Y-32488256D01*
X31899000Y-32487091D01*
X31899000Y-32287750D01*
X31742250Y-32131000D01*
X31049000Y-32131000D01*
X31049000Y-32151000D01*
X30795000Y-32151000D01*
X30795000Y-32131000D01*
X30775000Y-32131000D01*
X30775000Y-31877000D01*
X30795000Y-31877000D01*
X30795000Y-30883750D01*
X31049000Y-30883750D01*
X31049000Y-31877000D01*
X31742250Y-31877000D01*
X31899000Y-31720250D01*
X31899000Y-31229282D01*
X31803545Y-30998833D01*
X31627167Y-30822455D01*
X31396718Y-30727000D01*
X31205750Y-30727000D01*
X31049000Y-30883750D01*
X30795000Y-30883750D01*
X30680485Y-30769235D01*
X30666757Y-30700222D01*
X30583249Y-30575243D01*
X30503744Y-30456255D01*
X29995744Y-29948256D01*
X29751778Y-29785243D01*
X29464000Y-29728000D01*
X28993488Y-29728000D01*
X29013488Y-29708000D01*
X29464000Y-29708000D01*
X29751778Y-29650757D01*
X29995744Y-29487744D01*
X34855488Y-24628000D01*
X34959416Y-24628000D01*
X35131166Y-24885041D01*
X35521718Y-25146000D01*
X35131166Y-25406959D01*
X34821831Y-25869911D01*
X34713207Y-26416000D01*
X34821831Y-26962089D01*
X35131166Y-27425041D01*
X35594118Y-27734376D01*
X36140207Y-27843000D01*
X37011793Y-27843000D01*
X37557882Y-27734376D01*
X38020834Y-27425041D01*
X38330169Y-26962089D01*
X38438793Y-26416000D01*
X38432604Y-26384884D01*
X38885744Y-25931744D01*
X39048757Y-25687778D01*
X39106000Y-25400000D01*
X39106000Y-22860000D01*
X39048757Y-22572222D01*
X38885744Y-22328256D01*
X38631744Y-22074256D01*
X38387778Y-21911243D01*
X38319733Y-21897708D01*
X38330169Y-21882089D01*
X38438793Y-21336000D01*
X38330169Y-20789911D01*
X38020834Y-20326959D01*
X37630282Y-20066000D01*
X38020834Y-19805041D01*
X38330169Y-19342089D01*
X38438793Y-18796000D01*
X38330169Y-18249911D01*
X38020834Y-17786959D01*
X37557882Y-17477624D01*
X37011793Y-17369000D01*
X36699555Y-17369000D01*
X34917734Y-15587179D01*
X34959283Y-15382000D01*
X34959283Y-14082000D01*
X34915563Y-13849648D01*
X34797000Y-13665396D01*
X34797000Y-10094000D01*
X34734048Y-9777521D01*
X34554777Y-9509223D01*
X33243107Y-8197553D01*
X35797052Y-8197553D01*
X36164437Y-8690740D01*
X37567075Y-9282800D01*
X39089516Y-9293027D01*
X40499981Y-8719861D01*
X40543563Y-8690740D01*
X40910948Y-8197553D01*
X38354000Y-5640605D01*
X35797052Y-8197553D01*
X33243107Y-8197553D01*
X31242070Y-6196516D01*
X34521973Y-6196516D01*
X35095139Y-7606981D01*
X35124260Y-7650563D01*
X35617447Y-8017948D01*
X38174395Y-5461000D01*
X38533605Y-5461000D01*
X41090553Y-8017948D01*
X41583740Y-7650563D01*
X42175800Y-6247925D01*
X42186027Y-4725484D01*
X41612861Y-3315019D01*
X41583740Y-3271437D01*
X41090553Y-2904052D01*
X38533605Y-5461000D01*
X38174395Y-5461000D01*
X35617447Y-2904052D01*
X35124260Y-3271437D01*
X34532200Y-4674075D01*
X34521973Y-6196516D01*
X31242070Y-6196516D01*
X31128277Y-6082723D01*
X30859979Y-5903452D01*
X30543500Y-5840500D01*
X29863012Y-5840500D01*
X29839717Y-5824583D01*
X29642000Y-5784545D01*
X29642000Y-4692397D01*
X29685753Y-4664243D01*
X29828917Y-4454717D01*
X29879283Y-4206000D01*
X29879283Y-2906000D01*
X29845122Y-2724447D01*
X35797052Y-2724447D01*
X38354000Y-5281395D01*
X40910948Y-2724447D01*
X40543563Y-2231260D01*
X39140925Y-1639200D01*
X37618484Y-1628973D01*
X36208019Y-2202139D01*
X36164437Y-2231260D01*
X35797052Y-2724447D01*
X29845122Y-2724447D01*
X29835563Y-2673648D01*
X29698243Y-2460247D01*
X29488717Y-2317083D01*
X29240000Y-2266717D01*
X28540000Y-2266717D01*
X28307648Y-2310437D01*
X28094247Y-2447757D01*
X27951083Y-2657283D01*
X27939444Y-2714757D01*
X27871545Y-2550833D01*
X27695167Y-2374455D01*
X27464718Y-2279000D01*
X27273750Y-2279000D01*
X27117000Y-2435750D01*
X27117000Y-3429000D01*
X27137000Y-3429000D01*
X27137000Y-3683000D01*
X27117000Y-3683000D01*
X27117000Y-4676250D01*
X27273750Y-4833000D01*
X27464718Y-4833000D01*
X27695167Y-4737545D01*
X27871545Y-4561167D01*
X27937559Y-4401796D01*
X27944437Y-4438352D01*
X28081757Y-4651753D01*
X28138000Y-4690182D01*
X28138000Y-5892516D01*
X27876500Y-5840500D01*
X27323012Y-5840500D01*
X27299717Y-5824583D01*
X27051000Y-5774217D01*
X26289000Y-5774217D01*
X26056648Y-5817937D01*
X26044992Y-5825438D01*
X25730777Y-5511223D01*
X25462479Y-5331952D01*
X25146000Y-5269000D01*
X22083978Y-5269000D01*
X22073563Y-5213648D01*
X21936243Y-5000247D01*
X21726717Y-4857083D01*
X21478000Y-4806717D01*
X21275097Y-4806717D01*
X21486912Y-4718980D01*
X21543030Y-4490635D01*
X20828000Y-3775605D01*
X20112970Y-4490635D01*
X20169088Y-4718980D01*
X20421710Y-4806717D01*
X20178000Y-4806717D01*
X19945648Y-4850437D01*
X19732247Y-4987757D01*
X19589083Y-5197283D01*
X19538717Y-5446000D01*
X19538717Y-6746000D01*
X19582437Y-6978352D01*
X19719757Y-7191753D01*
X19929283Y-7334917D01*
X20178000Y-7385283D01*
X21478000Y-7385283D01*
X21710352Y-7341563D01*
X21923753Y-7204243D01*
X22066917Y-6994717D01*
X22081440Y-6923000D01*
X24803446Y-6923000D01*
X25132723Y-7252277D01*
X25401021Y-7431548D01*
X25717500Y-7494500D01*
X26016988Y-7494500D01*
X26040283Y-7510417D01*
X26289000Y-7560783D01*
X26817000Y-7560783D01*
X26817000Y-7679217D01*
X26289000Y-7679217D01*
X26056648Y-7722937D01*
X26019253Y-7747000D01*
X25818750Y-7747000D01*
X25662000Y-7903750D01*
X25662000Y-7998718D01*
X25697244Y-8083804D01*
X25649717Y-8318500D01*
X25649717Y-8662654D01*
X25585217Y-8618583D01*
X25336500Y-8568217D01*
X23685500Y-8568217D01*
X23453148Y-8611937D01*
X23239747Y-8749257D01*
X23096583Y-8958783D01*
X23046217Y-9207500D01*
X23046217Y-10858500D01*
X23089937Y-11090852D01*
X23227257Y-11304253D01*
X23436783Y-11447417D01*
X23685500Y-11497783D01*
X25336500Y-11497783D01*
X25568852Y-11454063D01*
X25782253Y-11316743D01*
X25925417Y-11107217D01*
X25975479Y-10860000D01*
X27113000Y-10860000D01*
X27113000Y-11595445D01*
X25704223Y-13004223D01*
X25524952Y-13272521D01*
X25462000Y-13589000D01*
X25462000Y-13778000D01*
X24896283Y-13778000D01*
X24896283Y-13208000D01*
X24852563Y-12975648D01*
X24715243Y-12762247D01*
X24505717Y-12619083D01*
X24257000Y-12568717D01*
X19431000Y-12568717D01*
X19198648Y-12612437D01*
X18985247Y-12749757D01*
X18842083Y-12959283D01*
X18791717Y-13208000D01*
X18791717Y-13778000D01*
X12700000Y-13778000D01*
X12383521Y-13840952D01*
X12115223Y-14020223D01*
X8178223Y-17957223D01*
X7998952Y-18225521D01*
X7936000Y-18542000D01*
X7936000Y-19382234D01*
X7553953Y-19763614D01*
X7336248Y-20287907D01*
X7335752Y-20855603D01*
X7552543Y-21380275D01*
X7794916Y-21623072D01*
X7553953Y-21863614D01*
X7336248Y-22387907D01*
X7335752Y-22955603D01*
X7552543Y-23480275D01*
X7914482Y-23842846D01*
X7730648Y-23877437D01*
X7517247Y-24014757D01*
X7374083Y-24224283D01*
X7323717Y-24473000D01*
X7323717Y-26073000D01*
X7367437Y-26305352D01*
X7504757Y-26518753D01*
X7614374Y-26593652D01*
X7515759Y-26623807D01*
X7323995Y-27158134D01*
X7351308Y-27725173D01*
X7515759Y-28122193D01*
X7759630Y-28196765D01*
X8583395Y-27373000D01*
X8569253Y-27358858D01*
X8748858Y-27179253D01*
X8763000Y-27193395D01*
X8777143Y-27179253D01*
X8956748Y-27358858D01*
X8942605Y-27373000D01*
X9766370Y-28196765D01*
X10010241Y-28122193D01*
X10158199Y-27709927D01*
X10352543Y-28180275D01*
X10753614Y-28582047D01*
X11277907Y-28799752D01*
X11845603Y-28800248D01*
X12370275Y-28583457D01*
X12772047Y-28182386D01*
X12795876Y-28125000D01*
X13345512Y-28125000D01*
X13692256Y-28471744D01*
X13936222Y-28634757D01*
X14224000Y-28692000D01*
X14843910Y-28692000D01*
X14868437Y-28822352D01*
X15005757Y-29035753D01*
X15215283Y-29178917D01*
X15464000Y-29229283D01*
X16164000Y-29229283D01*
X16396352Y-29185563D01*
X16609753Y-29048243D01*
X16752917Y-28838717D01*
X16762558Y-28791108D01*
X16768437Y-28822352D01*
X16857939Y-28961442D01*
X16726161Y-29278799D01*
X16725839Y-29647583D01*
X16866669Y-29988417D01*
X17127211Y-30249414D01*
X17467799Y-30390839D01*
X17836583Y-30391161D01*
X18177417Y-30250331D01*
X18438414Y-29989789D01*
X18579839Y-29649201D01*
X18580161Y-29280417D01*
X18489590Y-29061218D01*
X18509753Y-29048243D01*
X18652917Y-28838717D01*
X18703283Y-28590000D01*
X18703283Y-27290000D01*
X18659563Y-27057648D01*
X18522243Y-26844247D01*
X18312717Y-26701083D01*
X18162719Y-26670708D01*
X18296352Y-26645563D01*
X18509753Y-26508243D01*
X18633688Y-26326859D01*
X18979583Y-26327161D01*
X19320417Y-26186331D01*
X19581414Y-25925789D01*
X19722839Y-25585201D01*
X19723161Y-25216417D01*
X19582331Y-24875583D01*
X19321789Y-24614586D01*
X18981201Y-24473161D01*
X18630739Y-24472855D01*
X18522243Y-24304247D01*
X18312717Y-24161083D01*
X18064000Y-24110717D01*
X17676625Y-24110717D01*
X17752967Y-23998987D01*
X17803333Y-23750270D01*
X17803333Y-22950170D01*
X17759613Y-22717818D01*
X17622293Y-22504417D01*
X17455678Y-22390573D01*
X18114050Y-22390573D01*
X18346402Y-22346853D01*
X18559803Y-22209533D01*
X18702967Y-22000007D01*
X18753333Y-21751290D01*
X18753333Y-20951190D01*
X18709613Y-20718838D01*
X18572293Y-20505437D01*
X18471719Y-20436717D01*
X18509753Y-20412243D01*
X18652917Y-20202717D01*
X18703283Y-19954000D01*
X18703283Y-18654000D01*
X18659563Y-18421648D01*
X18533667Y-18226000D01*
X20612446Y-18226000D01*
X21017000Y-18630554D01*
X21017000Y-18918717D01*
X19431000Y-18918717D01*
X19198648Y-18962437D01*
X18985247Y-19099757D01*
X18842083Y-19309283D01*
X18791717Y-19558000D01*
X18791717Y-22352000D01*
X18835437Y-22584352D01*
X18972757Y-22797753D01*
X19182283Y-22940917D01*
X19431000Y-22991283D01*
X24257000Y-22991283D01*
X24489352Y-22947563D01*
X24648000Y-22845476D01*
X24648000Y-26612511D01*
X24360256Y-26900256D01*
X24356256Y-26904256D01*
X24193243Y-27148222D01*
X24136000Y-27436000D01*
X24140000Y-27456109D01*
X24140000Y-30714717D01*
X23460000Y-30714717D01*
X23227648Y-30758437D01*
X23014247Y-30895757D01*
X22871083Y-31105283D01*
X22859444Y-31162757D01*
X22791545Y-30998833D01*
X22615167Y-30822455D01*
X22384718Y-30727000D01*
X22193750Y-30727000D01*
X22037000Y-30883750D01*
X22037000Y-31877000D01*
X22057000Y-31877000D01*
X22057000Y-32131000D01*
X22037000Y-32131000D01*
X22037000Y-33124250D01*
X22193750Y-33281000D01*
X22384718Y-33281000D01*
X22615167Y-33185545D01*
X22791545Y-33009167D01*
X22857559Y-32849796D01*
X22864437Y-32886352D01*
X23001757Y-33099753D01*
X23009000Y-33104702D01*
X23009000Y-34967910D01*
X23007329Y-34968224D01*
X22911000Y-34948717D01*
X22611000Y-34948717D01*
X22538843Y-34962294D01*
X22535718Y-34961000D01*
X22492750Y-34961000D01*
X22480473Y-34973277D01*
X22378648Y-34992437D01*
X22260890Y-35068212D01*
X22159717Y-34999083D01*
X22043875Y-34975625D01*
X22029250Y-34961000D01*
X21986282Y-34961000D01*
X21981479Y-34962989D01*
X21911000Y-34948717D01*
X21611000Y-34948717D01*
X21378648Y-34992437D01*
X21190801Y-35113313D01*
X20089744Y-34012256D01*
X19845778Y-33849243D01*
X19558000Y-33792000D01*
X19106000Y-33792000D01*
X19106000Y-33140397D01*
X19149753Y-33112243D01*
X19292917Y-32902717D01*
X19304556Y-32845243D01*
X19372455Y-33009167D01*
X19548833Y-33185545D01*
X19779282Y-33281000D01*
X19970250Y-33281000D01*
X20127000Y-33124250D01*
X20127000Y-32131000D01*
X20381000Y-32131000D01*
X20381000Y-33124250D01*
X20537750Y-33281000D01*
X20728718Y-33281000D01*
X20959167Y-33185545D01*
X21082000Y-33062712D01*
X21204833Y-33185545D01*
X21435282Y-33281000D01*
X21626250Y-33281000D01*
X21783000Y-33124250D01*
X21783000Y-32131000D01*
X21089750Y-32131000D01*
X21082000Y-32138750D01*
X21074250Y-32131000D01*
X20381000Y-32131000D01*
X20127000Y-32131000D01*
X20107000Y-32131000D01*
X20107000Y-31877000D01*
X20127000Y-31877000D01*
X20127000Y-30883750D01*
X20381000Y-30883750D01*
X20381000Y-31877000D01*
X21074250Y-31877000D01*
X21082000Y-31869250D01*
X21089750Y-31877000D01*
X21783000Y-31877000D01*
X21783000Y-30883750D01*
X21626250Y-30727000D01*
X21435282Y-30727000D01*
X21204833Y-30822455D01*
X21082000Y-30945288D01*
X20959167Y-30822455D01*
X20728718Y-30727000D01*
X20537750Y-30727000D01*
X20381000Y-30883750D01*
X20127000Y-30883750D01*
X19970250Y-30727000D01*
X19779282Y-30727000D01*
X19548833Y-30822455D01*
X19372455Y-30998833D01*
X19306441Y-31158204D01*
X19299563Y-31121648D01*
X19162243Y-30908247D01*
X18952717Y-30765083D01*
X18704000Y-30714717D01*
X18004000Y-30714717D01*
X17771648Y-30758437D01*
X17558247Y-30895757D01*
X17415083Y-31105283D01*
X17364717Y-31354000D01*
X17364717Y-32654000D01*
X17408437Y-32886352D01*
X17545757Y-33099753D01*
X17602000Y-33138182D01*
X17602000Y-33918970D01*
X17502586Y-34018211D01*
X17361161Y-34358799D01*
X17360839Y-34727583D01*
X17501669Y-35068417D01*
X17762211Y-35329414D01*
X18102799Y-35470839D01*
X18471583Y-35471161D01*
X18812417Y-35330331D01*
X18846808Y-35296000D01*
X19246512Y-35296000D01*
X20229649Y-36279137D01*
X20216717Y-36343000D01*
X20216717Y-36643000D01*
X20236224Y-36746671D01*
X20216717Y-36843000D01*
X20216717Y-37143000D01*
X20236224Y-37246671D01*
X20216717Y-37343000D01*
X20216717Y-37643000D01*
X20235157Y-37741000D01*
X16579488Y-37741000D01*
X16500000Y-37661512D01*
X16500000Y-36711873D01*
X16527311Y-36700588D01*
X16915166Y-36313409D01*
X17125330Y-35807278D01*
X17125808Y-35259247D01*
X16916528Y-34752749D01*
X16529349Y-34364894D01*
X16023218Y-34154730D01*
X15475187Y-34154252D01*
X14968689Y-34363532D01*
X14650667Y-34681000D01*
X13223090Y-34681000D01*
X13198563Y-34550648D01*
X13061243Y-34337247D01*
X12851717Y-34194083D01*
X12603000Y-34143717D01*
X11903000Y-34143717D01*
X11670648Y-34187437D01*
X11457247Y-34324757D01*
X11314083Y-34534283D01*
X11302444Y-34591757D01*
X11234545Y-34427833D01*
X11058167Y-34251455D01*
X10827718Y-34156000D01*
X10636750Y-34156000D01*
X10480000Y-34312750D01*
X10480000Y-35306000D01*
X10500000Y-35306000D01*
X10500000Y-35560000D01*
X10480000Y-35560000D01*
X10480000Y-36553250D01*
X10636750Y-36710000D01*
X10827718Y-36710000D01*
X11058167Y-36614545D01*
X11234545Y-36438167D01*
X11300559Y-36278796D01*
X11307437Y-36315352D01*
X11444757Y-36528753D01*
X11654283Y-36671917D01*
X11903000Y-36722283D01*
X12603000Y-36722283D01*
X12835352Y-36678563D01*
X13048753Y-36541243D01*
X13191917Y-36331717D01*
X13221628Y-36185000D01*
X14527257Y-36185000D01*
X14579472Y-36311371D01*
X14966651Y-36699226D01*
X14996000Y-36711413D01*
X14996000Y-37973000D01*
X15053243Y-38260778D01*
X15216256Y-38504744D01*
X15319512Y-38608000D01*
X15216256Y-38711256D01*
X15053243Y-38955222D01*
X14997923Y-39233333D01*
X14968689Y-39245412D01*
X14580834Y-39632591D01*
X14567890Y-39663764D01*
X14289282Y-39719183D01*
X14206129Y-39774744D01*
X14045316Y-39882195D01*
X13531512Y-40396000D01*
X13223090Y-40396000D01*
X13198563Y-40265648D01*
X13061243Y-40052247D01*
X12851717Y-39909083D01*
X12603000Y-39858717D01*
X11903000Y-39858717D01*
X11670648Y-39902437D01*
X11457247Y-40039757D01*
X11314083Y-40249283D01*
X11302444Y-40306757D01*
X11234545Y-40142833D01*
X11058167Y-39966455D01*
X10827718Y-39871000D01*
X10636750Y-39871000D01*
X10480000Y-40027750D01*
X10480000Y-41021000D01*
X10500000Y-41021000D01*
X10500000Y-41275000D01*
X10480000Y-41275000D01*
X10480000Y-42268250D01*
X10636750Y-42425000D01*
X10827718Y-42425000D01*
X11058167Y-42329545D01*
X11234545Y-42153167D01*
X11300559Y-41993796D01*
X11307437Y-42030352D01*
X11444757Y-42243753D01*
X11654283Y-42386917D01*
X11903000Y-42437283D01*
X12603000Y-42437283D01*
X12835352Y-42393563D01*
X13048753Y-42256243D01*
X13191917Y-42046717D01*
X13221628Y-41900000D01*
X13843000Y-41900000D01*
X14130778Y-41842757D01*
X14374744Y-41679744D01*
X14720232Y-41334257D01*
X14966651Y-41581106D01*
X15183877Y-41671306D01*
X14962586Y-41892211D01*
X14821161Y-42232799D01*
X14820839Y-42601583D01*
X14961669Y-42942417D01*
X15222211Y-43203414D01*
X15562799Y-43344839D01*
X15662586Y-43344926D01*
X14801512Y-44206000D01*
X13223090Y-44206000D01*
X13198563Y-44075648D01*
X13061243Y-43862247D01*
X12851717Y-43719083D01*
X12603000Y-43668717D01*
X11903000Y-43668717D01*
X11670648Y-43712437D01*
X11457247Y-43849757D01*
X11314083Y-44059283D01*
X11304442Y-44106892D01*
X11298563Y-44075648D01*
X11161243Y-43862247D01*
X10951717Y-43719083D01*
X10703000Y-43668717D01*
X10023000Y-43668717D01*
X10023000Y-42425000D01*
X10069250Y-42425000D01*
X10226000Y-42268250D01*
X10226000Y-41275000D01*
X10206000Y-41275000D01*
X10206000Y-41021000D01*
X10226000Y-41021000D01*
X10226000Y-40027750D01*
X10069250Y-39871000D01*
X9878282Y-39871000D01*
X9647833Y-39966455D01*
X9471455Y-40142833D01*
X9376000Y-40373282D01*
X9376000Y-40864250D01*
X9532748Y-41020998D01*
X9445486Y-41020998D01*
X8532744Y-40108256D01*
X8288778Y-39945243D01*
X8001000Y-39888000D01*
X1905000Y-39888000D01*
X1617222Y-39945243D01*
X1373255Y-40108256D01*
X702000Y-40779511D01*
X702000Y-37616718D01*
X2197048Y-37616718D01*
X2479262Y-38037219D01*
X3629067Y-38512722D01*
X4873315Y-38512017D01*
X6019578Y-38037219D01*
X6301792Y-37616718D01*
X4249420Y-35564345D01*
X2197048Y-37616718D01*
X702000Y-37616718D01*
X702000Y-34764387D01*
X1121438Y-34764387D01*
X1122143Y-36008635D01*
X1596941Y-37154898D01*
X2017442Y-37437112D01*
X4069815Y-35384740D01*
X4429025Y-35384740D01*
X6481398Y-37437112D01*
X6901899Y-37154898D01*
X7377402Y-36005093D01*
X7377239Y-35716750D01*
X9376000Y-35716750D01*
X9376000Y-36207718D01*
X9471455Y-36438167D01*
X9647833Y-36614545D01*
X9878282Y-36710000D01*
X10069250Y-36710000D01*
X10226000Y-36553250D01*
X10226000Y-35560000D01*
X9532750Y-35560000D01*
X9376000Y-35716750D01*
X7377239Y-35716750D01*
X7376697Y-34760845D01*
X7334214Y-34658282D01*
X9376000Y-34658282D01*
X9376000Y-35149250D01*
X9532750Y-35306000D01*
X10226000Y-35306000D01*
X10226000Y-34312750D01*
X10069250Y-34156000D01*
X9878282Y-34156000D01*
X9647833Y-34251455D01*
X9471455Y-34427833D01*
X9376000Y-34658282D01*
X7334214Y-34658282D01*
X6901899Y-33614582D01*
X6481398Y-33332368D01*
X4429025Y-35384740D01*
X4069815Y-35384740D01*
X2017442Y-33332368D01*
X1596941Y-33614582D01*
X1121438Y-34764387D01*
X702000Y-34764387D01*
X702000Y-33152762D01*
X2197048Y-33152762D01*
X4249420Y-35205135D01*
X6301792Y-33152762D01*
X6019578Y-32732261D01*
X5337048Y-32450000D01*
X5786000Y-32450000D01*
X5786000Y-30950000D01*
X6040000Y-30950000D01*
X6040000Y-32450000D01*
X6790000Y-32450000D01*
X7402959Y-32277551D01*
X7903266Y-31883660D01*
X8214753Y-31328293D01*
X8245199Y-31202179D01*
X8127755Y-30950000D01*
X6040000Y-30950000D01*
X5786000Y-30950000D01*
X3698245Y-30950000D01*
X3580801Y-31202179D01*
X3611247Y-31328293D01*
X3922734Y-31883660D01*
X4396971Y-32257026D01*
X3625525Y-32257463D01*
X2479262Y-32732261D01*
X2197048Y-33152762D01*
X702000Y-33152762D01*
X702000Y-30443821D01*
X3580801Y-30443821D01*
X3698245Y-30696000D01*
X5786000Y-30696000D01*
X5786000Y-29196000D01*
X6040000Y-29196000D01*
X6040000Y-30696000D01*
X8127755Y-30696000D01*
X8245199Y-30443821D01*
X8214753Y-30317707D01*
X7903266Y-29762340D01*
X7402959Y-29368449D01*
X6790000Y-29196000D01*
X6040000Y-29196000D01*
X5786000Y-29196000D01*
X5036000Y-29196000D01*
X4423041Y-29368449D01*
X3922734Y-29762340D01*
X3611247Y-30317707D01*
X3580801Y-30443821D01*
X702000Y-30443821D01*
X702000Y-28376370D01*
X7939235Y-28376370D01*
X8013807Y-28620241D01*
X8548134Y-28812005D01*
X9115173Y-28784692D01*
X9512193Y-28620241D01*
X9586765Y-28376370D01*
X8763000Y-27552605D01*
X7939235Y-28376370D01*
X702000Y-28376370D01*
X702000Y-24100000D01*
X3486000Y-24100000D01*
X3486000Y-25100000D01*
X3658449Y-25712959D01*
X4052340Y-26213266D01*
X4607707Y-26524753D01*
X4733821Y-26555199D01*
X4986000Y-26437755D01*
X4986000Y-24100000D01*
X5240000Y-24100000D01*
X5240000Y-26437755D01*
X5492179Y-26555199D01*
X5618293Y-26524753D01*
X6173660Y-26213266D01*
X6567551Y-25712959D01*
X6740000Y-25100000D01*
X6740000Y-24100000D01*
X5240000Y-24100000D01*
X4986000Y-24100000D01*
X3486000Y-24100000D01*
X702000Y-24100000D01*
X702000Y-22846000D01*
X3486000Y-22846000D01*
X3486000Y-23846000D01*
X4986000Y-23846000D01*
X4986000Y-21508245D01*
X5240000Y-21508245D01*
X5240000Y-23846000D01*
X6740000Y-23846000D01*
X6740000Y-22846000D01*
X6567551Y-22233041D01*
X6173660Y-21732734D01*
X5618293Y-21421247D01*
X5492179Y-21390801D01*
X5240000Y-21508245D01*
X4986000Y-21508245D01*
X4733821Y-21390801D01*
X4607707Y-21421247D01*
X4052340Y-21732734D01*
X3658449Y-22233041D01*
X3486000Y-22846000D01*
X702000Y-22846000D01*
X702000Y-17502179D01*
X3580801Y-17502179D01*
X3611247Y-17628293D01*
X3922734Y-18183660D01*
X4423041Y-18577551D01*
X5036000Y-18750000D01*
X5786000Y-18750000D01*
X5786000Y-17250000D01*
X6040000Y-17250000D01*
X6040000Y-18750000D01*
X6790000Y-18750000D01*
X7402959Y-18577551D01*
X7903266Y-18183660D01*
X8214753Y-17628293D01*
X8245199Y-17502179D01*
X8127755Y-17250000D01*
X6040000Y-17250000D01*
X5786000Y-17250000D01*
X3698245Y-17250000D01*
X3580801Y-17502179D01*
X702000Y-17502179D01*
X702000Y-16743821D01*
X3580801Y-16743821D01*
X3698245Y-16996000D01*
X5786000Y-16996000D01*
X5786000Y-15496000D01*
X6040000Y-15496000D01*
X6040000Y-16996000D01*
X8127755Y-16996000D01*
X8245199Y-16743821D01*
X8214753Y-16617707D01*
X7929863Y-16109761D01*
X8568141Y-16094582D01*
X9207724Y-15829658D01*
X9349632Y-15528717D01*
X8128000Y-14307085D01*
X8113858Y-14321228D01*
X7934253Y-14141623D01*
X7948395Y-14127480D01*
X8307605Y-14127480D01*
X9529237Y-15349112D01*
X9830178Y-15207204D01*
X10113801Y-14473620D01*
X10095102Y-13687339D01*
X9830178Y-13047756D01*
X9529237Y-12905848D01*
X8307605Y-14127480D01*
X7948395Y-14127480D01*
X6726763Y-12905848D01*
X6425822Y-13047756D01*
X6142199Y-13781340D01*
X6160898Y-14567621D01*
X6425822Y-15207204D01*
X6726761Y-15349111D01*
X6614610Y-15461262D01*
X6649348Y-15496000D01*
X6040000Y-15496000D01*
X5786000Y-15496000D01*
X5036000Y-15496000D01*
X4423041Y-15668449D01*
X3922734Y-16062340D01*
X3611247Y-16617707D01*
X3580801Y-16743821D01*
X702000Y-16743821D01*
X702000Y-12726243D01*
X6906368Y-12726243D01*
X8128000Y-13947875D01*
X9349632Y-12726243D01*
X9207724Y-12425302D01*
X8474140Y-12141679D01*
X7687859Y-12160378D01*
X7048276Y-12425302D01*
X6906368Y-12726243D01*
X702000Y-12726243D01*
X702000Y-9681750D01*
X9439020Y-9681750D01*
X9439020Y-10538718D01*
X9534475Y-10769167D01*
X9710853Y-10945545D01*
X9941302Y-11041000D01*
X10544270Y-11041000D01*
X10701020Y-10884250D01*
X10701020Y-9525000D01*
X9595770Y-9525000D01*
X9439020Y-9681750D01*
X702000Y-9681750D01*
X702000Y-5842000D01*
X9426737Y-5842000D01*
X9426737Y-7874000D01*
X9470457Y-8106352D01*
X9489366Y-8135737D01*
X9439020Y-8257282D01*
X9439020Y-9114250D01*
X9595770Y-9271000D01*
X10701020Y-9271000D01*
X10701020Y-9251000D01*
X10955020Y-9251000D01*
X10955020Y-9271000D01*
X10975020Y-9271000D01*
X10975020Y-9525000D01*
X10955020Y-9525000D01*
X10955020Y-10884250D01*
X11111770Y-11041000D01*
X11714738Y-11041000D01*
X11812658Y-11000440D01*
X11816283Y-11002917D01*
X12065000Y-11053283D01*
X13589000Y-11053283D01*
X13821352Y-11009563D01*
X14034753Y-10872243D01*
X14177917Y-10662717D01*
X14228283Y-10414000D01*
X14228283Y-10316750D01*
X19502500Y-10316750D01*
X19502500Y-10983218D01*
X19597955Y-11213667D01*
X19774333Y-11390045D01*
X20004782Y-11485500D01*
X20671250Y-11485500D01*
X20828000Y-11328750D01*
X20828000Y-10160000D01*
X21082000Y-10160000D01*
X21082000Y-11328750D01*
X21238750Y-11485500D01*
X21905218Y-11485500D01*
X22135667Y-11390045D01*
X22312045Y-11213667D01*
X22407500Y-10983218D01*
X22407500Y-10316750D01*
X22250750Y-10160000D01*
X21082000Y-10160000D01*
X20828000Y-10160000D01*
X19659250Y-10160000D01*
X19502500Y-10316750D01*
X14228283Y-10316750D01*
X14228283Y-9082782D01*
X19502500Y-9082782D01*
X19502500Y-9749250D01*
X19659250Y-9906000D01*
X20828000Y-9906000D01*
X20828000Y-8737250D01*
X21082000Y-8737250D01*
X21082000Y-9906000D01*
X22250750Y-9906000D01*
X22407500Y-9749250D01*
X22407500Y-9082782D01*
X22312045Y-8852333D01*
X22135667Y-8675955D01*
X21905218Y-8580500D01*
X21238750Y-8580500D01*
X21082000Y-8737250D01*
X20828000Y-8737250D01*
X20671250Y-8580500D01*
X20004782Y-8580500D01*
X19774333Y-8675955D01*
X19597955Y-8852333D01*
X19502500Y-9082782D01*
X14228283Y-9082782D01*
X14228283Y-8382000D01*
X14184563Y-8149648D01*
X14172415Y-8130769D01*
X14177917Y-8122717D01*
X14228283Y-7874000D01*
X14228283Y-5842000D01*
X14184563Y-5609648D01*
X14047243Y-5396247D01*
X13837717Y-5253083D01*
X13589000Y-5202717D01*
X12065000Y-5202717D01*
X11832648Y-5246437D01*
X11826250Y-5250554D01*
X11590020Y-5202717D01*
X10066020Y-5202717D01*
X9833668Y-5246437D01*
X9620267Y-5383757D01*
X9477103Y-5593283D01*
X9426737Y-5842000D01*
X702000Y-5842000D01*
X702000Y-3529757D01*
X6906368Y-3529757D01*
X7048276Y-3830698D01*
X7781860Y-4114321D01*
X8568141Y-4095622D01*
X9207724Y-3830698D01*
X9349632Y-3529757D01*
X9236866Y-3416991D01*
X19538347Y-3416991D01*
X19568012Y-3924146D01*
X19705020Y-4254912D01*
X19933365Y-4311030D01*
X20648395Y-3596000D01*
X21007605Y-3596000D01*
X21722635Y-4311030D01*
X21950980Y-4254912D01*
X22095168Y-3839750D01*
X26013000Y-3839750D01*
X26013000Y-4330718D01*
X26108455Y-4561167D01*
X26284833Y-4737545D01*
X26515282Y-4833000D01*
X26706250Y-4833000D01*
X26863000Y-4676250D01*
X26863000Y-3683000D01*
X26169750Y-3683000D01*
X26013000Y-3839750D01*
X22095168Y-3839750D01*
X22117653Y-3775009D01*
X22087988Y-3267854D01*
X21950980Y-2937088D01*
X21722635Y-2880970D01*
X21007605Y-3596000D01*
X20648395Y-3596000D01*
X19933365Y-2880970D01*
X19705020Y-2937088D01*
X19538347Y-3416991D01*
X9236866Y-3416991D01*
X8128000Y-2308125D01*
X6906368Y-3529757D01*
X702000Y-3529757D01*
X702000Y-1782380D01*
X6142199Y-1782380D01*
X6160898Y-2568661D01*
X6425822Y-3208244D01*
X6726763Y-3350152D01*
X7948395Y-2128520D01*
X8307605Y-2128520D01*
X9529237Y-3350152D01*
X9830178Y-3208244D01*
X10026150Y-2701365D01*
X20112970Y-2701365D01*
X20828000Y-3416395D01*
X21463113Y-2781282D01*
X26013000Y-2781282D01*
X26013000Y-3272250D01*
X26169750Y-3429000D01*
X26863000Y-3429000D01*
X26863000Y-2435750D01*
X26706250Y-2279000D01*
X26515282Y-2279000D01*
X26284833Y-2374455D01*
X26108455Y-2550833D01*
X26013000Y-2781282D01*
X21463113Y-2781282D01*
X21543030Y-2701365D01*
X21486912Y-2473020D01*
X21007009Y-2306347D01*
X20499854Y-2336012D01*
X20169088Y-2473020D01*
X20112970Y-2701365D01*
X10026150Y-2701365D01*
X10113801Y-2474660D01*
X10095102Y-1688379D01*
X9830178Y-1048796D01*
X9529237Y-906888D01*
X8307605Y-2128520D01*
X7948395Y-2128520D01*
X6726763Y-906888D01*
X6425822Y-1048796D01*
X6142199Y-1782380D01*
X702000Y-1782380D01*
X702000Y-702000D01*
X6918290Y-702000D01*
X6906368Y-727283D01*
X6906368Y-727283D01*
G37*
X6906368Y-727283D02*
X8128000Y-1948915D01*
X9349632Y-727283D01*
X9337710Y-702000D01*
X42986000Y-702000D01*
X42986000Y-62798000D01*
X21037898Y-62798000D01*
X21125000Y-62587718D01*
X21125000Y-62096750D01*
X20968250Y-61940000D01*
X19850000Y-61940000D01*
X19850000Y-61960000D01*
X19596000Y-61960000D01*
X19596000Y-61940000D01*
X18477750Y-61940000D01*
X18321000Y-62096750D01*
X18321000Y-62587718D01*
X18408102Y-62798000D01*
X13087898Y-62798000D01*
X13175000Y-62587718D01*
X13175000Y-62096750D01*
X13018250Y-61940000D01*
X11900000Y-61940000D01*
X11900000Y-61960000D01*
X11646000Y-61960000D01*
X11646000Y-61940000D01*
X10527750Y-61940000D01*
X10371000Y-62096750D01*
X10371000Y-62587718D01*
X10458102Y-62798000D01*
X6172422Y-62798000D01*
X6301792Y-62605238D01*
X4249420Y-60552865D01*
X2197048Y-62605238D01*
X2326418Y-62798000D01*
X702000Y-62798000D01*
X702000Y-59752907D01*
X1121438Y-59752907D01*
X1122143Y-60997155D01*
X1596941Y-62143418D01*
X2017442Y-62425632D01*
X4069815Y-60373260D01*
X4429025Y-60373260D01*
X6481398Y-62425632D01*
X6901899Y-62143418D01*
X7358929Y-61038282D01*
X10371000Y-61038282D01*
X10371000Y-61529250D01*
X10527750Y-61686000D01*
X11646000Y-61686000D01*
X11646000Y-60692750D01*
X11900000Y-60692750D01*
X11900000Y-61686000D01*
X13018250Y-61686000D01*
X13175000Y-61529250D01*
X13175000Y-61038282D01*
X18321000Y-61038282D01*
X18321000Y-61529250D01*
X18477750Y-61686000D01*
X19596000Y-61686000D01*
X19596000Y-60692750D01*
X19850000Y-60692750D01*
X19850000Y-61686000D01*
X20968250Y-61686000D01*
X21125000Y-61529250D01*
X21125000Y-61038282D01*
X21029545Y-60807833D01*
X20853167Y-60631455D01*
X20622718Y-60536000D01*
X20006750Y-60536000D01*
X19850000Y-60692750D01*
X19596000Y-60692750D01*
X19439250Y-60536000D01*
X18823282Y-60536000D01*
X18592833Y-60631455D01*
X18416455Y-60807833D01*
X18321000Y-61038282D01*
X13175000Y-61038282D01*
X13079545Y-60807833D01*
X12903167Y-60631455D01*
X12672718Y-60536000D01*
X12056750Y-60536000D01*
X11900000Y-60692750D01*
X11646000Y-60692750D01*
X11489250Y-60536000D01*
X10873282Y-60536000D01*
X10642833Y-60631455D01*
X10466455Y-60807833D01*
X10371000Y-61038282D01*
X7358929Y-61038282D01*
X7377402Y-60993613D01*
X7376697Y-59749365D01*
X6901899Y-58603102D01*
X6481398Y-58320888D01*
X4429025Y-60373260D01*
X4069815Y-60373260D01*
X2017442Y-58320888D01*
X1596941Y-58603102D01*
X1121438Y-59752907D01*
X702000Y-59752907D01*
X702000Y-58141282D01*
X2197048Y-58141282D01*
X4249420Y-60193655D01*
X6301792Y-58141282D01*
X6019578Y-57720781D01*
X4869773Y-57245278D01*
X3625525Y-57245983D01*
X2479262Y-57720781D01*
X2197048Y-58141282D01*
X702000Y-58141282D01*
X702000Y-54766750D01*
X16996000Y-54766750D01*
X16996000Y-55257718D01*
X17091455Y-55488167D01*
X17267833Y-55664545D01*
X17498282Y-55760000D01*
X17689250Y-55760000D01*
X17846000Y-55603250D01*
X17846000Y-54610000D01*
X17152750Y-54610000D01*
X16996000Y-54766750D01*
X702000Y-54766750D01*
X702000Y-54307141D01*
X3403464Y-54307141D01*
X3471891Y-54545833D01*
X3988082Y-54729235D01*
X4535166Y-54701140D01*
X4910109Y-54545833D01*
X4978536Y-54307141D01*
X4191000Y-53519605D01*
X3403464Y-54307141D01*
X702000Y-54307141D01*
X702000Y-53195416D01*
X869974Y-53363683D01*
X1375896Y-53573760D01*
X1923701Y-53574238D01*
X2429989Y-53365044D01*
X2658349Y-53137082D01*
X2801765Y-53137082D01*
X2829860Y-53684166D01*
X2985167Y-54059109D01*
X3223859Y-54127536D01*
X4011395Y-53340000D01*
X4370605Y-53340000D01*
X5158141Y-54127536D01*
X5396833Y-54059109D01*
X5580235Y-53542918D01*
X5552140Y-52995834D01*
X5396833Y-52620891D01*
X5158141Y-52552464D01*
X4370605Y-53340000D01*
X4011395Y-53340000D01*
X3223859Y-52552464D01*
X2985167Y-52620891D01*
X2801765Y-53137082D01*
X2658349Y-53137082D01*
X2817683Y-52978026D01*
X3027760Y-52472104D01*
X3028153Y-52021141D01*
X3403464Y-52021141D01*
X3453878Y-52197000D01*
X3403464Y-52372859D01*
X4191000Y-53160395D01*
X4978536Y-52372859D01*
X4928122Y-52197000D01*
X4978536Y-52021141D01*
X4191000Y-51233605D01*
X3403464Y-52021141D01*
X3028153Y-52021141D01*
X3028238Y-51924299D01*
X2819044Y-51418011D01*
X2455373Y-51053705D01*
X2658349Y-50851082D01*
X2801765Y-50851082D01*
X2829860Y-51398166D01*
X2985167Y-51773109D01*
X3223859Y-51841536D01*
X4011395Y-51054000D01*
X4370605Y-51054000D01*
X5158141Y-51841536D01*
X5396833Y-51773109D01*
X5580235Y-51256918D01*
X5552140Y-50709834D01*
X5396833Y-50334891D01*
X5158141Y-50266464D01*
X4370605Y-51054000D01*
X4011395Y-51054000D01*
X3223859Y-50266464D01*
X2985167Y-50334891D01*
X2801765Y-50851082D01*
X2658349Y-50851082D01*
X2817683Y-50692026D01*
X3027760Y-50186104D01*
X3028153Y-49735141D01*
X3403464Y-49735141D01*
X3453878Y-49911000D01*
X3403464Y-50086859D01*
X4191000Y-50874395D01*
X4978536Y-50086859D01*
X4928122Y-49911000D01*
X4978536Y-49735141D01*
X4191000Y-48947605D01*
X3403464Y-49735141D01*
X3028153Y-49735141D01*
X3028238Y-49638299D01*
X2819044Y-49132011D01*
X2455373Y-48767705D01*
X2658349Y-48565082D01*
X2801765Y-48565082D01*
X2829860Y-49112166D01*
X2985167Y-49487109D01*
X3223859Y-49555536D01*
X4011395Y-48768000D01*
X4370605Y-48768000D01*
X5158141Y-49555536D01*
X5396833Y-49487109D01*
X5580235Y-48970918D01*
X5552140Y-48423834D01*
X5396833Y-48048891D01*
X5158141Y-47980464D01*
X4370605Y-48768000D01*
X4011395Y-48768000D01*
X3223859Y-47980464D01*
X2985167Y-48048891D01*
X2801765Y-48565082D01*
X2658349Y-48565082D01*
X2817683Y-48406026D01*
X3027760Y-47900104D01*
X3028238Y-47352299D01*
X2819044Y-46846011D01*
X2727894Y-46754701D01*
X2813762Y-46754701D01*
X3022956Y-47260989D01*
X3409974Y-47648683D01*
X3443141Y-47662455D01*
X3403464Y-47800859D01*
X4191000Y-48588395D01*
X4978536Y-47800859D01*
X4938975Y-47662859D01*
X4969989Y-47650044D01*
X5357683Y-47263026D01*
X5567760Y-46757104D01*
X5568238Y-46209299D01*
X5359044Y-45703011D01*
X4972026Y-45315317D01*
X4938859Y-45301545D01*
X4978536Y-45163141D01*
X4191000Y-44375605D01*
X3403464Y-45163141D01*
X3443025Y-45301141D01*
X3412011Y-45313956D01*
X3024317Y-45700974D01*
X2814240Y-46206896D01*
X2813762Y-46754701D01*
X2727894Y-46754701D01*
X2455373Y-46481705D01*
X2817683Y-46120026D01*
X3027760Y-45614104D01*
X3028238Y-45066299D01*
X2941971Y-44857517D01*
X2955647Y-44843841D01*
X2985167Y-44915109D01*
X3223859Y-44983536D01*
X4011395Y-44196000D01*
X4370605Y-44196000D01*
X5158141Y-44983536D01*
X5396833Y-44915109D01*
X5580235Y-44398918D01*
X5552140Y-43851834D01*
X5396833Y-43476891D01*
X5158141Y-43408464D01*
X4370605Y-44196000D01*
X4011395Y-44196000D01*
X3997253Y-44181858D01*
X4176858Y-44002253D01*
X4191000Y-44016395D01*
X4978536Y-43228859D01*
X4910109Y-42990167D01*
X4393918Y-42806765D01*
X4355764Y-42808724D01*
X4756489Y-42408000D01*
X5498836Y-42408000D01*
X5341765Y-42850082D01*
X5369860Y-43397166D01*
X5525167Y-43772109D01*
X5763859Y-43840536D01*
X6551395Y-43053000D01*
X6537253Y-43038858D01*
X6716858Y-42859253D01*
X6731000Y-42873395D01*
X6745143Y-42859253D01*
X6924748Y-43038858D01*
X6910605Y-43053000D01*
X7698141Y-43840536D01*
X7884000Y-43787255D01*
X7884000Y-44544941D01*
X7512026Y-44172317D01*
X7478859Y-44158545D01*
X7518536Y-44020141D01*
X6731000Y-43232605D01*
X5943464Y-44020141D01*
X5983025Y-44158141D01*
X5952011Y-44170956D01*
X5564317Y-44557974D01*
X5354240Y-45063896D01*
X5353762Y-45611701D01*
X5562956Y-46117989D01*
X5926627Y-46482295D01*
X5564317Y-46843974D01*
X5354240Y-47349896D01*
X5353762Y-47897701D01*
X5562956Y-48403989D01*
X5926627Y-48768295D01*
X5564317Y-49129974D01*
X5354240Y-49635896D01*
X5353762Y-50183701D01*
X5562956Y-50689989D01*
X5926627Y-51054295D01*
X5564317Y-51415974D01*
X5354240Y-51921896D01*
X5353762Y-52469701D01*
X5562956Y-52975989D01*
X5949974Y-53363683D01*
X6455896Y-53573760D01*
X7003701Y-53574238D01*
X7509989Y-53365044D01*
X7897683Y-52978026D01*
X7945964Y-52861750D01*
X9376000Y-52861750D01*
X9376000Y-53352718D01*
X9471455Y-53583167D01*
X9647833Y-53759545D01*
X9878282Y-53855000D01*
X10069250Y-53855000D01*
X10226000Y-53698250D01*
X10226000Y-52705000D01*
X9532750Y-52705000D01*
X9376000Y-52861750D01*
X7945964Y-52861750D01*
X8107760Y-52472104D01*
X8108238Y-51924299D01*
X7899044Y-51418011D01*
X7535373Y-51053705D01*
X7632497Y-50956750D01*
X9376000Y-50956750D01*
X9376000Y-51447718D01*
X9449640Y-51625500D01*
X9376000Y-51803282D01*
X9376000Y-52294250D01*
X9532750Y-52451000D01*
X10226000Y-52451000D01*
X10226000Y-50800000D01*
X9532750Y-50800000D01*
X9376000Y-50956750D01*
X7632497Y-50956750D01*
X7897683Y-50692026D01*
X8107760Y-50186104D01*
X8108238Y-49638299D01*
X7899044Y-49132011D01*
X7818923Y-49051750D01*
X9376000Y-49051750D01*
X9376000Y-49542718D01*
X9449640Y-49720500D01*
X9376000Y-49898282D01*
X9376000Y-50389250D01*
X9532750Y-50546000D01*
X10226000Y-50546000D01*
X10226000Y-48895000D01*
X9532750Y-48895000D01*
X9376000Y-49051750D01*
X7818923Y-49051750D01*
X7535373Y-48767705D01*
X7897683Y-48406026D01*
X8107760Y-47900104D01*
X8108238Y-47352299D01*
X7899044Y-46846011D01*
X7535373Y-46481705D01*
X7884000Y-46133685D01*
X7884000Y-46228000D01*
X7941243Y-46515778D01*
X8104256Y-46759744D01*
X8739256Y-47394745D01*
X8864930Y-47478717D01*
X8983222Y-47557757D01*
X9271000Y-47615000D01*
X9382910Y-47615000D01*
X9407437Y-47745352D01*
X9450790Y-47812724D01*
X9376000Y-47993282D01*
X9376000Y-48484250D01*
X9532750Y-48641000D01*
X10226000Y-48641000D01*
X10226000Y-48621000D01*
X10480000Y-48621000D01*
X10480000Y-48641000D01*
X10500000Y-48641000D01*
X10500000Y-48895000D01*
X10480000Y-48895000D01*
X10480000Y-50546000D01*
X10500000Y-50546000D01*
X10500000Y-50800000D01*
X10480000Y-50800000D01*
X10480000Y-52451000D01*
X10500000Y-52451000D01*
X10500000Y-52705000D01*
X10480000Y-52705000D01*
X10480000Y-53698250D01*
X10636750Y-53855000D01*
X10827718Y-53855000D01*
X11058167Y-53759545D01*
X11234545Y-53583167D01*
X11300559Y-53423796D01*
X11307437Y-53460352D01*
X11444757Y-53673753D01*
X11654283Y-53816917D01*
X11903000Y-53867283D01*
X12603000Y-53867283D01*
X12835352Y-53823563D01*
X13048753Y-53686243D01*
X13172613Y-53504970D01*
X13246189Y-53505034D01*
X13354757Y-53673753D01*
X13564283Y-53816917D01*
X13813000Y-53867283D01*
X14513000Y-53867283D01*
X14745352Y-53823563D01*
X14958753Y-53686243D01*
X15101917Y-53476717D01*
X15111558Y-53429108D01*
X15117437Y-53460352D01*
X15254757Y-53673753D01*
X15464283Y-53816917D01*
X15713000Y-53867283D01*
X16413000Y-53867283D01*
X16645352Y-53823563D01*
X16858753Y-53686243D01*
X17001917Y-53476717D01*
X17016742Y-53403511D01*
X17027437Y-53460352D01*
X17070790Y-53527724D01*
X16996000Y-53708282D01*
X16996000Y-54199250D01*
X17152750Y-54356000D01*
X17846000Y-54356000D01*
X17846000Y-54336000D01*
X18100000Y-54336000D01*
X18100000Y-54356000D01*
X18120000Y-54356000D01*
X18120000Y-54610000D01*
X18100000Y-54610000D01*
X18100000Y-55603250D01*
X18171000Y-55674250D01*
X18171000Y-55753000D01*
X18228243Y-56040778D01*
X18391256Y-56284744D01*
X18424725Y-56318213D01*
X18359083Y-56414283D01*
X18329372Y-56561000D01*
X13168090Y-56561000D01*
X13143563Y-56430648D01*
X13006243Y-56217247D01*
X12796717Y-56074083D01*
X12548000Y-56023717D01*
X10998000Y-56023717D01*
X10765648Y-56067437D01*
X10552247Y-56204757D01*
X10409083Y-56414283D01*
X10358717Y-56663000D01*
X10358717Y-57963000D01*
X10402437Y-58195352D01*
X10539757Y-58408753D01*
X10749283Y-58551917D01*
X10998000Y-58602283D01*
X12548000Y-58602283D01*
X12780352Y-58558563D01*
X12993753Y-58421243D01*
X13136917Y-58211717D01*
X13166628Y-58065000D01*
X18327910Y-58065000D01*
X18352437Y-58195352D01*
X18489757Y-58408753D01*
X18699283Y-58551917D01*
X18948000Y-58602283D01*
X20498000Y-58602283D01*
X20730352Y-58558563D01*
X20943753Y-58421243D01*
X21086917Y-58211717D01*
X21137283Y-57963000D01*
X21137283Y-56663000D01*
X21093563Y-56430648D01*
X20956243Y-56217247D01*
X20746717Y-56074083D01*
X20498000Y-56023717D01*
X20256388Y-56023717D01*
X20254744Y-56021256D01*
X20005771Y-55772283D01*
X20223000Y-55772283D01*
X20455352Y-55728563D01*
X20668753Y-55591243D01*
X20811917Y-55381717D01*
X20862283Y-55133000D01*
X20862283Y-53833000D01*
X20818563Y-53600648D01*
X20774270Y-53531815D01*
X20811917Y-53476717D01*
X20862283Y-53228000D01*
X20862283Y-51928000D01*
X20818563Y-51695648D01*
X20681243Y-51482247D01*
X20625000Y-51443818D01*
X20625000Y-50988000D01*
X20567757Y-50700222D01*
X20485085Y-50576495D01*
X20485161Y-50489417D01*
X20344331Y-50148583D01*
X20083789Y-49887586D01*
X19743201Y-49746161D01*
X19374417Y-49745839D01*
X19033583Y-49886669D01*
X18772586Y-50147211D01*
X18631161Y-50487799D01*
X18630839Y-50856583D01*
X18771669Y-51197417D01*
X19032211Y-51458414D01*
X19073331Y-51475488D01*
X18934083Y-51679283D01*
X18924442Y-51726892D01*
X18918563Y-51695648D01*
X18781243Y-51482247D01*
X18571717Y-51339083D01*
X18323000Y-51288717D01*
X17623000Y-51288717D01*
X17390648Y-51332437D01*
X17177247Y-51469757D01*
X17034083Y-51679283D01*
X17019258Y-51752489D01*
X17008563Y-51695648D01*
X16964270Y-51626815D01*
X17001917Y-51571717D01*
X17052283Y-51323000D01*
X17052283Y-50023000D01*
X17008563Y-49790648D01*
X16964270Y-49721815D01*
X17001917Y-49666717D01*
X17032200Y-49517175D01*
X17305778Y-49462757D01*
X17549744Y-49299744D01*
X17964489Y-48885000D01*
X29807511Y-48885000D01*
X25376256Y-53316256D01*
X25213243Y-53560222D01*
X25156000Y-53848000D01*
X25156000Y-57404000D01*
X25213243Y-57691778D01*
X25376256Y-57935744D01*
X26495904Y-59055392D01*
X26420197Y-59436000D01*
X26533662Y-60006428D01*
X26856784Y-60490013D01*
X27340369Y-60813135D01*
X27910797Y-60926600D01*
X27969203Y-60926600D01*
X28539631Y-60813135D01*
X29023216Y-60490013D01*
X29209018Y-60211942D01*
X29595705Y-60635976D01*
X30122229Y-60883038D01*
X30353000Y-60764440D01*
X30353000Y-59563000D01*
X30607000Y-59563000D01*
X30607000Y-60764440D01*
X30837771Y-60883038D01*
X31364295Y-60635976D01*
X31750000Y-60213019D01*
X32135705Y-60635976D01*
X32662229Y-60883038D01*
X32893000Y-60764440D01*
X32893000Y-59563000D01*
X33147000Y-59563000D01*
X33147000Y-60764440D01*
X33377771Y-60883038D01*
X33904295Y-60635976D01*
X34290000Y-60213019D01*
X34675705Y-60635976D01*
X35202229Y-60883038D01*
X35433000Y-60764440D01*
X35433000Y-59563000D01*
X33147000Y-59563000D01*
X32893000Y-59563000D01*
X30607000Y-59563000D01*
X30353000Y-59563000D01*
X30333000Y-59563000D01*
X30333000Y-59309000D01*
X30353000Y-59309000D01*
X30353000Y-59289000D01*
X30607000Y-59289000D01*
X30607000Y-59309000D01*
X32893000Y-59309000D01*
X32893000Y-59289000D01*
X33147000Y-59289000D01*
X33147000Y-59309000D01*
X35433000Y-59309000D01*
X35433000Y-59289000D01*
X35687000Y-59289000D01*
X35687000Y-59309000D01*
X35707000Y-59309000D01*
X35707000Y-59563000D01*
X35687000Y-59563000D01*
X35687000Y-60764440D01*
X35917771Y-60883038D01*
X36444295Y-60635976D01*
X36830982Y-60211942D01*
X37016784Y-60490013D01*
X37500369Y-60813135D01*
X38070797Y-60926600D01*
X38129203Y-60926600D01*
X38699631Y-60813135D01*
X39183216Y-60490013D01*
X39506338Y-60006428D01*
X39619803Y-59436000D01*
X39506338Y-58865572D01*
X39183216Y-58381987D01*
X39154691Y-58362927D01*
X39195952Y-58355163D01*
X39409353Y-58217843D01*
X39552517Y-58008317D01*
X39602883Y-57759600D01*
X39602883Y-56032400D01*
X39559163Y-55800048D01*
X39421843Y-55586647D01*
X39212317Y-55443483D01*
X38963600Y-55393117D01*
X37236400Y-55393117D01*
X37004048Y-55436837D01*
X36790647Y-55574157D01*
X36647483Y-55783683D01*
X36636575Y-55837550D01*
X36159631Y-55518865D01*
X35589203Y-55405400D01*
X35530797Y-55405400D01*
X34960369Y-55518865D01*
X34476784Y-55841987D01*
X34290000Y-56121528D01*
X34103216Y-55841987D01*
X33619631Y-55518865D01*
X33049203Y-55405400D01*
X32990797Y-55405400D01*
X32420369Y-55518865D01*
X31936784Y-55841987D01*
X31750000Y-56121528D01*
X31563216Y-55841987D01*
X31079631Y-55518865D01*
X30509203Y-55405400D01*
X30450797Y-55405400D01*
X29880369Y-55518865D01*
X29396784Y-55841987D01*
X29210000Y-56121528D01*
X29023216Y-55841987D01*
X28692000Y-55620675D01*
X28692000Y-54159488D01*
X31727935Y-51123553D01*
X35797052Y-51123553D01*
X36164437Y-51616740D01*
X37567075Y-52208800D01*
X39089516Y-52219027D01*
X40499981Y-51645861D01*
X40543563Y-51616740D01*
X40910948Y-51123553D01*
X38354000Y-48566605D01*
X35797052Y-51123553D01*
X31727935Y-51123553D01*
X33551744Y-49299744D01*
X33670164Y-49122516D01*
X34521973Y-49122516D01*
X35095139Y-50532981D01*
X35124260Y-50576563D01*
X35617447Y-50943948D01*
X38174395Y-48387000D01*
X38533605Y-48387000D01*
X41090553Y-50943948D01*
X41583740Y-50576563D01*
X42175800Y-49173925D01*
X42186027Y-47651484D01*
X41612861Y-46241019D01*
X41583740Y-46197437D01*
X41090553Y-45830052D01*
X38533605Y-48387000D01*
X38174395Y-48387000D01*
X35617447Y-45830052D01*
X35124260Y-46197437D01*
X34532200Y-47600075D01*
X34521973Y-49122516D01*
X33670164Y-49122516D01*
X33714757Y-49055778D01*
X33772000Y-48768000D01*
X33772000Y-45650447D01*
X35797052Y-45650447D01*
X38354000Y-48207395D01*
X40910948Y-45650447D01*
X40543563Y-45157260D01*
X39140925Y-44565200D01*
X37618484Y-44554973D01*
X36208019Y-45128139D01*
X36164437Y-45157260D01*
X35797052Y-45650447D01*
X33772000Y-45650447D01*
X33772000Y-42705509D01*
X33801757Y-42751753D01*
X34011283Y-42894917D01*
X34260000Y-42945283D01*
X34960000Y-42945283D01*
X35192352Y-42901563D01*
X35405753Y-42764243D01*
X35548917Y-42554717D01*
X35558558Y-42507108D01*
X35564437Y-42538352D01*
X35701757Y-42751753D01*
X35911283Y-42894917D01*
X36160000Y-42945283D01*
X36860000Y-42945283D01*
X37092352Y-42901563D01*
X37158073Y-42859273D01*
X37249757Y-43001753D01*
X37459283Y-43144917D01*
X37708000Y-43195283D01*
X39508000Y-43195283D01*
X39740352Y-43151563D01*
X39953753Y-43014243D01*
X40096917Y-42804717D01*
X40097171Y-42803465D01*
X40138657Y-42844951D01*
X40251818Y-42731790D01*
X40338663Y-42986023D01*
X40909248Y-43194501D01*
X41516181Y-43168756D01*
X41957337Y-42986023D01*
X42044183Y-42731788D01*
X41148000Y-41835605D01*
X41133858Y-41849748D01*
X40954253Y-41670143D01*
X40968395Y-41656000D01*
X41327605Y-41656000D01*
X42223788Y-42552183D01*
X42478023Y-42465337D01*
X42686501Y-41894752D01*
X42660756Y-41287819D01*
X42478023Y-40846663D01*
X42223788Y-40759817D01*
X41327605Y-41656000D01*
X40968395Y-41656000D01*
X40954253Y-41641858D01*
X41133858Y-41462253D01*
X41148000Y-41476395D01*
X42044183Y-40580212D01*
X41957337Y-40325977D01*
X41386752Y-40117499D01*
X40779819Y-40143244D01*
X40338663Y-40325977D01*
X40251818Y-40580210D01*
X40138657Y-40467049D01*
X40095143Y-40510563D01*
X39966243Y-40310247D01*
X39756717Y-40167083D01*
X39508000Y-40116717D01*
X37708000Y-40116717D01*
X37475648Y-40160437D01*
X37262247Y-40297757D01*
X37157800Y-40450620D01*
X37108717Y-40417083D01*
X36860000Y-40366717D01*
X36160000Y-40366717D01*
X35927648Y-40410437D01*
X35714247Y-40547757D01*
X35571083Y-40757283D01*
X35561442Y-40804892D01*
X35555563Y-40773648D01*
X35418243Y-40560247D01*
X35380598Y-40534525D01*
X35470839Y-40317201D01*
X35471161Y-39948417D01*
X35336958Y-39623621D01*
X35470839Y-39301201D01*
X35471161Y-38932417D01*
X35362000Y-38668228D01*
X35362000Y-37712397D01*
X35405753Y-37684243D01*
X35548917Y-37474717D01*
X35558558Y-37427108D01*
X35564437Y-37458352D01*
X35701757Y-37671753D01*
X35911283Y-37814917D01*
X36160000Y-37865283D01*
X36860000Y-37865283D01*
X37092352Y-37821563D01*
X37158073Y-37779273D01*
X37249757Y-37921753D01*
X37459283Y-38064917D01*
X37708000Y-38115283D01*
X39508000Y-38115283D01*
X39740352Y-38071563D01*
X39953753Y-37934243D01*
X40096917Y-37724717D01*
X40097171Y-37723465D01*
X40138657Y-37764951D01*
X40251818Y-37651790D01*
X40338663Y-37906023D01*
X40909248Y-38114501D01*
X41516181Y-38088756D01*
X41957337Y-37906023D01*
X42044183Y-37651788D01*
X41148000Y-36755605D01*
X41133858Y-36769748D01*
X40954253Y-36590143D01*
X40968395Y-36576000D01*
X41327605Y-36576000D01*
X42223788Y-37472183D01*
X42478023Y-37385337D01*
X42686501Y-36814752D01*
X42660756Y-36207819D01*
X42478023Y-35766663D01*
X42223788Y-35679817D01*
X41327605Y-36576000D01*
X40968395Y-36576000D01*
X40954253Y-36561858D01*
X41133858Y-36382253D01*
X41148000Y-36396395D01*
X42044183Y-35500212D01*
X41957337Y-35245977D01*
X41386752Y-35037499D01*
X40779819Y-35063244D01*
X40338663Y-35245977D01*
X40251818Y-35500210D01*
X40138657Y-35387049D01*
X40095143Y-35430563D01*
X39966243Y-35230247D01*
X39756717Y-35087083D01*
X39508000Y-35036717D01*
X37708000Y-35036717D01*
X37475648Y-35080437D01*
X37262247Y-35217757D01*
X37157800Y-35370620D01*
X37108717Y-35337083D01*
X36860000Y-35286717D01*
X36160000Y-35286717D01*
X35927648Y-35330437D01*
X35714247Y-35467757D01*
X35571083Y-35677283D01*
X35561442Y-35724892D01*
X35555563Y-35693648D01*
X35418243Y-35480247D01*
X35208717Y-35337083D01*
X34960000Y-35286717D01*
X34260000Y-35286717D01*
X34027648Y-35330437D01*
X33814247Y-35467757D01*
X33772000Y-35529587D01*
X33772000Y-34671000D01*
X33742888Y-34524644D01*
X33757669Y-34560417D01*
X34018211Y-34821414D01*
X34358799Y-34962839D01*
X34727583Y-34963161D01*
X35068417Y-34822331D01*
X35329414Y-34561789D01*
X35470839Y-34221201D01*
X35471161Y-33852417D01*
X35362000Y-33588228D01*
X35362000Y-33140397D01*
X35405753Y-33112243D01*
X35548917Y-32902717D01*
X35558558Y-32855108D01*
X35564437Y-32886352D01*
X35701757Y-33099753D01*
X35911283Y-33242917D01*
X36160000Y-33293283D01*
X36860000Y-33293283D01*
X37092352Y-33249563D01*
X37158073Y-33207273D01*
X37249757Y-33349753D01*
X37459283Y-33492917D01*
X37708000Y-33543283D01*
X39508000Y-33543283D01*
X39740352Y-33499563D01*
X39953753Y-33362243D01*
X40096917Y-33152717D01*
X40097171Y-33151465D01*
X40138657Y-33192951D01*
X40251818Y-33079790D01*
X40338663Y-33334023D01*
X40909248Y-33542501D01*
X41516181Y-33516756D01*
X41957337Y-33334023D01*
X42044183Y-33079788D01*
X41148000Y-32183605D01*
X41133858Y-32197748D01*
X40954253Y-32018143D01*
X40968395Y-32004000D01*
X41327605Y-32004000D01*
X42223788Y-32900183D01*
X42478023Y-32813337D01*
X42686501Y-32242752D01*
X42660756Y-31635819D01*
X42478023Y-31194663D01*
X42223788Y-31107817D01*
X41327605Y-32004000D01*
X40968395Y-32004000D01*
X40954253Y-31989858D01*
X41133858Y-31810253D01*
X41148000Y-31824395D01*
X42044183Y-30928212D01*
X41957337Y-30673977D01*
X41386752Y-30465499D01*
X40779819Y-30491244D01*
X40338663Y-30673977D01*
X40251818Y-30928210D01*
X40138657Y-30815049D01*
X40095143Y-30858563D01*
X39966243Y-30658247D01*
X39756717Y-30515083D01*
X39508000Y-30464717D01*
X37708000Y-30464717D01*
X37475648Y-30508437D01*
X37262247Y-30645757D01*
X37157800Y-30798620D01*
X37108717Y-30765083D01*
X36860000Y-30714717D01*
X36160000Y-30714717D01*
X35927648Y-30758437D01*
X35714247Y-30895757D01*
X35571083Y-31105283D01*
X35561442Y-31152892D01*
X35555563Y-31121648D01*
X35418243Y-30908247D01*
X35208717Y-30765083D01*
X34960000Y-30714717D01*
X34260000Y-30714717D01*
X34027648Y-30758437D01*
X33814247Y-30895757D01*
X33671083Y-31105283D01*
X33620717Y-31354000D01*
X33620717Y-32654000D01*
X33664437Y-32886352D01*
X33801757Y-33099753D01*
X33858000Y-33138182D01*
X33858000Y-33410970D01*
X33758586Y-33510211D01*
X33617161Y-33850799D01*
X33616839Y-34219583D01*
X33635348Y-34264378D01*
X33605417Y-34219583D01*
X33551745Y-34139256D01*
X31900744Y-32488256D01*
X31899000Y-32487091D01*
X31899000Y-32287750D01*
X31742250Y-32131000D01*
X31049000Y-32131000D01*
X31049000Y-32151000D01*
X30795000Y-32151000D01*
X30795000Y-32131000D01*
X30775000Y-32131000D01*
X30775000Y-31877000D01*
X30795000Y-31877000D01*
X30795000Y-30883750D01*
X31049000Y-30883750D01*
X31049000Y-31877000D01*
X31742250Y-31877000D01*
X31899000Y-31720250D01*
X31899000Y-31229282D01*
X31803545Y-30998833D01*
X31627167Y-30822455D01*
X31396718Y-30727000D01*
X31205750Y-30727000D01*
X31049000Y-30883750D01*
X30795000Y-30883750D01*
X30680485Y-30769235D01*
X30666757Y-30700222D01*
X30583249Y-30575243D01*
X30503744Y-30456255D01*
X29995744Y-29948256D01*
X29751778Y-29785243D01*
X29464000Y-29728000D01*
X28993488Y-29728000D01*
X29013488Y-29708000D01*
X29464000Y-29708000D01*
X29751778Y-29650757D01*
X29995744Y-29487744D01*
X34855488Y-24628000D01*
X34959416Y-24628000D01*
X35131166Y-24885041D01*
X35521718Y-25146000D01*
X35131166Y-25406959D01*
X34821831Y-25869911D01*
X34713207Y-26416000D01*
X34821831Y-26962089D01*
X35131166Y-27425041D01*
X35594118Y-27734376D01*
X36140207Y-27843000D01*
X37011793Y-27843000D01*
X37557882Y-27734376D01*
X38020834Y-27425041D01*
X38330169Y-26962089D01*
X38438793Y-26416000D01*
X38432604Y-26384884D01*
X38885744Y-25931744D01*
X39048757Y-25687778D01*
X39106000Y-25400000D01*
X39106000Y-22860000D01*
X39048757Y-22572222D01*
X38885744Y-22328256D01*
X38631744Y-22074256D01*
X38387778Y-21911243D01*
X38319733Y-21897708D01*
X38330169Y-21882089D01*
X38438793Y-21336000D01*
X38330169Y-20789911D01*
X38020834Y-20326959D01*
X37630282Y-20066000D01*
X38020834Y-19805041D01*
X38330169Y-19342089D01*
X38438793Y-18796000D01*
X38330169Y-18249911D01*
X38020834Y-17786959D01*
X37557882Y-17477624D01*
X37011793Y-17369000D01*
X36699555Y-17369000D01*
X34917734Y-15587179D01*
X34959283Y-15382000D01*
X34959283Y-14082000D01*
X34915563Y-13849648D01*
X34797000Y-13665396D01*
X34797000Y-10094000D01*
X34734048Y-9777521D01*
X34554777Y-9509223D01*
X33243107Y-8197553D01*
X35797052Y-8197553D01*
X36164437Y-8690740D01*
X37567075Y-9282800D01*
X39089516Y-9293027D01*
X40499981Y-8719861D01*
X40543563Y-8690740D01*
X40910948Y-8197553D01*
X38354000Y-5640605D01*
X35797052Y-8197553D01*
X33243107Y-8197553D01*
X31242070Y-6196516D01*
X34521973Y-6196516D01*
X35095139Y-7606981D01*
X35124260Y-7650563D01*
X35617447Y-8017948D01*
X38174395Y-5461000D01*
X38533605Y-5461000D01*
X41090553Y-8017948D01*
X41583740Y-7650563D01*
X42175800Y-6247925D01*
X42186027Y-4725484D01*
X41612861Y-3315019D01*
X41583740Y-3271437D01*
X41090553Y-2904052D01*
X38533605Y-5461000D01*
X38174395Y-5461000D01*
X35617447Y-2904052D01*
X35124260Y-3271437D01*
X34532200Y-4674075D01*
X34521973Y-6196516D01*
X31242070Y-6196516D01*
X31128277Y-6082723D01*
X30859979Y-5903452D01*
X30543500Y-5840500D01*
X29863012Y-5840500D01*
X29839717Y-5824583D01*
X29642000Y-5784545D01*
X29642000Y-4692397D01*
X29685753Y-4664243D01*
X29828917Y-4454717D01*
X29879283Y-4206000D01*
X29879283Y-2906000D01*
X29845122Y-2724447D01*
X35797052Y-2724447D01*
X38354000Y-5281395D01*
X40910948Y-2724447D01*
X40543563Y-2231260D01*
X39140925Y-1639200D01*
X37618484Y-1628973D01*
X36208019Y-2202139D01*
X36164437Y-2231260D01*
X35797052Y-2724447D01*
X29845122Y-2724447D01*
X29835563Y-2673648D01*
X29698243Y-2460247D01*
X29488717Y-2317083D01*
X29240000Y-2266717D01*
X28540000Y-2266717D01*
X28307648Y-2310437D01*
X28094247Y-2447757D01*
X27951083Y-2657283D01*
X27939444Y-2714757D01*
X27871545Y-2550833D01*
X27695167Y-2374455D01*
X27464718Y-2279000D01*
X27273750Y-2279000D01*
X27117000Y-2435750D01*
X27117000Y-3429000D01*
X27137000Y-3429000D01*
X27137000Y-3683000D01*
X27117000Y-3683000D01*
X27117000Y-4676250D01*
X27273750Y-4833000D01*
X27464718Y-4833000D01*
X27695167Y-4737545D01*
X27871545Y-4561167D01*
X27937559Y-4401796D01*
X27944437Y-4438352D01*
X28081757Y-4651753D01*
X28138000Y-4690182D01*
X28138000Y-5892516D01*
X27876500Y-5840500D01*
X27323012Y-5840500D01*
X27299717Y-5824583D01*
X27051000Y-5774217D01*
X26289000Y-5774217D01*
X26056648Y-5817937D01*
X26044992Y-5825438D01*
X25730777Y-5511223D01*
X25462479Y-5331952D01*
X25146000Y-5269000D01*
X22083978Y-5269000D01*
X22073563Y-5213648D01*
X21936243Y-5000247D01*
X21726717Y-4857083D01*
X21478000Y-4806717D01*
X21275097Y-4806717D01*
X21486912Y-4718980D01*
X21543030Y-4490635D01*
X20828000Y-3775605D01*
X20112970Y-4490635D01*
X20169088Y-4718980D01*
X20421710Y-4806717D01*
X20178000Y-4806717D01*
X19945648Y-4850437D01*
X19732247Y-4987757D01*
X19589083Y-5197283D01*
X19538717Y-5446000D01*
X19538717Y-6746000D01*
X19582437Y-6978352D01*
X19719757Y-7191753D01*
X19929283Y-7334917D01*
X20178000Y-7385283D01*
X21478000Y-7385283D01*
X21710352Y-7341563D01*
X21923753Y-7204243D01*
X22066917Y-6994717D01*
X22081440Y-6923000D01*
X24803446Y-6923000D01*
X25132723Y-7252277D01*
X25401021Y-7431548D01*
X25717500Y-7494500D01*
X26016988Y-7494500D01*
X26040283Y-7510417D01*
X26289000Y-7560783D01*
X26817000Y-7560783D01*
X26817000Y-7679217D01*
X26289000Y-7679217D01*
X26056648Y-7722937D01*
X26019253Y-7747000D01*
X25818750Y-7747000D01*
X25662000Y-7903750D01*
X25662000Y-7998718D01*
X25697244Y-8083804D01*
X25649717Y-8318500D01*
X25649717Y-8662654D01*
X25585217Y-8618583D01*
X25336500Y-8568217D01*
X23685500Y-8568217D01*
X23453148Y-8611937D01*
X23239747Y-8749257D01*
X23096583Y-8958783D01*
X23046217Y-9207500D01*
X23046217Y-10858500D01*
X23089937Y-11090852D01*
X23227257Y-11304253D01*
X23436783Y-11447417D01*
X23685500Y-11497783D01*
X25336500Y-11497783D01*
X25568852Y-11454063D01*
X25782253Y-11316743D01*
X25925417Y-11107217D01*
X25975479Y-10860000D01*
X27113000Y-10860000D01*
X27113000Y-11595445D01*
X25704223Y-13004223D01*
X25524952Y-13272521D01*
X25462000Y-13589000D01*
X25462000Y-13778000D01*
X24896283Y-13778000D01*
X24896283Y-13208000D01*
X24852563Y-12975648D01*
X24715243Y-12762247D01*
X24505717Y-12619083D01*
X24257000Y-12568717D01*
X19431000Y-12568717D01*
X19198648Y-12612437D01*
X18985247Y-12749757D01*
X18842083Y-12959283D01*
X18791717Y-13208000D01*
X18791717Y-13778000D01*
X12700000Y-13778000D01*
X12383521Y-13840952D01*
X12115223Y-14020223D01*
X8178223Y-17957223D01*
X7998952Y-18225521D01*
X7936000Y-18542000D01*
X7936000Y-19382234D01*
X7553953Y-19763614D01*
X7336248Y-20287907D01*
X7335752Y-20855603D01*
X7552543Y-21380275D01*
X7794916Y-21623072D01*
X7553953Y-21863614D01*
X7336248Y-22387907D01*
X7335752Y-22955603D01*
X7552543Y-23480275D01*
X7914482Y-23842846D01*
X7730648Y-23877437D01*
X7517247Y-24014757D01*
X7374083Y-24224283D01*
X7323717Y-24473000D01*
X7323717Y-26073000D01*
X7367437Y-26305352D01*
X7504757Y-26518753D01*
X7614374Y-26593652D01*
X7515759Y-26623807D01*
X7323995Y-27158134D01*
X7351308Y-27725173D01*
X7515759Y-28122193D01*
X7759630Y-28196765D01*
X8583395Y-27373000D01*
X8569253Y-27358858D01*
X8748858Y-27179253D01*
X8763000Y-27193395D01*
X8777143Y-27179253D01*
X8956748Y-27358858D01*
X8942605Y-27373000D01*
X9766370Y-28196765D01*
X10010241Y-28122193D01*
X10158199Y-27709927D01*
X10352543Y-28180275D01*
X10753614Y-28582047D01*
X11277907Y-28799752D01*
X11845603Y-28800248D01*
X12370275Y-28583457D01*
X12772047Y-28182386D01*
X12795876Y-28125000D01*
X13345512Y-28125000D01*
X13692256Y-28471744D01*
X13936222Y-28634757D01*
X14224000Y-28692000D01*
X14843910Y-28692000D01*
X14868437Y-28822352D01*
X15005757Y-29035753D01*
X15215283Y-29178917D01*
X15464000Y-29229283D01*
X16164000Y-29229283D01*
X16396352Y-29185563D01*
X16609753Y-29048243D01*
X16752917Y-28838717D01*
X16762558Y-28791108D01*
X16768437Y-28822352D01*
X16857939Y-28961442D01*
X16726161Y-29278799D01*
X16725839Y-29647583D01*
X16866669Y-29988417D01*
X17127211Y-30249414D01*
X17467799Y-30390839D01*
X17836583Y-30391161D01*
X18177417Y-30250331D01*
X18438414Y-29989789D01*
X18579839Y-29649201D01*
X18580161Y-29280417D01*
X18489590Y-29061218D01*
X18509753Y-29048243D01*
X18652917Y-28838717D01*
X18703283Y-28590000D01*
X18703283Y-27290000D01*
X18659563Y-27057648D01*
X18522243Y-26844247D01*
X18312717Y-26701083D01*
X18162719Y-26670708D01*
X18296352Y-26645563D01*
X18509753Y-26508243D01*
X18633688Y-26326859D01*
X18979583Y-26327161D01*
X19320417Y-26186331D01*
X19581414Y-25925789D01*
X19722839Y-25585201D01*
X19723161Y-25216417D01*
X19582331Y-24875583D01*
X19321789Y-24614586D01*
X18981201Y-24473161D01*
X18630739Y-24472855D01*
X18522243Y-24304247D01*
X18312717Y-24161083D01*
X18064000Y-24110717D01*
X17676625Y-24110717D01*
X17752967Y-23998987D01*
X17803333Y-23750270D01*
X17803333Y-22950170D01*
X17759613Y-22717818D01*
X17622293Y-22504417D01*
X17455678Y-22390573D01*
X18114050Y-22390573D01*
X18346402Y-22346853D01*
X18559803Y-22209533D01*
X18702967Y-22000007D01*
X18753333Y-21751290D01*
X18753333Y-20951190D01*
X18709613Y-20718838D01*
X18572293Y-20505437D01*
X18471719Y-20436717D01*
X18509753Y-20412243D01*
X18652917Y-20202717D01*
X18703283Y-19954000D01*
X18703283Y-18654000D01*
X18659563Y-18421648D01*
X18533667Y-18226000D01*
X20612446Y-18226000D01*
X21017000Y-18630554D01*
X21017000Y-18918717D01*
X19431000Y-18918717D01*
X19198648Y-18962437D01*
X18985247Y-19099757D01*
X18842083Y-19309283D01*
X18791717Y-19558000D01*
X18791717Y-22352000D01*
X18835437Y-22584352D01*
X18972757Y-22797753D01*
X19182283Y-22940917D01*
X19431000Y-22991283D01*
X24257000Y-22991283D01*
X24489352Y-22947563D01*
X24648000Y-22845476D01*
X24648000Y-26612511D01*
X24360256Y-26900256D01*
X24356256Y-26904256D01*
X24193243Y-27148222D01*
X24136000Y-27436000D01*
X24140000Y-27456109D01*
X24140000Y-30714717D01*
X23460000Y-30714717D01*
X23227648Y-30758437D01*
X23014247Y-30895757D01*
X22871083Y-31105283D01*
X22859444Y-31162757D01*
X22791545Y-30998833D01*
X22615167Y-30822455D01*
X22384718Y-30727000D01*
X22193750Y-30727000D01*
X22037000Y-30883750D01*
X22037000Y-31877000D01*
X22057000Y-31877000D01*
X22057000Y-32131000D01*
X22037000Y-32131000D01*
X22037000Y-33124250D01*
X22193750Y-33281000D01*
X22384718Y-33281000D01*
X22615167Y-33185545D01*
X22791545Y-33009167D01*
X22857559Y-32849796D01*
X22864437Y-32886352D01*
X23001757Y-33099753D01*
X23009000Y-33104702D01*
X23009000Y-34967910D01*
X23007329Y-34968224D01*
X22911000Y-34948717D01*
X22611000Y-34948717D01*
X22538843Y-34962294D01*
X22535718Y-34961000D01*
X22492750Y-34961000D01*
X22480473Y-34973277D01*
X22378648Y-34992437D01*
X22260890Y-35068212D01*
X22159717Y-34999083D01*
X22043875Y-34975625D01*
X22029250Y-34961000D01*
X21986282Y-34961000D01*
X21981479Y-34962989D01*
X21911000Y-34948717D01*
X21611000Y-34948717D01*
X21378648Y-34992437D01*
X21190801Y-35113313D01*
X20089744Y-34012256D01*
X19845778Y-33849243D01*
X19558000Y-33792000D01*
X19106000Y-33792000D01*
X19106000Y-33140397D01*
X19149753Y-33112243D01*
X19292917Y-32902717D01*
X19304556Y-32845243D01*
X19372455Y-33009167D01*
X19548833Y-33185545D01*
X19779282Y-33281000D01*
X19970250Y-33281000D01*
X20127000Y-33124250D01*
X20127000Y-32131000D01*
X20381000Y-32131000D01*
X20381000Y-33124250D01*
X20537750Y-33281000D01*
X20728718Y-33281000D01*
X20959167Y-33185545D01*
X21082000Y-33062712D01*
X21204833Y-33185545D01*
X21435282Y-33281000D01*
X21626250Y-33281000D01*
X21783000Y-33124250D01*
X21783000Y-32131000D01*
X21089750Y-32131000D01*
X21082000Y-32138750D01*
X21074250Y-32131000D01*
X20381000Y-32131000D01*
X20127000Y-32131000D01*
X20107000Y-32131000D01*
X20107000Y-31877000D01*
X20127000Y-31877000D01*
X20127000Y-30883750D01*
X20381000Y-30883750D01*
X20381000Y-31877000D01*
X21074250Y-31877000D01*
X21082000Y-31869250D01*
X21089750Y-31877000D01*
X21783000Y-31877000D01*
X21783000Y-30883750D01*
X21626250Y-30727000D01*
X21435282Y-30727000D01*
X21204833Y-30822455D01*
X21082000Y-30945288D01*
X20959167Y-30822455D01*
X20728718Y-30727000D01*
X20537750Y-30727000D01*
X20381000Y-30883750D01*
X20127000Y-30883750D01*
X19970250Y-30727000D01*
X19779282Y-30727000D01*
X19548833Y-30822455D01*
X19372455Y-30998833D01*
X19306441Y-31158204D01*
X19299563Y-31121648D01*
X19162243Y-30908247D01*
X18952717Y-30765083D01*
X18704000Y-30714717D01*
X18004000Y-30714717D01*
X17771648Y-30758437D01*
X17558247Y-30895757D01*
X17415083Y-31105283D01*
X17364717Y-31354000D01*
X17364717Y-32654000D01*
X17408437Y-32886352D01*
X17545757Y-33099753D01*
X17602000Y-33138182D01*
X17602000Y-33918970D01*
X17502586Y-34018211D01*
X17361161Y-34358799D01*
X17360839Y-34727583D01*
X17501669Y-35068417D01*
X17762211Y-35329414D01*
X18102799Y-35470839D01*
X18471583Y-35471161D01*
X18812417Y-35330331D01*
X18846808Y-35296000D01*
X19246512Y-35296000D01*
X20229649Y-36279137D01*
X20216717Y-36343000D01*
X20216717Y-36643000D01*
X20236224Y-36746671D01*
X20216717Y-36843000D01*
X20216717Y-37143000D01*
X20236224Y-37246671D01*
X20216717Y-37343000D01*
X20216717Y-37643000D01*
X20235157Y-37741000D01*
X16579488Y-37741000D01*
X16500000Y-37661512D01*
X16500000Y-36711873D01*
X16527311Y-36700588D01*
X16915166Y-36313409D01*
X17125330Y-35807278D01*
X17125808Y-35259247D01*
X16916528Y-34752749D01*
X16529349Y-34364894D01*
X16023218Y-34154730D01*
X15475187Y-34154252D01*
X14968689Y-34363532D01*
X14650667Y-34681000D01*
X13223090Y-34681000D01*
X13198563Y-34550648D01*
X13061243Y-34337247D01*
X12851717Y-34194083D01*
X12603000Y-34143717D01*
X11903000Y-34143717D01*
X11670648Y-34187437D01*
X11457247Y-34324757D01*
X11314083Y-34534283D01*
X11302444Y-34591757D01*
X11234545Y-34427833D01*
X11058167Y-34251455D01*
X10827718Y-34156000D01*
X10636750Y-34156000D01*
X10480000Y-34312750D01*
X10480000Y-35306000D01*
X10500000Y-35306000D01*
X10500000Y-35560000D01*
X10480000Y-35560000D01*
X10480000Y-36553250D01*
X10636750Y-36710000D01*
X10827718Y-36710000D01*
X11058167Y-36614545D01*
X11234545Y-36438167D01*
X11300559Y-36278796D01*
X11307437Y-36315352D01*
X11444757Y-36528753D01*
X11654283Y-36671917D01*
X11903000Y-36722283D01*
X12603000Y-36722283D01*
X12835352Y-36678563D01*
X13048753Y-36541243D01*
X13191917Y-36331717D01*
X13221628Y-36185000D01*
X14527257Y-36185000D01*
X14579472Y-36311371D01*
X14966651Y-36699226D01*
X14996000Y-36711413D01*
X14996000Y-37973000D01*
X15053243Y-38260778D01*
X15216256Y-38504744D01*
X15319512Y-38608000D01*
X15216256Y-38711256D01*
X15053243Y-38955222D01*
X14997923Y-39233333D01*
X14968689Y-39245412D01*
X14580834Y-39632591D01*
X14567890Y-39663764D01*
X14289282Y-39719183D01*
X14206129Y-39774744D01*
X14045316Y-39882195D01*
X13531512Y-40396000D01*
X13223090Y-40396000D01*
X13198563Y-40265648D01*
X13061243Y-40052247D01*
X12851717Y-39909083D01*
X12603000Y-39858717D01*
X11903000Y-39858717D01*
X11670648Y-39902437D01*
X11457247Y-40039757D01*
X11314083Y-40249283D01*
X11302444Y-40306757D01*
X11234545Y-40142833D01*
X11058167Y-39966455D01*
X10827718Y-39871000D01*
X10636750Y-39871000D01*
X10480000Y-40027750D01*
X10480000Y-41021000D01*
X10500000Y-41021000D01*
X10500000Y-41275000D01*
X10480000Y-41275000D01*
X10480000Y-42268250D01*
X10636750Y-42425000D01*
X10827718Y-42425000D01*
X11058167Y-42329545D01*
X11234545Y-42153167D01*
X11300559Y-41993796D01*
X11307437Y-42030352D01*
X11444757Y-42243753D01*
X11654283Y-42386917D01*
X11903000Y-42437283D01*
X12603000Y-42437283D01*
X12835352Y-42393563D01*
X13048753Y-42256243D01*
X13191917Y-42046717D01*
X13221628Y-41900000D01*
X13843000Y-41900000D01*
X14130778Y-41842757D01*
X14374744Y-41679744D01*
X14720232Y-41334257D01*
X14966651Y-41581106D01*
X15183877Y-41671306D01*
X14962586Y-41892211D01*
X14821161Y-42232799D01*
X14820839Y-42601583D01*
X14961669Y-42942417D01*
X15222211Y-43203414D01*
X15562799Y-43344839D01*
X15662586Y-43344926D01*
X14801512Y-44206000D01*
X13223090Y-44206000D01*
X13198563Y-44075648D01*
X13061243Y-43862247D01*
X12851717Y-43719083D01*
X12603000Y-43668717D01*
X11903000Y-43668717D01*
X11670648Y-43712437D01*
X11457247Y-43849757D01*
X11314083Y-44059283D01*
X11304442Y-44106892D01*
X11298563Y-44075648D01*
X11161243Y-43862247D01*
X10951717Y-43719083D01*
X10703000Y-43668717D01*
X10023000Y-43668717D01*
X10023000Y-42425000D01*
X10069250Y-42425000D01*
X10226000Y-42268250D01*
X10226000Y-41275000D01*
X10206000Y-41275000D01*
X10206000Y-41021000D01*
X10226000Y-41021000D01*
X10226000Y-40027750D01*
X10069250Y-39871000D01*
X9878282Y-39871000D01*
X9647833Y-39966455D01*
X9471455Y-40142833D01*
X9376000Y-40373282D01*
X9376000Y-40864250D01*
X9532748Y-41020998D01*
X9445486Y-41020998D01*
X8532744Y-40108256D01*
X8288778Y-39945243D01*
X8001000Y-39888000D01*
X1905000Y-39888000D01*
X1617222Y-39945243D01*
X1373255Y-40108256D01*
X702000Y-40779511D01*
X702000Y-37616718D01*
X2197048Y-37616718D01*
X2479262Y-38037219D01*
X3629067Y-38512722D01*
X4873315Y-38512017D01*
X6019578Y-38037219D01*
X6301792Y-37616718D01*
X4249420Y-35564345D01*
X2197048Y-37616718D01*
X702000Y-37616718D01*
X702000Y-34764387D01*
X1121438Y-34764387D01*
X1122143Y-36008635D01*
X1596941Y-37154898D01*
X2017442Y-37437112D01*
X4069815Y-35384740D01*
X4429025Y-35384740D01*
X6481398Y-37437112D01*
X6901899Y-37154898D01*
X7377402Y-36005093D01*
X7377239Y-35716750D01*
X9376000Y-35716750D01*
X9376000Y-36207718D01*
X9471455Y-36438167D01*
X9647833Y-36614545D01*
X9878282Y-36710000D01*
X10069250Y-36710000D01*
X10226000Y-36553250D01*
X10226000Y-35560000D01*
X9532750Y-35560000D01*
X9376000Y-35716750D01*
X7377239Y-35716750D01*
X7376697Y-34760845D01*
X7334214Y-34658282D01*
X9376000Y-34658282D01*
X9376000Y-35149250D01*
X9532750Y-35306000D01*
X10226000Y-35306000D01*
X10226000Y-34312750D01*
X10069250Y-34156000D01*
X9878282Y-34156000D01*
X9647833Y-34251455D01*
X9471455Y-34427833D01*
X9376000Y-34658282D01*
X7334214Y-34658282D01*
X6901899Y-33614582D01*
X6481398Y-33332368D01*
X4429025Y-35384740D01*
X4069815Y-35384740D01*
X2017442Y-33332368D01*
X1596941Y-33614582D01*
X1121438Y-34764387D01*
X702000Y-34764387D01*
X702000Y-33152762D01*
X2197048Y-33152762D01*
X4249420Y-35205135D01*
X6301792Y-33152762D01*
X6019578Y-32732261D01*
X5337048Y-32450000D01*
X5786000Y-32450000D01*
X5786000Y-30950000D01*
X6040000Y-30950000D01*
X6040000Y-32450000D01*
X6790000Y-32450000D01*
X7402959Y-32277551D01*
X7903266Y-31883660D01*
X8214753Y-31328293D01*
X8245199Y-31202179D01*
X8127755Y-30950000D01*
X6040000Y-30950000D01*
X5786000Y-30950000D01*
X3698245Y-30950000D01*
X3580801Y-31202179D01*
X3611247Y-31328293D01*
X3922734Y-31883660D01*
X4396971Y-32257026D01*
X3625525Y-32257463D01*
X2479262Y-32732261D01*
X2197048Y-33152762D01*
X702000Y-33152762D01*
X702000Y-30443821D01*
X3580801Y-30443821D01*
X3698245Y-30696000D01*
X5786000Y-30696000D01*
X5786000Y-29196000D01*
X6040000Y-29196000D01*
X6040000Y-30696000D01*
X8127755Y-30696000D01*
X8245199Y-30443821D01*
X8214753Y-30317707D01*
X7903266Y-29762340D01*
X7402959Y-29368449D01*
X6790000Y-29196000D01*
X6040000Y-29196000D01*
X5786000Y-29196000D01*
X5036000Y-29196000D01*
X4423041Y-29368449D01*
X3922734Y-29762340D01*
X3611247Y-30317707D01*
X3580801Y-30443821D01*
X702000Y-30443821D01*
X702000Y-28376370D01*
X7939235Y-28376370D01*
X8013807Y-28620241D01*
X8548134Y-28812005D01*
X9115173Y-28784692D01*
X9512193Y-28620241D01*
X9586765Y-28376370D01*
X8763000Y-27552605D01*
X7939235Y-28376370D01*
X702000Y-28376370D01*
X702000Y-24100000D01*
X3486000Y-24100000D01*
X3486000Y-25100000D01*
X3658449Y-25712959D01*
X4052340Y-26213266D01*
X4607707Y-26524753D01*
X4733821Y-26555199D01*
X4986000Y-26437755D01*
X4986000Y-24100000D01*
X5240000Y-24100000D01*
X5240000Y-26437755D01*
X5492179Y-26555199D01*
X5618293Y-26524753D01*
X6173660Y-26213266D01*
X6567551Y-25712959D01*
X6740000Y-25100000D01*
X6740000Y-24100000D01*
X5240000Y-24100000D01*
X4986000Y-24100000D01*
X3486000Y-24100000D01*
X702000Y-24100000D01*
X702000Y-22846000D01*
X3486000Y-22846000D01*
X3486000Y-23846000D01*
X4986000Y-23846000D01*
X4986000Y-21508245D01*
X5240000Y-21508245D01*
X5240000Y-23846000D01*
X6740000Y-23846000D01*
X6740000Y-22846000D01*
X6567551Y-22233041D01*
X6173660Y-21732734D01*
X5618293Y-21421247D01*
X5492179Y-21390801D01*
X5240000Y-21508245D01*
X4986000Y-21508245D01*
X4733821Y-21390801D01*
X4607707Y-21421247D01*
X4052340Y-21732734D01*
X3658449Y-22233041D01*
X3486000Y-22846000D01*
X702000Y-22846000D01*
X702000Y-17502179D01*
X3580801Y-17502179D01*
X3611247Y-17628293D01*
X3922734Y-18183660D01*
X4423041Y-18577551D01*
X5036000Y-18750000D01*
X5786000Y-18750000D01*
X5786000Y-17250000D01*
X6040000Y-17250000D01*
X6040000Y-18750000D01*
X6790000Y-18750000D01*
X7402959Y-18577551D01*
X7903266Y-18183660D01*
X8214753Y-17628293D01*
X8245199Y-17502179D01*
X8127755Y-17250000D01*
X6040000Y-17250000D01*
X5786000Y-17250000D01*
X3698245Y-17250000D01*
X3580801Y-17502179D01*
X702000Y-17502179D01*
X702000Y-16743821D01*
X3580801Y-16743821D01*
X3698245Y-16996000D01*
X5786000Y-16996000D01*
X5786000Y-15496000D01*
X6040000Y-15496000D01*
X6040000Y-16996000D01*
X8127755Y-16996000D01*
X8245199Y-16743821D01*
X8214753Y-16617707D01*
X7929863Y-16109761D01*
X8568141Y-16094582D01*
X9207724Y-15829658D01*
X9349632Y-15528717D01*
X8128000Y-14307085D01*
X8113858Y-14321228D01*
X7934253Y-14141623D01*
X7948395Y-14127480D01*
X8307605Y-14127480D01*
X9529237Y-15349112D01*
X9830178Y-15207204D01*
X10113801Y-14473620D01*
X10095102Y-13687339D01*
X9830178Y-13047756D01*
X9529237Y-12905848D01*
X8307605Y-14127480D01*
X7948395Y-14127480D01*
X6726763Y-12905848D01*
X6425822Y-13047756D01*
X6142199Y-13781340D01*
X6160898Y-14567621D01*
X6425822Y-15207204D01*
X6726761Y-15349111D01*
X6614610Y-15461262D01*
X6649348Y-15496000D01*
X6040000Y-15496000D01*
X5786000Y-15496000D01*
X5036000Y-15496000D01*
X4423041Y-15668449D01*
X3922734Y-16062340D01*
X3611247Y-16617707D01*
X3580801Y-16743821D01*
X702000Y-16743821D01*
X702000Y-12726243D01*
X6906368Y-12726243D01*
X8128000Y-13947875D01*
X9349632Y-12726243D01*
X9207724Y-12425302D01*
X8474140Y-12141679D01*
X7687859Y-12160378D01*
X7048276Y-12425302D01*
X6906368Y-12726243D01*
X702000Y-12726243D01*
X702000Y-9681750D01*
X9439020Y-9681750D01*
X9439020Y-10538718D01*
X9534475Y-10769167D01*
X9710853Y-10945545D01*
X9941302Y-11041000D01*
X10544270Y-11041000D01*
X10701020Y-10884250D01*
X10701020Y-9525000D01*
X9595770Y-9525000D01*
X9439020Y-9681750D01*
X702000Y-9681750D01*
X702000Y-5842000D01*
X9426737Y-5842000D01*
X9426737Y-7874000D01*
X9470457Y-8106352D01*
X9489366Y-8135737D01*
X9439020Y-8257282D01*
X9439020Y-9114250D01*
X9595770Y-9271000D01*
X10701020Y-9271000D01*
X10701020Y-9251000D01*
X10955020Y-9251000D01*
X10955020Y-9271000D01*
X10975020Y-9271000D01*
X10975020Y-9525000D01*
X10955020Y-9525000D01*
X10955020Y-10884250D01*
X11111770Y-11041000D01*
X11714738Y-11041000D01*
X11812658Y-11000440D01*
X11816283Y-11002917D01*
X12065000Y-11053283D01*
X13589000Y-11053283D01*
X13821352Y-11009563D01*
X14034753Y-10872243D01*
X14177917Y-10662717D01*
X14228283Y-10414000D01*
X14228283Y-10316750D01*
X19502500Y-10316750D01*
X19502500Y-10983218D01*
X19597955Y-11213667D01*
X19774333Y-11390045D01*
X20004782Y-11485500D01*
X20671250Y-11485500D01*
X20828000Y-11328750D01*
X20828000Y-10160000D01*
X21082000Y-10160000D01*
X21082000Y-11328750D01*
X21238750Y-11485500D01*
X21905218Y-11485500D01*
X22135667Y-11390045D01*
X22312045Y-11213667D01*
X22407500Y-10983218D01*
X22407500Y-10316750D01*
X22250750Y-10160000D01*
X21082000Y-10160000D01*
X20828000Y-10160000D01*
X19659250Y-10160000D01*
X19502500Y-10316750D01*
X14228283Y-10316750D01*
X14228283Y-9082782D01*
X19502500Y-9082782D01*
X19502500Y-9749250D01*
X19659250Y-9906000D01*
X20828000Y-9906000D01*
X20828000Y-8737250D01*
X21082000Y-8737250D01*
X21082000Y-9906000D01*
X22250750Y-9906000D01*
X22407500Y-9749250D01*
X22407500Y-9082782D01*
X22312045Y-8852333D01*
X22135667Y-8675955D01*
X21905218Y-8580500D01*
X21238750Y-8580500D01*
X21082000Y-8737250D01*
X20828000Y-8737250D01*
X20671250Y-8580500D01*
X20004782Y-8580500D01*
X19774333Y-8675955D01*
X19597955Y-8852333D01*
X19502500Y-9082782D01*
X14228283Y-9082782D01*
X14228283Y-8382000D01*
X14184563Y-8149648D01*
X14172415Y-8130769D01*
X14177917Y-8122717D01*
X14228283Y-7874000D01*
X14228283Y-5842000D01*
X14184563Y-5609648D01*
X14047243Y-5396247D01*
X13837717Y-5253083D01*
X13589000Y-5202717D01*
X12065000Y-5202717D01*
X11832648Y-5246437D01*
X11826250Y-5250554D01*
X11590020Y-5202717D01*
X10066020Y-5202717D01*
X9833668Y-5246437D01*
X9620267Y-5383757D01*
X9477103Y-5593283D01*
X9426737Y-5842000D01*
X702000Y-5842000D01*
X702000Y-3529757D01*
X6906368Y-3529757D01*
X7048276Y-3830698D01*
X7781860Y-4114321D01*
X8568141Y-4095622D01*
X9207724Y-3830698D01*
X9349632Y-3529757D01*
X9236866Y-3416991D01*
X19538347Y-3416991D01*
X19568012Y-3924146D01*
X19705020Y-4254912D01*
X19933365Y-4311030D01*
X20648395Y-3596000D01*
X21007605Y-3596000D01*
X21722635Y-4311030D01*
X21950980Y-4254912D01*
X22095168Y-3839750D01*
X26013000Y-3839750D01*
X26013000Y-4330718D01*
X26108455Y-4561167D01*
X26284833Y-4737545D01*
X26515282Y-4833000D01*
X26706250Y-4833000D01*
X26863000Y-4676250D01*
X26863000Y-3683000D01*
X26169750Y-3683000D01*
X26013000Y-3839750D01*
X22095168Y-3839750D01*
X22117653Y-3775009D01*
X22087988Y-3267854D01*
X21950980Y-2937088D01*
X21722635Y-2880970D01*
X21007605Y-3596000D01*
X20648395Y-3596000D01*
X19933365Y-2880970D01*
X19705020Y-2937088D01*
X19538347Y-3416991D01*
X9236866Y-3416991D01*
X8128000Y-2308125D01*
X6906368Y-3529757D01*
X702000Y-3529757D01*
X702000Y-1782380D01*
X6142199Y-1782380D01*
X6160898Y-2568661D01*
X6425822Y-3208244D01*
X6726763Y-3350152D01*
X7948395Y-2128520D01*
X8307605Y-2128520D01*
X9529237Y-3350152D01*
X9830178Y-3208244D01*
X10026150Y-2701365D01*
X20112970Y-2701365D01*
X20828000Y-3416395D01*
X21463113Y-2781282D01*
X26013000Y-2781282D01*
X26013000Y-3272250D01*
X26169750Y-3429000D01*
X26863000Y-3429000D01*
X26863000Y-2435750D01*
X26706250Y-2279000D01*
X26515282Y-2279000D01*
X26284833Y-2374455D01*
X26108455Y-2550833D01*
X26013000Y-2781282D01*
X21463113Y-2781282D01*
X21543030Y-2701365D01*
X21486912Y-2473020D01*
X21007009Y-2306347D01*
X20499854Y-2336012D01*
X20169088Y-2473020D01*
X20112970Y-2701365D01*
X10026150Y-2701365D01*
X10113801Y-2474660D01*
X10095102Y-1688379D01*
X9830178Y-1048796D01*
X9529237Y-906888D01*
X8307605Y-2128520D01*
X7948395Y-2128520D01*
X6726763Y-906888D01*
X6425822Y-1048796D01*
X6142199Y-1782380D01*
X702000Y-1782380D01*
X702000Y-702000D01*
X6918290Y-702000D01*
X6906368Y-727283D01*
G36*
X26111000Y-43537283D02*
X26411000Y-43537283D01*
X26483157Y-43523706D01*
X26486282Y-43525000D01*
X26529250Y-43525000D01*
X26534758Y-43519492D01*
X26566243Y-43677778D01*
X26729256Y-43921744D01*
X27027256Y-44219745D01*
X27146254Y-44299256D01*
X27171313Y-44316000D01*
X27146750Y-44316000D01*
X26990000Y-44472750D01*
X26990000Y-45466000D01*
X27010000Y-45466000D01*
X27010000Y-45720000D01*
X26990000Y-45720000D01*
X26990000Y-45740000D01*
X26736000Y-45740000D01*
X26736000Y-45720000D01*
X26042750Y-45720000D01*
X25886000Y-45876750D01*
X25886000Y-46367718D01*
X25937479Y-46492000D01*
X24209383Y-46492000D01*
X24263647Y-46361319D01*
X24527417Y-46252331D01*
X24788414Y-45991789D01*
X24929839Y-45651201D01*
X24930161Y-45282417D01*
X24789331Y-44941583D01*
X24666246Y-44818282D01*
X25886000Y-44818282D01*
X25886000Y-45309250D01*
X26042750Y-45466000D01*
X26736000Y-45466000D01*
X26736000Y-44472750D01*
X26579250Y-44316000D01*
X26388282Y-44316000D01*
X26157833Y-44411455D01*
X25981455Y-44587833D01*
X25886000Y-44818282D01*
X24666246Y-44818282D01*
X24633291Y-44785270D01*
X24628000Y-44758672D01*
X24628000Y-44069000D01*
X24570757Y-43781222D01*
X24513000Y-43694783D01*
X24513000Y-43518090D01*
X24514671Y-43517776D01*
X24611000Y-43537283D01*
X24911000Y-43537283D01*
X25014671Y-43517776D01*
X25111000Y-43537283D01*
X25411000Y-43537283D01*
X25514671Y-43517776D01*
X25611000Y-43537283D01*
X25911000Y-43537283D01*
X26014671Y-43517776D01*
X26111000Y-43537283D01*
X26111000Y-43537283D01*
G37*
X26111000Y-43537283D02*
X26411000Y-43537283D01*
X26483157Y-43523706D01*
X26486282Y-43525000D01*
X26529250Y-43525000D01*
X26534758Y-43519492D01*
X26566243Y-43677778D01*
X26729256Y-43921744D01*
X27027256Y-44219745D01*
X27146254Y-44299256D01*
X27171313Y-44316000D01*
X27146750Y-44316000D01*
X26990000Y-44472750D01*
X26990000Y-45466000D01*
X27010000Y-45466000D01*
X27010000Y-45720000D01*
X26990000Y-45720000D01*
X26990000Y-45740000D01*
X26736000Y-45740000D01*
X26736000Y-45720000D01*
X26042750Y-45720000D01*
X25886000Y-45876750D01*
X25886000Y-46367718D01*
X25937479Y-46492000D01*
X24209383Y-46492000D01*
X24263647Y-46361319D01*
X24527417Y-46252331D01*
X24788414Y-45991789D01*
X24929839Y-45651201D01*
X24930161Y-45282417D01*
X24789331Y-44941583D01*
X24666246Y-44818282D01*
X25886000Y-44818282D01*
X25886000Y-45309250D01*
X26042750Y-45466000D01*
X26736000Y-45466000D01*
X26736000Y-44472750D01*
X26579250Y-44316000D01*
X26388282Y-44316000D01*
X26157833Y-44411455D01*
X25981455Y-44587833D01*
X25886000Y-44818282D01*
X24666246Y-44818282D01*
X24633291Y-44785270D01*
X24628000Y-44758672D01*
X24628000Y-44069000D01*
X24570757Y-43781222D01*
X24513000Y-43694783D01*
X24513000Y-43518090D01*
X24514671Y-43517776D01*
X24611000Y-43537283D01*
X24911000Y-43537283D01*
X25014671Y-43517776D01*
X25111000Y-43537283D01*
X25411000Y-43537283D01*
X25514671Y-43517776D01*
X25611000Y-43537283D01*
X25911000Y-43537283D01*
X26014671Y-43517776D01*
X26111000Y-43537283D01*
G36*
X24638000Y-39116000D02*
X24658000Y-39116000D01*
X24658000Y-39370000D01*
X24638000Y-39370000D01*
X24638000Y-39390000D01*
X24384000Y-39390000D01*
X24384000Y-39370000D01*
X24364000Y-39370000D01*
X24364000Y-39116000D01*
X24384000Y-39116000D01*
X24384000Y-39096000D01*
X24638000Y-39096000D01*
X24638000Y-39116000D01*
X24638000Y-39116000D01*
G37*
X24638000Y-39116000D02*
X24658000Y-39116000D01*
X24658000Y-39370000D01*
X24638000Y-39370000D01*
X24638000Y-39390000D01*
X24384000Y-39390000D01*
X24384000Y-39370000D01*
X24364000Y-39370000D01*
X24364000Y-39116000D01*
X24384000Y-39116000D01*
X24384000Y-39096000D01*
X24638000Y-39096000D01*
X24638000Y-39116000D01*
G36*
X30547243Y-22258778D02*
X30710256Y-22502744D01*
X31345256Y-23137745D01*
X31491503Y-23235464D01*
X31589222Y-23300757D01*
X31816769Y-23346019D01*
X31899750Y-23429000D01*
X32893000Y-23429000D01*
X32893000Y-23409000D01*
X33147000Y-23409000D01*
X33147000Y-23429000D01*
X33167000Y-23429000D01*
X33167000Y-23683000D01*
X33147000Y-23683000D01*
X33147000Y-23703000D01*
X32893000Y-23703000D01*
X32893000Y-23683000D01*
X31899750Y-23683000D01*
X31743000Y-23839750D01*
X31743000Y-24030718D01*
X31838455Y-24261167D01*
X32014833Y-24437545D01*
X32245282Y-24533000D01*
X32736250Y-24533000D01*
X32892998Y-24376252D01*
X32892998Y-24463514D01*
X30688099Y-26668413D01*
X30619885Y-26543000D01*
X29083000Y-26543000D01*
X29083000Y-27843000D01*
X29483000Y-27843000D01*
X29526163Y-27830349D01*
X29152512Y-28204000D01*
X28702000Y-28204000D01*
X28414222Y-28261243D01*
X28170256Y-28424256D01*
X26640000Y-29954512D01*
X26640000Y-29033488D01*
X27455744Y-28217744D01*
X27618757Y-27973778D01*
X27632489Y-27904744D01*
X27676000Y-27686000D01*
X27676000Y-27511419D01*
X27892578Y-27685775D01*
X28429000Y-27843000D01*
X28829000Y-27843000D01*
X28829000Y-26543000D01*
X28809000Y-26543000D01*
X28809000Y-26289000D01*
X28829000Y-26289000D01*
X28829000Y-26269000D01*
X29083000Y-26269000D01*
X29083000Y-26289000D01*
X30619885Y-26289000D01*
X30739971Y-26068217D01*
X30722977Y-25987243D01*
X30454844Y-25496761D01*
X30019422Y-25146225D01*
X30012835Y-25144294D01*
X30400834Y-24885041D01*
X30710169Y-24422089D01*
X30818793Y-23876000D01*
X30710169Y-23329911D01*
X30400834Y-22866959D01*
X30010282Y-22606000D01*
X30400834Y-22345041D01*
X30526879Y-22156402D01*
X30547243Y-22258778D01*
X30547243Y-22258778D01*
G37*
X30547243Y-22258778D02*
X30710256Y-22502744D01*
X31345256Y-23137745D01*
X31491503Y-23235464D01*
X31589222Y-23300757D01*
X31816769Y-23346019D01*
X31899750Y-23429000D01*
X32893000Y-23429000D01*
X32893000Y-23409000D01*
X33147000Y-23409000D01*
X33147000Y-23429000D01*
X33167000Y-23429000D01*
X33167000Y-23683000D01*
X33147000Y-23683000D01*
X33147000Y-23703000D01*
X32893000Y-23703000D01*
X32893000Y-23683000D01*
X31899750Y-23683000D01*
X31743000Y-23839750D01*
X31743000Y-24030718D01*
X31838455Y-24261167D01*
X32014833Y-24437545D01*
X32245282Y-24533000D01*
X32736250Y-24533000D01*
X32892998Y-24376252D01*
X32892998Y-24463514D01*
X30688099Y-26668413D01*
X30619885Y-26543000D01*
X29083000Y-26543000D01*
X29083000Y-27843000D01*
X29483000Y-27843000D01*
X29526163Y-27830349D01*
X29152512Y-28204000D01*
X28702000Y-28204000D01*
X28414222Y-28261243D01*
X28170256Y-28424256D01*
X26640000Y-29954512D01*
X26640000Y-29033488D01*
X27455744Y-28217744D01*
X27618757Y-27973778D01*
X27632489Y-27904744D01*
X27676000Y-27686000D01*
X27676000Y-27511419D01*
X27892578Y-27685775D01*
X28429000Y-27843000D01*
X28829000Y-27843000D01*
X28829000Y-26543000D01*
X28809000Y-26543000D01*
X28809000Y-26289000D01*
X28829000Y-26289000D01*
X28829000Y-26269000D01*
X29083000Y-26269000D01*
X29083000Y-26289000D01*
X30619885Y-26289000D01*
X30739971Y-26068217D01*
X30722977Y-25987243D01*
X30454844Y-25496761D01*
X30019422Y-25146225D01*
X30012835Y-25144294D01*
X30400834Y-24885041D01*
X30710169Y-24422089D01*
X30818793Y-23876000D01*
X30710169Y-23329911D01*
X30400834Y-22866959D01*
X30010282Y-22606000D01*
X30400834Y-22345041D01*
X30526879Y-22156402D01*
X30547243Y-22258778D01*
G36*
X18791717Y-16002000D02*
X18835437Y-16234352D01*
X18972757Y-16447753D01*
X19154597Y-16572000D01*
X14522639Y-16572000D01*
X14282201Y-16472161D01*
X13913417Y-16471839D01*
X13572583Y-16612669D01*
X13311586Y-16873211D01*
X13170161Y-17213799D01*
X13169839Y-17582583D01*
X13310669Y-17923417D01*
X13571211Y-18184414D01*
X13911799Y-18325839D01*
X14280583Y-18326161D01*
X14522991Y-18226000D01*
X14997583Y-18226000D01*
X14875083Y-18405283D01*
X14873752Y-18411855D01*
X14790201Y-18377161D01*
X14421417Y-18376839D01*
X14080583Y-18517669D01*
X13819586Y-18778211D01*
X13678161Y-19118799D01*
X13677839Y-19487583D01*
X13818669Y-19828417D01*
X14079211Y-20089414D01*
X14419799Y-20230839D01*
X14788583Y-20231161D01*
X14874442Y-20195685D01*
X15005757Y-20399753D01*
X15049076Y-20429352D01*
X14882405Y-20596023D01*
X14786950Y-20826472D01*
X14786950Y-21067490D01*
X14943700Y-21224240D01*
X15687000Y-21224240D01*
X15687000Y-21204240D01*
X15941000Y-21204240D01*
X15941000Y-21224240D01*
X15961000Y-21224240D01*
X15961000Y-21478240D01*
X15941000Y-21478240D01*
X15941000Y-22221540D01*
X16096592Y-22377132D01*
X15918197Y-22491927D01*
X15775033Y-22701453D01*
X15724667Y-22950170D01*
X15724667Y-23687165D01*
X15714222Y-23689243D01*
X15470256Y-23852256D01*
X15282256Y-24040256D01*
X15186589Y-24183432D01*
X15018247Y-24291757D01*
X14875083Y-24501283D01*
X14845372Y-24648000D01*
X13092177Y-24648000D01*
X12987778Y-24578243D01*
X12700000Y-24521000D01*
X10202283Y-24521000D01*
X10202283Y-24473000D01*
X10158563Y-24240648D01*
X10021243Y-24027247D01*
X9811717Y-23884083D01*
X9610472Y-23843330D01*
X9972047Y-23482386D01*
X10189752Y-22958093D01*
X10190248Y-22390397D01*
X9973457Y-21865725D01*
X9731084Y-21622928D01*
X9972047Y-21382386D01*
X10163201Y-20922035D01*
X10352543Y-21380275D01*
X10753614Y-21782047D01*
X11277907Y-21999752D01*
X11845603Y-22000248D01*
X12370275Y-21783457D01*
X12519001Y-21634990D01*
X14786950Y-21634990D01*
X14786950Y-21876008D01*
X14882405Y-22106457D01*
X15058783Y-22282835D01*
X15289232Y-22378290D01*
X15530250Y-22378290D01*
X15687000Y-22221540D01*
X15687000Y-21478240D01*
X14943700Y-21478240D01*
X14786950Y-21634990D01*
X12519001Y-21634990D01*
X12772047Y-21382386D01*
X12989752Y-20858093D01*
X12990248Y-20290397D01*
X12773457Y-19765725D01*
X12372386Y-19363953D01*
X11848093Y-19146248D01*
X11280397Y-19145752D01*
X10755725Y-19362543D01*
X10353953Y-19763614D01*
X10162799Y-20223965D01*
X9973457Y-19765725D01*
X9590000Y-19381598D01*
X9590000Y-18884554D01*
X13042554Y-15432000D01*
X18791717Y-15432000D01*
X18791717Y-16002000D01*
X18791717Y-16002000D01*
G37*
X18791717Y-16002000D02*
X18835437Y-16234352D01*
X18972757Y-16447753D01*
X19154597Y-16572000D01*
X14522639Y-16572000D01*
X14282201Y-16472161D01*
X13913417Y-16471839D01*
X13572583Y-16612669D01*
X13311586Y-16873211D01*
X13170161Y-17213799D01*
X13169839Y-17582583D01*
X13310669Y-17923417D01*
X13571211Y-18184414D01*
X13911799Y-18325839D01*
X14280583Y-18326161D01*
X14522991Y-18226000D01*
X14997583Y-18226000D01*
X14875083Y-18405283D01*
X14873752Y-18411855D01*
X14790201Y-18377161D01*
X14421417Y-18376839D01*
X14080583Y-18517669D01*
X13819586Y-18778211D01*
X13678161Y-19118799D01*
X13677839Y-19487583D01*
X13818669Y-19828417D01*
X14079211Y-20089414D01*
X14419799Y-20230839D01*
X14788583Y-20231161D01*
X14874442Y-20195685D01*
X15005757Y-20399753D01*
X15049076Y-20429352D01*
X14882405Y-20596023D01*
X14786950Y-20826472D01*
X14786950Y-21067490D01*
X14943700Y-21224240D01*
X15687000Y-21224240D01*
X15687000Y-21204240D01*
X15941000Y-21204240D01*
X15941000Y-21224240D01*
X15961000Y-21224240D01*
X15961000Y-21478240D01*
X15941000Y-21478240D01*
X15941000Y-22221540D01*
X16096592Y-22377132D01*
X15918197Y-22491927D01*
X15775033Y-22701453D01*
X15724667Y-22950170D01*
X15724667Y-23687165D01*
X15714222Y-23689243D01*
X15470256Y-23852256D01*
X15282256Y-24040256D01*
X15186589Y-24183432D01*
X15018247Y-24291757D01*
X14875083Y-24501283D01*
X14845372Y-24648000D01*
X13092177Y-24648000D01*
X12987778Y-24578243D01*
X12700000Y-24521000D01*
X10202283Y-24521000D01*
X10202283Y-24473000D01*
X10158563Y-24240648D01*
X10021243Y-24027247D01*
X9811717Y-23884083D01*
X9610472Y-23843330D01*
X9972047Y-23482386D01*
X10189752Y-22958093D01*
X10190248Y-22390397D01*
X9973457Y-21865725D01*
X9731084Y-21622928D01*
X9972047Y-21382386D01*
X10163201Y-20922035D01*
X10352543Y-21380275D01*
X10753614Y-21782047D01*
X11277907Y-21999752D01*
X11845603Y-22000248D01*
X12370275Y-21783457D01*
X12519001Y-21634990D01*
X14786950Y-21634990D01*
X14786950Y-21876008D01*
X14882405Y-22106457D01*
X15058783Y-22282835D01*
X15289232Y-22378290D01*
X15530250Y-22378290D01*
X15687000Y-22221540D01*
X15687000Y-21478240D01*
X14943700Y-21478240D01*
X14786950Y-21634990D01*
X12519001Y-21634990D01*
X12772047Y-21382386D01*
X12989752Y-20858093D01*
X12990248Y-20290397D01*
X12773457Y-19765725D01*
X12372386Y-19363953D01*
X11848093Y-19146248D01*
X11280397Y-19145752D01*
X10755725Y-19362543D01*
X10353953Y-19763614D01*
X10162799Y-20223965D01*
X9973457Y-19765725D01*
X9590000Y-19381598D01*
X9590000Y-18884554D01*
X13042554Y-15432000D01*
X18791717Y-15432000D01*
X18791717Y-16002000D01*
M02*
