G04 #@! TF.FileFunction,Copper,L2,Bot,Signal*
%FSLAX46Y46*%
G04 Gerber Fmt 4.6, Leading zero omitted, Abs format (unit mm)*
G04 Created by KiCad (PCBNEW 4.0.7-e2-6376~58~ubuntu16.04.1) date Sun Jan 24 13:39:57 2021*
%MOMM*%
%LPD*%
G01*
G04 APERTURE LIST*
%ADD10C,0.100000*%
%ADD11C,1.501140*%
%ADD12R,1.300000X1.300000*%
%ADD13C,1.300000*%
%ADD14R,1.800000X1.800000*%
%ADD15C,1.800000*%
%ADD16R,1.524000X2.032000*%
%ADD17C,2.700020*%
%ADD18O,3.500000X2.000000*%
%ADD19R,1.600000X1.600000*%
%ADD20C,1.600000*%
%ADD21O,2.000000X4.000000*%
%ADD22R,1.727200X1.727200*%
%ADD23O,1.727200X1.727200*%
%ADD24C,6.400000*%
%ADD25R,2.400000X1.600000*%
%ADD26O,2.400000X1.600000*%
%ADD27C,5.001260*%
%ADD28C,1.500000*%
%ADD29C,0.600000*%
%ADD30C,0.250000*%
%ADD31C,0.400000*%
%ADD32C,0.254000*%
G04 APERTURE END LIST*
D10*
D11*
X15748000Y-35532060D03*
X15748000Y-40413940D03*
D12*
X20828000Y-6096000D03*
D13*
X20828000Y-3596000D03*
D14*
X38608000Y-32004000D03*
D15*
X41148000Y-32004000D03*
D14*
X38608000Y-36576000D03*
D15*
X41148000Y-36576000D03*
D14*
X38608000Y-41656000D03*
D15*
X41148000Y-41656000D03*
D16*
X12827000Y-9398000D03*
X12827000Y-6858000D03*
X10828020Y-6858000D03*
X10828020Y-9398000D03*
D17*
X8128000Y-14127480D03*
X8128000Y-2128520D03*
D18*
X5913000Y-17123000D03*
X5913000Y-30823000D03*
D19*
X8763000Y-25273000D03*
D20*
X8763000Y-22673000D03*
X8763000Y-27373000D03*
X8763000Y-20573000D03*
X11563000Y-27373000D03*
X11563000Y-20573000D03*
D21*
X5113000Y-23973000D03*
D22*
X38100000Y-56896000D03*
D23*
X38100000Y-59436000D03*
X35560000Y-56896000D03*
X35560000Y-59436000D03*
X33020000Y-56896000D03*
X33020000Y-59436000D03*
X30480000Y-56896000D03*
X30480000Y-59436000D03*
X27940000Y-56896000D03*
X27940000Y-59436000D03*
D24*
X38354000Y-48387000D03*
X38354000Y-5461000D03*
D25*
X28956000Y-18796000D03*
D26*
X36576000Y-26416000D03*
X28956000Y-21336000D03*
X36576000Y-23876000D03*
X28956000Y-23876000D03*
X36576000Y-21336000D03*
X28956000Y-26416000D03*
X36576000Y-18796000D03*
D27*
X4249420Y-60373260D03*
D28*
X6731000Y-52197000D03*
D27*
X4249420Y-35384740D03*
D28*
X6731000Y-49911000D03*
X6731000Y-47625000D03*
X6731000Y-45339000D03*
X6731000Y-43053000D03*
X4191000Y-53340000D03*
X4191000Y-51054000D03*
X4191000Y-48768000D03*
X4191000Y-46482000D03*
X4191000Y-44196000D03*
X1651000Y-52197000D03*
X1651000Y-49911000D03*
X1651000Y-47625000D03*
X1651000Y-45339000D03*
X1651000Y-43053000D03*
D29*
X24003000Y-24003000D03*
X31115000Y-28829000D03*
X24384000Y-7747000D03*
X14351000Y-21336000D03*
X19558000Y-50673000D03*
X15748000Y-42418000D03*
X26289000Y-14732000D03*
X31369000Y-37211000D03*
X31369000Y-36068000D03*
X13208000Y-48768000D03*
X13208000Y-50673000D03*
X13208000Y-52578000D03*
X17653000Y-29464000D03*
X22606000Y-45593000D03*
X18796000Y-25400000D03*
X23368000Y-46101000D03*
X19685000Y-45847000D03*
X18542000Y-45847000D03*
X14605000Y-19304000D03*
X24003000Y-45466000D03*
X29083000Y-35433000D03*
X18288000Y-34544000D03*
X18288000Y-40640000D03*
X29083000Y-43688000D03*
X31496000Y-38100000D03*
X34544000Y-34036000D03*
X31496000Y-39116000D03*
X34544000Y-39116000D03*
X34544000Y-40132000D03*
X31496000Y-40132000D03*
X17399000Y-45847000D03*
X14097000Y-17399000D03*
D30*
X6731000Y-43053000D02*
X6731000Y-39878000D01*
X8509000Y-38100000D02*
X8509000Y-30823000D01*
X6731000Y-39878000D02*
X8509000Y-38100000D01*
X24003000Y-24003000D02*
X26416000Y-26416000D01*
X26416000Y-26416000D02*
X28956000Y-26416000D01*
X28956000Y-26416000D02*
X28956000Y-26670000D01*
X28956000Y-26670000D02*
X31115000Y-28829000D01*
X22733000Y-5501000D02*
X20828000Y-3596000D01*
X22733000Y-6096000D02*
X22733000Y-5501000D01*
X24384000Y-7747000D02*
X22733000Y-6096000D01*
X5913000Y-30823000D02*
X8509000Y-30823000D01*
X8509000Y-30823000D02*
X8636000Y-30823000D01*
X14351000Y-29083000D02*
X14351000Y-21336000D01*
X12611000Y-30823000D02*
X14351000Y-29083000D01*
X8636000Y-30823000D02*
X12611000Y-30823000D01*
X15748000Y-42418000D02*
X15748000Y-48768000D01*
X17653000Y-50673000D02*
X19558000Y-50673000D01*
X15748000Y-48768000D02*
X17653000Y-50673000D01*
D31*
X38100000Y-59436000D02*
X39751000Y-59436000D01*
X39751000Y-59436000D02*
X40132000Y-59055000D01*
X40132000Y-59055000D02*
X40132000Y-55372000D01*
X40132000Y-55372000D02*
X39116000Y-54356000D01*
X39116000Y-54356000D02*
X37719000Y-54356000D01*
X37719000Y-54356000D02*
X33655000Y-50292000D01*
X33655000Y-50292000D02*
X33655000Y-45593000D01*
X33655000Y-45593000D02*
X36576000Y-42672000D01*
X36576000Y-42672000D02*
X36576000Y-30480000D01*
X36576000Y-30480000D02*
X39497000Y-27559000D01*
X39497000Y-27559000D02*
X39497000Y-17399000D01*
X39497000Y-17399000D02*
X36830000Y-14732000D01*
X36830000Y-14732000D02*
X26289000Y-14732000D01*
D30*
X30353000Y-32258000D02*
X30353000Y-36195000D01*
X30289500Y-32194500D02*
X17018000Y-18923000D01*
X30353000Y-32258000D02*
X30289500Y-32194500D01*
X17018000Y-18923000D02*
X17018000Y-10033000D01*
X17018000Y-10033000D02*
X13843000Y-6858000D01*
X12827000Y-6858000D02*
X13843000Y-6858000D01*
X30353000Y-36195000D02*
X31369000Y-37211000D01*
X30988000Y-35687000D02*
X31369000Y-36068000D01*
X11938000Y-4953000D02*
X10828020Y-6062980D01*
X13843000Y-4953000D02*
X11938000Y-4953000D01*
X14478000Y-5588000D02*
X13843000Y-4953000D01*
X14478000Y-6858000D02*
X14478000Y-5588000D01*
X17653000Y-10033000D02*
X14478000Y-6858000D01*
X17653000Y-18923000D02*
X17653000Y-10033000D01*
X30988000Y-32258000D02*
X17653000Y-18923000D01*
X30988000Y-32258000D02*
X30988000Y-35687000D01*
X10828020Y-6062980D02*
X10828020Y-6858000D01*
X12065000Y-47625000D02*
X13208000Y-48768000D01*
X6731000Y-47625000D02*
X12065000Y-47625000D01*
X6731000Y-49911000D02*
X12446000Y-49911000D01*
X12446000Y-49911000D02*
X13208000Y-50673000D01*
X6731000Y-52197000D02*
X12827000Y-52197000D01*
X12827000Y-52197000D02*
X13208000Y-52578000D01*
X17653000Y-29464000D02*
X19177000Y-30988000D01*
X19177000Y-30988000D02*
X19177000Y-42164000D01*
X19177000Y-42164000D02*
X22606000Y-45593000D01*
X20193000Y-26797000D02*
X18796000Y-25400000D01*
X20193000Y-41910000D02*
X20193000Y-26797000D01*
X23368000Y-45085000D02*
X20193000Y-41910000D01*
X23368000Y-46101000D02*
X23368000Y-45085000D01*
X19685000Y-45847000D02*
X27178000Y-53340000D01*
X27178000Y-53340000D02*
X32004000Y-53340000D01*
X35560000Y-56896000D02*
X32004000Y-53340000D01*
X33020000Y-55880000D02*
X31242000Y-54102000D01*
X31242000Y-54102000D02*
X26670000Y-54102000D01*
X26670000Y-54102000D02*
X18542000Y-45974000D01*
X18542000Y-45974000D02*
X18542000Y-45847000D01*
X33020000Y-56896000D02*
X33020000Y-55880000D01*
X16637000Y-19304000D02*
X14605000Y-19304000D01*
X20701000Y-23368000D02*
X16637000Y-19304000D01*
X20701000Y-41402000D02*
X20701000Y-23368000D01*
X24003000Y-44704000D02*
X20701000Y-41402000D01*
X24003000Y-45466000D02*
X24003000Y-44704000D01*
D31*
X28956000Y-23876000D02*
X33782000Y-23876000D01*
X29083000Y-43688000D02*
X29083000Y-35433000D01*
X29083000Y-47244000D02*
X29083000Y-47879000D01*
X29083000Y-47879000D02*
X38100000Y-56896000D01*
X18288000Y-40640000D02*
X18288000Y-42672000D01*
X29083000Y-47371000D02*
X29083000Y-47244000D01*
X29083000Y-47244000D02*
X29083000Y-43688000D01*
X22987000Y-47371000D02*
X29083000Y-47371000D01*
X18288000Y-42672000D02*
X22987000Y-47371000D01*
X29083000Y-43688000D02*
X33655000Y-43688000D01*
X33655000Y-43688000D02*
X35560000Y-41783000D01*
X35560000Y-41783000D02*
X35560000Y-29718000D01*
X35560000Y-29718000D02*
X33782000Y-27940000D01*
X33782000Y-27940000D02*
X33782000Y-23876000D01*
X33782000Y-23876000D02*
X33782000Y-22733000D01*
X33782000Y-22733000D02*
X35179000Y-21336000D01*
X35179000Y-21336000D02*
X36576000Y-21336000D01*
D30*
X18288000Y-34544000D02*
X18288000Y-40640000D01*
X31496000Y-38100000D02*
X34544000Y-35052000D01*
X34544000Y-35052000D02*
X34544000Y-34036000D01*
X31496000Y-39116000D02*
X34544000Y-39116000D01*
X31496000Y-40132000D02*
X34544000Y-40132000D01*
X17399000Y-45847000D02*
X26670000Y-55118000D01*
X26670000Y-55118000D02*
X28702000Y-55118000D01*
X28702000Y-55118000D02*
X30480000Y-56896000D01*
D31*
X12827000Y-16129000D02*
X12827000Y-9398000D01*
X14097000Y-17399000D02*
X12827000Y-16129000D01*
D32*
G36*
X6906368Y-727283D02*
X8128000Y-1948915D01*
X9349632Y-727283D01*
X9337710Y-702000D01*
X42986000Y-702000D01*
X42986000Y-62798000D01*
X6172422Y-62798000D01*
X6301792Y-62605238D01*
X4249420Y-60552865D01*
X2197048Y-62605238D01*
X2326418Y-62798000D01*
X702000Y-62798000D01*
X702000Y-59752907D01*
X1121438Y-59752907D01*
X1122143Y-60997155D01*
X1596941Y-62143418D01*
X2017442Y-62425632D01*
X4069815Y-60373260D01*
X4429025Y-60373260D01*
X6481398Y-62425632D01*
X6901899Y-62143418D01*
X7377402Y-60993613D01*
X7376697Y-59749365D01*
X6901899Y-58603102D01*
X6481398Y-58320888D01*
X4429025Y-60373260D01*
X4069815Y-60373260D01*
X2017442Y-58320888D01*
X1596941Y-58603102D01*
X1121438Y-59752907D01*
X702000Y-59752907D01*
X702000Y-58141282D01*
X2197048Y-58141282D01*
X4249420Y-60193655D01*
X6301792Y-58141282D01*
X6019578Y-57720781D01*
X4869773Y-57245278D01*
X3625525Y-57245983D01*
X2479262Y-57720781D01*
X2197048Y-58141282D01*
X702000Y-58141282D01*
X702000Y-54307141D01*
X3403464Y-54307141D01*
X3471891Y-54545833D01*
X3988082Y-54729235D01*
X4535166Y-54701140D01*
X4910109Y-54545833D01*
X4978536Y-54307141D01*
X4191000Y-53519605D01*
X3403464Y-54307141D01*
X702000Y-54307141D01*
X702000Y-53195416D01*
X869974Y-53363683D01*
X1375896Y-53573760D01*
X1923701Y-53574238D01*
X2429989Y-53365044D01*
X2658349Y-53137082D01*
X2801765Y-53137082D01*
X2829860Y-53684166D01*
X2985167Y-54059109D01*
X3223859Y-54127536D01*
X4011395Y-53340000D01*
X4370605Y-53340000D01*
X5158141Y-54127536D01*
X5396833Y-54059109D01*
X5580235Y-53542918D01*
X5552140Y-52995834D01*
X5396833Y-52620891D01*
X5158141Y-52552464D01*
X4370605Y-53340000D01*
X4011395Y-53340000D01*
X3223859Y-52552464D01*
X2985167Y-52620891D01*
X2801765Y-53137082D01*
X2658349Y-53137082D01*
X2817683Y-52978026D01*
X3027760Y-52472104D01*
X3028153Y-52021141D01*
X3403464Y-52021141D01*
X3453878Y-52197000D01*
X3403464Y-52372859D01*
X4191000Y-53160395D01*
X4978536Y-52372859D01*
X4928122Y-52197000D01*
X4978536Y-52021141D01*
X4191000Y-51233605D01*
X3403464Y-52021141D01*
X3028153Y-52021141D01*
X3028238Y-51924299D01*
X2819044Y-51418011D01*
X2455373Y-51053705D01*
X2658349Y-50851082D01*
X2801765Y-50851082D01*
X2829860Y-51398166D01*
X2985167Y-51773109D01*
X3223859Y-51841536D01*
X4011395Y-51054000D01*
X4370605Y-51054000D01*
X5158141Y-51841536D01*
X5396833Y-51773109D01*
X5580235Y-51256918D01*
X5552140Y-50709834D01*
X5396833Y-50334891D01*
X5158141Y-50266464D01*
X4370605Y-51054000D01*
X4011395Y-51054000D01*
X3223859Y-50266464D01*
X2985167Y-50334891D01*
X2801765Y-50851082D01*
X2658349Y-50851082D01*
X2817683Y-50692026D01*
X3027760Y-50186104D01*
X3028153Y-49735141D01*
X3403464Y-49735141D01*
X3453878Y-49911000D01*
X3403464Y-50086859D01*
X4191000Y-50874395D01*
X4978536Y-50086859D01*
X4928122Y-49911000D01*
X4978536Y-49735141D01*
X4191000Y-48947605D01*
X3403464Y-49735141D01*
X3028153Y-49735141D01*
X3028238Y-49638299D01*
X2819044Y-49132011D01*
X2455373Y-48767705D01*
X2658349Y-48565082D01*
X2801765Y-48565082D01*
X2829860Y-49112166D01*
X2985167Y-49487109D01*
X3223859Y-49555536D01*
X4011395Y-48768000D01*
X4370605Y-48768000D01*
X5158141Y-49555536D01*
X5396833Y-49487109D01*
X5580235Y-48970918D01*
X5552140Y-48423834D01*
X5396833Y-48048891D01*
X5158141Y-47980464D01*
X4370605Y-48768000D01*
X4011395Y-48768000D01*
X3223859Y-47980464D01*
X2985167Y-48048891D01*
X2801765Y-48565082D01*
X2658349Y-48565082D01*
X2817683Y-48406026D01*
X3027760Y-47900104D01*
X3028238Y-47352299D01*
X2819044Y-46846011D01*
X2727894Y-46754701D01*
X2813762Y-46754701D01*
X3022956Y-47260989D01*
X3409974Y-47648683D01*
X3443141Y-47662455D01*
X3403464Y-47800859D01*
X4191000Y-48588395D01*
X4978536Y-47800859D01*
X4938975Y-47662859D01*
X4969989Y-47650044D01*
X5357683Y-47263026D01*
X5567760Y-46757104D01*
X5568238Y-46209299D01*
X5359044Y-45703011D01*
X5267894Y-45611701D01*
X5353762Y-45611701D01*
X5562956Y-46117989D01*
X5926627Y-46482295D01*
X5564317Y-46843974D01*
X5354240Y-47349896D01*
X5353762Y-47897701D01*
X5562956Y-48403989D01*
X5926627Y-48768295D01*
X5564317Y-49129974D01*
X5354240Y-49635896D01*
X5353762Y-50183701D01*
X5562956Y-50689989D01*
X5926627Y-51054295D01*
X5564317Y-51415974D01*
X5354240Y-51921896D01*
X5353762Y-52469701D01*
X5562956Y-52975989D01*
X5949974Y-53363683D01*
X6455896Y-53573760D01*
X7003701Y-53574238D01*
X7509989Y-53365044D01*
X7897683Y-52978026D01*
X7909736Y-52949000D01*
X12358278Y-52949000D01*
X12421669Y-53102417D01*
X12682211Y-53363414D01*
X13022799Y-53504839D01*
X13391583Y-53505161D01*
X13732417Y-53364331D01*
X13993414Y-53103789D01*
X14134839Y-52763201D01*
X14135161Y-52394417D01*
X13994331Y-52053583D01*
X13733789Y-51792586D01*
X13393201Y-51651161D01*
X13337577Y-51651112D01*
X13261152Y-51600047D01*
X13391583Y-51600161D01*
X13732417Y-51459331D01*
X13993414Y-51198789D01*
X14134839Y-50858201D01*
X14135161Y-50489417D01*
X13994331Y-50148583D01*
X13733789Y-49887586D01*
X13393201Y-49746161D01*
X13344607Y-49746119D01*
X13293563Y-49695075D01*
X13391583Y-49695161D01*
X13732417Y-49554331D01*
X13993414Y-49293789D01*
X14134839Y-48953201D01*
X14135161Y-48584417D01*
X13994331Y-48243583D01*
X13733789Y-47982586D01*
X13393201Y-47841161D01*
X13344607Y-47841119D01*
X12596744Y-47093256D01*
X12352778Y-46930243D01*
X12065000Y-46873000D01*
X7910196Y-46873000D01*
X7899044Y-46846011D01*
X7535373Y-46481705D01*
X7897683Y-46120026D01*
X8107760Y-45614104D01*
X8108238Y-45066299D01*
X7899044Y-44560011D01*
X7512026Y-44172317D01*
X7478859Y-44158545D01*
X7518536Y-44020141D01*
X6731000Y-43232605D01*
X5943464Y-44020141D01*
X5983025Y-44158141D01*
X5952011Y-44170956D01*
X5564317Y-44557974D01*
X5354240Y-45063896D01*
X5353762Y-45611701D01*
X5267894Y-45611701D01*
X4972026Y-45315317D01*
X4938859Y-45301545D01*
X4978536Y-45163141D01*
X4191000Y-44375605D01*
X3403464Y-45163141D01*
X3443025Y-45301141D01*
X3412011Y-45313956D01*
X3024317Y-45700974D01*
X2814240Y-46206896D01*
X2813762Y-46754701D01*
X2727894Y-46754701D01*
X2455373Y-46481705D01*
X2817683Y-46120026D01*
X3027760Y-45614104D01*
X3028238Y-45066299D01*
X2819044Y-44560011D01*
X2455373Y-44195705D01*
X2658349Y-43993082D01*
X2801765Y-43993082D01*
X2829860Y-44540166D01*
X2985167Y-44915109D01*
X3223859Y-44983536D01*
X4011395Y-44196000D01*
X4370605Y-44196000D01*
X5158141Y-44983536D01*
X5396833Y-44915109D01*
X5580235Y-44398918D01*
X5552140Y-43851834D01*
X5396833Y-43476891D01*
X5158141Y-43408464D01*
X4370605Y-44196000D01*
X4011395Y-44196000D01*
X3223859Y-43408464D01*
X2985167Y-43476891D01*
X2801765Y-43993082D01*
X2658349Y-43993082D01*
X2817683Y-43834026D01*
X3027760Y-43328104D01*
X3027846Y-43228859D01*
X3403464Y-43228859D01*
X4191000Y-44016395D01*
X4978536Y-43228859D01*
X4910109Y-42990167D01*
X4515836Y-42850082D01*
X5341765Y-42850082D01*
X5369860Y-43397166D01*
X5525167Y-43772109D01*
X5763859Y-43840536D01*
X6551395Y-43053000D01*
X6910605Y-43053000D01*
X7698141Y-43840536D01*
X7936833Y-43772109D01*
X8120235Y-43255918D01*
X8092140Y-42708834D01*
X7936833Y-42333891D01*
X7698141Y-42265464D01*
X6910605Y-43053000D01*
X6551395Y-43053000D01*
X5763859Y-42265464D01*
X5525167Y-42333891D01*
X5341765Y-42850082D01*
X4515836Y-42850082D01*
X4393918Y-42806765D01*
X3846834Y-42834860D01*
X3471891Y-42990167D01*
X3403464Y-43228859D01*
X3027846Y-43228859D01*
X3028238Y-42780299D01*
X2819044Y-42274011D01*
X2631221Y-42085859D01*
X5943464Y-42085859D01*
X6731000Y-42873395D01*
X7518536Y-42085859D01*
X7450109Y-41847167D01*
X6933918Y-41663765D01*
X6386834Y-41691860D01*
X6011891Y-41847167D01*
X5943464Y-42085859D01*
X2631221Y-42085859D01*
X2432026Y-41886317D01*
X1926104Y-41676240D01*
X1378299Y-41675762D01*
X872011Y-41884956D01*
X702000Y-42054671D01*
X702000Y-37616718D01*
X2197048Y-37616718D01*
X2479262Y-38037219D01*
X3629067Y-38512722D01*
X4873315Y-38512017D01*
X6019578Y-38037219D01*
X6301792Y-37616718D01*
X4249420Y-35564345D01*
X2197048Y-37616718D01*
X702000Y-37616718D01*
X702000Y-34764387D01*
X1121438Y-34764387D01*
X1122143Y-36008635D01*
X1596941Y-37154898D01*
X2017442Y-37437112D01*
X4069815Y-35384740D01*
X4429025Y-35384740D01*
X6481398Y-37437112D01*
X6901899Y-37154898D01*
X7377402Y-36005093D01*
X7377289Y-35804873D01*
X14370192Y-35804873D01*
X14579472Y-36311371D01*
X14966651Y-36699226D01*
X15472782Y-36909390D01*
X16020813Y-36909868D01*
X16527311Y-36700588D01*
X16915166Y-36313409D01*
X17125330Y-35807278D01*
X17125808Y-35259247D01*
X16916528Y-34752749D01*
X16529349Y-34364894D01*
X16023218Y-34154730D01*
X15475187Y-34154252D01*
X14968689Y-34363532D01*
X14580834Y-34750711D01*
X14370670Y-35256842D01*
X14370192Y-35804873D01*
X7377289Y-35804873D01*
X7376697Y-34760845D01*
X6901899Y-33614582D01*
X6481398Y-33332368D01*
X4429025Y-35384740D01*
X4069815Y-35384740D01*
X2017442Y-33332368D01*
X1596941Y-33614582D01*
X1121438Y-34764387D01*
X702000Y-34764387D01*
X702000Y-33152762D01*
X2197048Y-33152762D01*
X4249420Y-35205135D01*
X6301792Y-33152762D01*
X6019578Y-32732261D01*
X5337048Y-32450000D01*
X5786000Y-32450000D01*
X5786000Y-30950000D01*
X6040000Y-30950000D01*
X6040000Y-32450000D01*
X6790000Y-32450000D01*
X7402959Y-32277551D01*
X7903266Y-31883660D01*
X8214753Y-31328293D01*
X8245199Y-31202179D01*
X8127755Y-30950000D01*
X6040000Y-30950000D01*
X5786000Y-30950000D01*
X3698245Y-30950000D01*
X3580801Y-31202179D01*
X3611247Y-31328293D01*
X3922734Y-31883660D01*
X4396971Y-32257026D01*
X3625525Y-32257463D01*
X2479262Y-32732261D01*
X2197048Y-33152762D01*
X702000Y-33152762D01*
X702000Y-30443821D01*
X3580801Y-30443821D01*
X3698245Y-30696000D01*
X5786000Y-30696000D01*
X5786000Y-29196000D01*
X6040000Y-29196000D01*
X6040000Y-30696000D01*
X8127755Y-30696000D01*
X8245199Y-30443821D01*
X8214753Y-30317707D01*
X7903266Y-29762340D01*
X7402959Y-29368449D01*
X6790000Y-29196000D01*
X6040000Y-29196000D01*
X5786000Y-29196000D01*
X5036000Y-29196000D01*
X4423041Y-29368449D01*
X3922734Y-29762340D01*
X3611247Y-30317707D01*
X3580801Y-30443821D01*
X702000Y-30443821D01*
X702000Y-28376370D01*
X7939235Y-28376370D01*
X8013807Y-28620241D01*
X8548134Y-28812005D01*
X9115173Y-28784692D01*
X9512193Y-28620241D01*
X9586765Y-28376370D01*
X8763000Y-27552605D01*
X7939235Y-28376370D01*
X702000Y-28376370D01*
X702000Y-24100000D01*
X3486000Y-24100000D01*
X3486000Y-25100000D01*
X3658449Y-25712959D01*
X4052340Y-26213266D01*
X4607707Y-26524753D01*
X4733821Y-26555199D01*
X4986000Y-26437755D01*
X4986000Y-24100000D01*
X5240000Y-24100000D01*
X5240000Y-26437755D01*
X5492179Y-26555199D01*
X5618293Y-26524753D01*
X6173660Y-26213266D01*
X6567551Y-25712959D01*
X6740000Y-25100000D01*
X6740000Y-24473000D01*
X7323717Y-24473000D01*
X7323717Y-26073000D01*
X7367437Y-26305352D01*
X7504757Y-26518753D01*
X7614374Y-26593652D01*
X7515759Y-26623807D01*
X7323995Y-27158134D01*
X7351308Y-27725173D01*
X7515759Y-28122193D01*
X7759630Y-28196765D01*
X8583395Y-27373000D01*
X8569253Y-27358858D01*
X8748858Y-27179253D01*
X8763000Y-27193395D01*
X8777143Y-27179253D01*
X8956748Y-27358858D01*
X8942605Y-27373000D01*
X9766370Y-28196765D01*
X10010241Y-28122193D01*
X10158199Y-27709927D01*
X10352543Y-28180275D01*
X10753614Y-28582047D01*
X11277907Y-28799752D01*
X11845603Y-28800248D01*
X12370275Y-28583457D01*
X12772047Y-28182386D01*
X12989752Y-27658093D01*
X12990248Y-27090397D01*
X12773457Y-26565725D01*
X12372386Y-26163953D01*
X11848093Y-25946248D01*
X11280397Y-25945752D01*
X10755725Y-26162543D01*
X10353953Y-26563614D01*
X10169404Y-27008059D01*
X10010241Y-26623807D01*
X9911721Y-26593681D01*
X10008753Y-26531243D01*
X10151917Y-26321717D01*
X10202283Y-26073000D01*
X10202283Y-24473000D01*
X10158563Y-24240648D01*
X10021243Y-24027247D01*
X9811717Y-23884083D01*
X9610472Y-23843330D01*
X9972047Y-23482386D01*
X10189752Y-22958093D01*
X10190248Y-22390397D01*
X9973457Y-21865725D01*
X9731084Y-21622928D01*
X9972047Y-21382386D01*
X10163201Y-20922035D01*
X10352543Y-21380275D01*
X10753614Y-21782047D01*
X11277907Y-21999752D01*
X11845603Y-22000248D01*
X12370275Y-21783457D01*
X12772047Y-21382386D01*
X12989752Y-20858093D01*
X12990248Y-20290397D01*
X12773457Y-19765725D01*
X12372386Y-19363953D01*
X11848093Y-19146248D01*
X11280397Y-19145752D01*
X10755725Y-19362543D01*
X10353953Y-19763614D01*
X10162799Y-20223965D01*
X9973457Y-19765725D01*
X9572386Y-19363953D01*
X9048093Y-19146248D01*
X8480397Y-19145752D01*
X7955725Y-19362543D01*
X7553953Y-19763614D01*
X7336248Y-20287907D01*
X7335752Y-20855603D01*
X7552543Y-21380275D01*
X7794916Y-21623072D01*
X7553953Y-21863614D01*
X7336248Y-22387907D01*
X7335752Y-22955603D01*
X7552543Y-23480275D01*
X7914482Y-23842846D01*
X7730648Y-23877437D01*
X7517247Y-24014757D01*
X7374083Y-24224283D01*
X7323717Y-24473000D01*
X6740000Y-24473000D01*
X6740000Y-24100000D01*
X5240000Y-24100000D01*
X4986000Y-24100000D01*
X3486000Y-24100000D01*
X702000Y-24100000D01*
X702000Y-22846000D01*
X3486000Y-22846000D01*
X3486000Y-23846000D01*
X4986000Y-23846000D01*
X4986000Y-21508245D01*
X5240000Y-21508245D01*
X5240000Y-23846000D01*
X6740000Y-23846000D01*
X6740000Y-22846000D01*
X6567551Y-22233041D01*
X6173660Y-21732734D01*
X5618293Y-21421247D01*
X5492179Y-21390801D01*
X5240000Y-21508245D01*
X4986000Y-21508245D01*
X4733821Y-21390801D01*
X4607707Y-21421247D01*
X4052340Y-21732734D01*
X3658449Y-22233041D01*
X3486000Y-22846000D01*
X702000Y-22846000D01*
X702000Y-17502179D01*
X3580801Y-17502179D01*
X3611247Y-17628293D01*
X3922734Y-18183660D01*
X4423041Y-18577551D01*
X5036000Y-18750000D01*
X5786000Y-18750000D01*
X5786000Y-17250000D01*
X6040000Y-17250000D01*
X6040000Y-18750000D01*
X6790000Y-18750000D01*
X7402959Y-18577551D01*
X7903266Y-18183660D01*
X8214753Y-17628293D01*
X8245199Y-17502179D01*
X8127755Y-17250000D01*
X6040000Y-17250000D01*
X5786000Y-17250000D01*
X3698245Y-17250000D01*
X3580801Y-17502179D01*
X702000Y-17502179D01*
X702000Y-16743821D01*
X3580801Y-16743821D01*
X3698245Y-16996000D01*
X5786000Y-16996000D01*
X5786000Y-15496000D01*
X6040000Y-15496000D01*
X6040000Y-16996000D01*
X8127755Y-16996000D01*
X8245199Y-16743821D01*
X8214753Y-16617707D01*
X7929863Y-16109761D01*
X8568141Y-16094582D01*
X9207724Y-15829658D01*
X9349632Y-15528717D01*
X8128000Y-14307085D01*
X8113858Y-14321228D01*
X7934253Y-14141623D01*
X7948395Y-14127480D01*
X8307605Y-14127480D01*
X9529237Y-15349112D01*
X9830178Y-15207204D01*
X10113801Y-14473620D01*
X10095102Y-13687339D01*
X9830178Y-13047756D01*
X9529237Y-12905848D01*
X8307605Y-14127480D01*
X7948395Y-14127480D01*
X6726763Y-12905848D01*
X6425822Y-13047756D01*
X6142199Y-13781340D01*
X6160898Y-14567621D01*
X6425822Y-15207204D01*
X6726761Y-15349111D01*
X6614610Y-15461262D01*
X6649348Y-15496000D01*
X6040000Y-15496000D01*
X5786000Y-15496000D01*
X5036000Y-15496000D01*
X4423041Y-15668449D01*
X3922734Y-16062340D01*
X3611247Y-16617707D01*
X3580801Y-16743821D01*
X702000Y-16743821D01*
X702000Y-12726243D01*
X6906368Y-12726243D01*
X8128000Y-13947875D01*
X9349632Y-12726243D01*
X9207724Y-12425302D01*
X8474140Y-12141679D01*
X7687859Y-12160378D01*
X7048276Y-12425302D01*
X6906368Y-12726243D01*
X702000Y-12726243D01*
X702000Y-9681750D01*
X9439020Y-9681750D01*
X9439020Y-10538718D01*
X9534475Y-10769167D01*
X9710853Y-10945545D01*
X9941302Y-11041000D01*
X10544270Y-11041000D01*
X10701020Y-10884250D01*
X10701020Y-9525000D01*
X9595770Y-9525000D01*
X9439020Y-9681750D01*
X702000Y-9681750D01*
X702000Y-5842000D01*
X9426737Y-5842000D01*
X9426737Y-7874000D01*
X9470457Y-8106352D01*
X9489366Y-8135737D01*
X9439020Y-8257282D01*
X9439020Y-9114250D01*
X9595770Y-9271000D01*
X10701020Y-9271000D01*
X10701020Y-9251000D01*
X10955020Y-9251000D01*
X10955020Y-9271000D01*
X10975020Y-9271000D01*
X10975020Y-9525000D01*
X10955020Y-9525000D01*
X10955020Y-10884250D01*
X11111770Y-11041000D01*
X11714738Y-11041000D01*
X11812658Y-11000440D01*
X11816283Y-11002917D01*
X12000000Y-11040120D01*
X12000000Y-16129000D01*
X12062952Y-16445479D01*
X12242223Y-16713777D01*
X13211249Y-17682803D01*
X13310669Y-17923417D01*
X13571211Y-18184414D01*
X13911799Y-18325839D01*
X14280583Y-18326161D01*
X14621417Y-18185331D01*
X14882414Y-17924789D01*
X15023839Y-17584201D01*
X15024161Y-17215417D01*
X14883331Y-16874583D01*
X14622789Y-16613586D01*
X14380556Y-16513002D01*
X13654000Y-15786446D01*
X13654000Y-11041052D01*
X13821352Y-11009563D01*
X14034753Y-10872243D01*
X14177917Y-10662717D01*
X14228283Y-10414000D01*
X14228283Y-8382000D01*
X14210847Y-8289335D01*
X16266000Y-10344488D01*
X16266000Y-18552000D01*
X15164145Y-18552000D01*
X15130789Y-18518586D01*
X14790201Y-18377161D01*
X14421417Y-18376839D01*
X14080583Y-18517669D01*
X13819586Y-18778211D01*
X13678161Y-19118799D01*
X13677839Y-19487583D01*
X13818669Y-19828417D01*
X14079211Y-20089414D01*
X14419799Y-20230839D01*
X14788583Y-20231161D01*
X15129417Y-20090331D01*
X15163808Y-20056000D01*
X16325512Y-20056000D01*
X19949000Y-23679488D01*
X19949000Y-25489512D01*
X19723120Y-25263631D01*
X19723161Y-25216417D01*
X19582331Y-24875583D01*
X19321789Y-24614586D01*
X18981201Y-24473161D01*
X18612417Y-24472839D01*
X18271583Y-24613669D01*
X18010586Y-24874211D01*
X17869161Y-25214799D01*
X17868839Y-25583583D01*
X18009669Y-25924417D01*
X18270211Y-26185414D01*
X18610799Y-26326839D01*
X18659393Y-26326881D01*
X19441000Y-27108489D01*
X19441000Y-30188511D01*
X18580120Y-29327632D01*
X18580161Y-29280417D01*
X18439331Y-28939583D01*
X18178789Y-28678586D01*
X17838201Y-28537161D01*
X17469417Y-28536839D01*
X17128583Y-28677669D01*
X16867586Y-28938211D01*
X16726161Y-29278799D01*
X16725839Y-29647583D01*
X16866669Y-29988417D01*
X17127211Y-30249414D01*
X17467799Y-30390839D01*
X17516393Y-30390881D01*
X18425000Y-31299489D01*
X18425000Y-33617119D01*
X18104417Y-33616839D01*
X17763583Y-33757669D01*
X17502586Y-34018211D01*
X17361161Y-34358799D01*
X17360839Y-34727583D01*
X17501669Y-35068417D01*
X17536000Y-35102808D01*
X17536000Y-40080855D01*
X17502586Y-40114211D01*
X17361161Y-40454799D01*
X17360839Y-40823583D01*
X17461000Y-41065991D01*
X17461000Y-42672000D01*
X17523952Y-42988479D01*
X17703223Y-43256777D01*
X19405795Y-44959349D01*
X19160583Y-45060669D01*
X19113647Y-45107524D01*
X19067789Y-45061586D01*
X18727201Y-44920161D01*
X18358417Y-44919839D01*
X18017583Y-45060669D01*
X17970647Y-45107524D01*
X17924789Y-45061586D01*
X17584201Y-44920161D01*
X17215417Y-44919839D01*
X16874583Y-45060669D01*
X16613586Y-45321211D01*
X16500000Y-45594755D01*
X16500000Y-42977145D01*
X16533414Y-42943789D01*
X16674839Y-42603201D01*
X16675161Y-42234417D01*
X16534331Y-41893583D01*
X16312402Y-41671266D01*
X16527311Y-41582468D01*
X16915166Y-41195289D01*
X17125330Y-40689158D01*
X17125808Y-40141127D01*
X16916528Y-39634629D01*
X16529349Y-39246774D01*
X16023218Y-39036610D01*
X15475187Y-39036132D01*
X14968689Y-39245412D01*
X14580834Y-39632591D01*
X14370670Y-40138722D01*
X14370192Y-40686753D01*
X14579472Y-41193251D01*
X14966651Y-41581106D01*
X15183877Y-41671306D01*
X14962586Y-41892211D01*
X14821161Y-42232799D01*
X14820839Y-42601583D01*
X14961669Y-42942417D01*
X14996000Y-42976808D01*
X14996000Y-48768000D01*
X15053243Y-49055778D01*
X15216256Y-49299744D01*
X17121256Y-51204744D01*
X17365222Y-51367757D01*
X17653000Y-51425000D01*
X18998855Y-51425000D01*
X19032211Y-51458414D01*
X19372799Y-51599839D01*
X19741583Y-51600161D01*
X20082417Y-51459331D01*
X20343414Y-51198789D01*
X20484839Y-50858201D01*
X20485161Y-50489417D01*
X20344331Y-50148583D01*
X20083789Y-49887586D01*
X19743201Y-49746161D01*
X19374417Y-49745839D01*
X19033583Y-49886669D01*
X18999192Y-49921000D01*
X17964488Y-49921000D01*
X16500000Y-48456512D01*
X16500000Y-46098738D01*
X16612669Y-46371417D01*
X16873211Y-46632414D01*
X17213799Y-46773839D01*
X17262393Y-46773881D01*
X26138256Y-55649744D01*
X26382222Y-55812757D01*
X26670000Y-55870000D01*
X26838066Y-55870000D01*
X26533662Y-56325572D01*
X26420197Y-56896000D01*
X26533662Y-57466428D01*
X26856784Y-57950013D01*
X27180031Y-58166000D01*
X26856784Y-58381987D01*
X26533662Y-58865572D01*
X26420197Y-59436000D01*
X26533662Y-60006428D01*
X26856784Y-60490013D01*
X27340369Y-60813135D01*
X27910797Y-60926600D01*
X27969203Y-60926600D01*
X28539631Y-60813135D01*
X29023216Y-60490013D01*
X29209018Y-60211942D01*
X29595705Y-60635976D01*
X30122229Y-60883038D01*
X30353000Y-60764440D01*
X30353000Y-59563000D01*
X30607000Y-59563000D01*
X30607000Y-60764440D01*
X30837771Y-60883038D01*
X31364295Y-60635976D01*
X31750000Y-60213019D01*
X32135705Y-60635976D01*
X32662229Y-60883038D01*
X32893000Y-60764440D01*
X32893000Y-59563000D01*
X33147000Y-59563000D01*
X33147000Y-60764440D01*
X33377771Y-60883038D01*
X33904295Y-60635976D01*
X34290000Y-60213019D01*
X34675705Y-60635976D01*
X35202229Y-60883038D01*
X35433000Y-60764440D01*
X35433000Y-59563000D01*
X33147000Y-59563000D01*
X32893000Y-59563000D01*
X30607000Y-59563000D01*
X30353000Y-59563000D01*
X30333000Y-59563000D01*
X30333000Y-59309000D01*
X30353000Y-59309000D01*
X30353000Y-59289000D01*
X30607000Y-59289000D01*
X30607000Y-59309000D01*
X32893000Y-59309000D01*
X32893000Y-59289000D01*
X33147000Y-59289000D01*
X33147000Y-59309000D01*
X35433000Y-59309000D01*
X35433000Y-59289000D01*
X35687000Y-59289000D01*
X35687000Y-59309000D01*
X35707000Y-59309000D01*
X35707000Y-59563000D01*
X35687000Y-59563000D01*
X35687000Y-60764440D01*
X35917771Y-60883038D01*
X36444295Y-60635976D01*
X36830982Y-60211942D01*
X37016784Y-60490013D01*
X37500369Y-60813135D01*
X38070797Y-60926600D01*
X38129203Y-60926600D01*
X38699631Y-60813135D01*
X39183216Y-60490013D01*
X39334902Y-60263000D01*
X39751000Y-60263000D01*
X40067479Y-60200048D01*
X40335777Y-60020777D01*
X40716777Y-59639778D01*
X40896048Y-59371479D01*
X40908476Y-59309000D01*
X40959000Y-59055000D01*
X40959000Y-55372000D01*
X40896048Y-55055521D01*
X40716777Y-54787223D01*
X39700777Y-53771223D01*
X39432479Y-53591952D01*
X39116000Y-53529000D01*
X38061554Y-53529000D01*
X35726581Y-51194027D01*
X35797053Y-51123555D01*
X36164437Y-51616740D01*
X37567075Y-52208800D01*
X39089516Y-52219027D01*
X40499981Y-51645861D01*
X40543563Y-51616740D01*
X40910948Y-51123553D01*
X38354000Y-48566605D01*
X38339858Y-48580748D01*
X38160253Y-48401143D01*
X38174395Y-48387000D01*
X38533605Y-48387000D01*
X41090553Y-50943948D01*
X41583740Y-50576563D01*
X42175800Y-49173925D01*
X42186027Y-47651484D01*
X41612861Y-46241019D01*
X41583740Y-46197437D01*
X41090553Y-45830052D01*
X38533605Y-48387000D01*
X38174395Y-48387000D01*
X35617447Y-45830052D01*
X35124260Y-46197437D01*
X34532200Y-47600075D01*
X34521973Y-49122516D01*
X35095139Y-50532981D01*
X35124260Y-50576563D01*
X35617445Y-50943947D01*
X35546973Y-51014419D01*
X34482000Y-49949446D01*
X34482000Y-45935554D01*
X34767107Y-45650447D01*
X35797052Y-45650447D01*
X38354000Y-48207395D01*
X40910948Y-45650447D01*
X40543563Y-45157260D01*
X39140925Y-44565200D01*
X37618484Y-44554973D01*
X36208019Y-45128139D01*
X36164437Y-45157260D01*
X35797052Y-45650447D01*
X34767107Y-45650447D01*
X37160777Y-43256777D01*
X37305657Y-43039948D01*
X37459283Y-43144917D01*
X37708000Y-43195283D01*
X39508000Y-43195283D01*
X39740352Y-43151563D01*
X39953753Y-43014243D01*
X40096917Y-42804717D01*
X40097171Y-42803465D01*
X40138657Y-42844951D01*
X40251818Y-42731790D01*
X40338663Y-42986023D01*
X40909248Y-43194501D01*
X41516181Y-43168756D01*
X41957337Y-42986023D01*
X42044183Y-42731788D01*
X41148000Y-41835605D01*
X41133858Y-41849748D01*
X40954253Y-41670143D01*
X40968395Y-41656000D01*
X41327605Y-41656000D01*
X42223788Y-42552183D01*
X42478023Y-42465337D01*
X42686501Y-41894752D01*
X42660756Y-41287819D01*
X42478023Y-40846663D01*
X42223788Y-40759817D01*
X41327605Y-41656000D01*
X40968395Y-41656000D01*
X40954253Y-41641858D01*
X41133858Y-41462253D01*
X41148000Y-41476395D01*
X42044183Y-40580212D01*
X41957337Y-40325977D01*
X41386752Y-40117499D01*
X40779819Y-40143244D01*
X40338663Y-40325977D01*
X40251818Y-40580210D01*
X40138657Y-40467049D01*
X40095143Y-40510563D01*
X39966243Y-40310247D01*
X39756717Y-40167083D01*
X39508000Y-40116717D01*
X37708000Y-40116717D01*
X37475648Y-40160437D01*
X37403000Y-40207185D01*
X37403000Y-38026460D01*
X37459283Y-38064917D01*
X37708000Y-38115283D01*
X39508000Y-38115283D01*
X39740352Y-38071563D01*
X39953753Y-37934243D01*
X40096917Y-37724717D01*
X40097171Y-37723465D01*
X40138657Y-37764951D01*
X40251818Y-37651790D01*
X40338663Y-37906023D01*
X40909248Y-38114501D01*
X41516181Y-38088756D01*
X41957337Y-37906023D01*
X42044183Y-37651788D01*
X41148000Y-36755605D01*
X41133858Y-36769748D01*
X40954253Y-36590143D01*
X40968395Y-36576000D01*
X41327605Y-36576000D01*
X42223788Y-37472183D01*
X42478023Y-37385337D01*
X42686501Y-36814752D01*
X42660756Y-36207819D01*
X42478023Y-35766663D01*
X42223788Y-35679817D01*
X41327605Y-36576000D01*
X40968395Y-36576000D01*
X40954253Y-36561858D01*
X41133858Y-36382253D01*
X41148000Y-36396395D01*
X42044183Y-35500212D01*
X41957337Y-35245977D01*
X41386752Y-35037499D01*
X40779819Y-35063244D01*
X40338663Y-35245977D01*
X40251818Y-35500210D01*
X40138657Y-35387049D01*
X40095143Y-35430563D01*
X39966243Y-35230247D01*
X39756717Y-35087083D01*
X39508000Y-35036717D01*
X37708000Y-35036717D01*
X37475648Y-35080437D01*
X37403000Y-35127185D01*
X37403000Y-33454460D01*
X37459283Y-33492917D01*
X37708000Y-33543283D01*
X39508000Y-33543283D01*
X39740352Y-33499563D01*
X39953753Y-33362243D01*
X40096917Y-33152717D01*
X40097171Y-33151465D01*
X40138657Y-33192951D01*
X40251818Y-33079790D01*
X40338663Y-33334023D01*
X40909248Y-33542501D01*
X41516181Y-33516756D01*
X41957337Y-33334023D01*
X42044183Y-33079788D01*
X41148000Y-32183605D01*
X41133858Y-32197748D01*
X40954253Y-32018143D01*
X40968395Y-32004000D01*
X41327605Y-32004000D01*
X42223788Y-32900183D01*
X42478023Y-32813337D01*
X42686501Y-32242752D01*
X42660756Y-31635819D01*
X42478023Y-31194663D01*
X42223788Y-31107817D01*
X41327605Y-32004000D01*
X40968395Y-32004000D01*
X40954253Y-31989858D01*
X41133858Y-31810253D01*
X41148000Y-31824395D01*
X42044183Y-30928212D01*
X41957337Y-30673977D01*
X41386752Y-30465499D01*
X40779819Y-30491244D01*
X40338663Y-30673977D01*
X40251818Y-30928210D01*
X40138657Y-30815049D01*
X40095143Y-30858563D01*
X39966243Y-30658247D01*
X39756717Y-30515083D01*
X39508000Y-30464717D01*
X37760837Y-30464717D01*
X40081777Y-28143777D01*
X40261048Y-27875479D01*
X40324000Y-27559000D01*
X40324000Y-17399000D01*
X40261048Y-17082521D01*
X40203237Y-16996000D01*
X40081778Y-16814223D01*
X37414777Y-14147223D01*
X37146479Y-13967952D01*
X36830000Y-13905000D01*
X26714639Y-13905000D01*
X26474201Y-13805161D01*
X26105417Y-13804839D01*
X25764583Y-13945669D01*
X25503586Y-14206211D01*
X25362161Y-14546799D01*
X25361839Y-14915583D01*
X25502669Y-15256417D01*
X25763211Y-15517414D01*
X26103799Y-15658839D01*
X26472583Y-15659161D01*
X26714991Y-15559000D01*
X36487446Y-15559000D01*
X38670000Y-17741555D01*
X38670000Y-27216446D01*
X36350739Y-29535707D01*
X36324048Y-29401521D01*
X36242048Y-29278799D01*
X36144778Y-29133223D01*
X34609000Y-27597446D01*
X34609000Y-23075554D01*
X35256061Y-22428493D01*
X35521718Y-22606000D01*
X35131166Y-22866959D01*
X34821831Y-23329911D01*
X34713207Y-23876000D01*
X34821831Y-24422089D01*
X35131166Y-24885041D01*
X35521718Y-25146000D01*
X35131166Y-25406959D01*
X34821831Y-25869911D01*
X34713207Y-26416000D01*
X34821831Y-26962089D01*
X35131166Y-27425041D01*
X35594118Y-27734376D01*
X36140207Y-27843000D01*
X37011793Y-27843000D01*
X37557882Y-27734376D01*
X38020834Y-27425041D01*
X38330169Y-26962089D01*
X38438793Y-26416000D01*
X38330169Y-25869911D01*
X38020834Y-25406959D01*
X37630282Y-25146000D01*
X38020834Y-24885041D01*
X38330169Y-24422089D01*
X38438793Y-23876000D01*
X38330169Y-23329911D01*
X38020834Y-22866959D01*
X37630282Y-22606000D01*
X38020834Y-22345041D01*
X38330169Y-21882089D01*
X38438793Y-21336000D01*
X38330169Y-20789911D01*
X38020834Y-20326959D01*
X37630282Y-20066000D01*
X38020834Y-19805041D01*
X38330169Y-19342089D01*
X38438793Y-18796000D01*
X38330169Y-18249911D01*
X38020834Y-17786959D01*
X37557882Y-17477624D01*
X37011793Y-17369000D01*
X36140207Y-17369000D01*
X35594118Y-17477624D01*
X35131166Y-17786959D01*
X34821831Y-18249911D01*
X34713207Y-18796000D01*
X34821831Y-19342089D01*
X35131166Y-19805041D01*
X35521718Y-20066000D01*
X35131166Y-20326959D01*
X34983553Y-20547877D01*
X34862521Y-20571952D01*
X34594222Y-20751223D01*
X33197223Y-22148223D01*
X33017952Y-22416521D01*
X32955000Y-22733000D01*
X32955000Y-23049000D01*
X30522470Y-23049000D01*
X30400834Y-22866959D01*
X30010282Y-22606000D01*
X30400834Y-22345041D01*
X30710169Y-21882089D01*
X30818793Y-21336000D01*
X30710169Y-20789911D01*
X30400834Y-20326959D01*
X30239982Y-20219481D01*
X30388352Y-20191563D01*
X30601753Y-20054243D01*
X30744917Y-19844717D01*
X30795283Y-19596000D01*
X30795283Y-17996000D01*
X30751563Y-17763648D01*
X30614243Y-17550247D01*
X30404717Y-17407083D01*
X30156000Y-17356717D01*
X27756000Y-17356717D01*
X27523648Y-17400437D01*
X27310247Y-17537757D01*
X27167083Y-17747283D01*
X27116717Y-17996000D01*
X27116717Y-19596000D01*
X27160437Y-19828352D01*
X27297757Y-20041753D01*
X27507283Y-20184917D01*
X27673402Y-20218557D01*
X27511166Y-20326959D01*
X27201831Y-20789911D01*
X27093207Y-21336000D01*
X27201831Y-21882089D01*
X27511166Y-22345041D01*
X27901718Y-22606000D01*
X27511166Y-22866959D01*
X27201831Y-23329911D01*
X27093207Y-23876000D01*
X27201831Y-24422089D01*
X27511166Y-24885041D01*
X27899165Y-25144294D01*
X27892578Y-25146225D01*
X27457156Y-25496761D01*
X27189023Y-25987243D01*
X27172029Y-26068217D01*
X27292115Y-26289000D01*
X28829000Y-26289000D01*
X28829000Y-26269000D01*
X29083000Y-26269000D01*
X29083000Y-26289000D01*
X30619885Y-26289000D01*
X30739971Y-26068217D01*
X30722977Y-25987243D01*
X30454844Y-25496761D01*
X30019422Y-25146225D01*
X30012835Y-25144294D01*
X30400834Y-24885041D01*
X30522470Y-24703000D01*
X32955000Y-24703000D01*
X32955000Y-27940000D01*
X33017952Y-28256479D01*
X33197223Y-28524777D01*
X34733000Y-30060555D01*
X34733000Y-33110738D01*
X34729201Y-33109161D01*
X34360417Y-33108839D01*
X34019583Y-33249669D01*
X33758586Y-33510211D01*
X33617161Y-33850799D01*
X33616839Y-34219583D01*
X33757669Y-34560417D01*
X33792000Y-34594808D01*
X33792000Y-34740512D01*
X32295853Y-36236659D01*
X32296161Y-35884417D01*
X32155331Y-35543583D01*
X31894789Y-35282586D01*
X31740000Y-35218312D01*
X31740000Y-32258000D01*
X31682757Y-31970222D01*
X31519744Y-31726256D01*
X26557271Y-26763783D01*
X27172029Y-26763783D01*
X27189023Y-26844757D01*
X27457156Y-27335239D01*
X27892578Y-27685775D01*
X28429000Y-27843000D01*
X28829000Y-27843000D01*
X28829000Y-26543000D01*
X29083000Y-26543000D01*
X29083000Y-27843000D01*
X29483000Y-27843000D01*
X30019422Y-27685775D01*
X30454844Y-27335239D01*
X30722977Y-26844757D01*
X30739971Y-26763783D01*
X30619885Y-26543000D01*
X29083000Y-26543000D01*
X28829000Y-26543000D01*
X27292115Y-26543000D01*
X27172029Y-26763783D01*
X26557271Y-26763783D01*
X18405000Y-18611512D01*
X18405000Y-10033000D01*
X18347757Y-9745222D01*
X18184744Y-9501256D01*
X16881041Y-8197553D01*
X35797052Y-8197553D01*
X36164437Y-8690740D01*
X37567075Y-9282800D01*
X39089516Y-9293027D01*
X40499981Y-8719861D01*
X40543563Y-8690740D01*
X40910948Y-8197553D01*
X38354000Y-5640605D01*
X35797052Y-8197553D01*
X16881041Y-8197553D01*
X15230000Y-6546512D01*
X15230000Y-5588000D01*
X15201755Y-5446000D01*
X19538717Y-5446000D01*
X19538717Y-6746000D01*
X19582437Y-6978352D01*
X19719757Y-7191753D01*
X19929283Y-7334917D01*
X20178000Y-7385283D01*
X21478000Y-7385283D01*
X21710352Y-7341563D01*
X21923753Y-7204243D01*
X22066917Y-6994717D01*
X22117283Y-6746000D01*
X22117283Y-6196516D01*
X34521973Y-6196516D01*
X35095139Y-7606981D01*
X35124260Y-7650563D01*
X35617447Y-8017948D01*
X38174395Y-5461000D01*
X38533605Y-5461000D01*
X41090553Y-8017948D01*
X41583740Y-7650563D01*
X42175800Y-6247925D01*
X42186027Y-4725484D01*
X41612861Y-3315019D01*
X41583740Y-3271437D01*
X41090553Y-2904052D01*
X38533605Y-5461000D01*
X38174395Y-5461000D01*
X35617447Y-2904052D01*
X35124260Y-3271437D01*
X34532200Y-4674075D01*
X34521973Y-6196516D01*
X22117283Y-6196516D01*
X22117283Y-5446000D01*
X22073563Y-5213648D01*
X21936243Y-5000247D01*
X21726717Y-4857083D01*
X21478000Y-4806717D01*
X21275097Y-4806717D01*
X21486912Y-4718980D01*
X21543030Y-4490635D01*
X20828000Y-3775605D01*
X20112970Y-4490635D01*
X20169088Y-4718980D01*
X20421710Y-4806717D01*
X20178000Y-4806717D01*
X19945648Y-4850437D01*
X19732247Y-4987757D01*
X19589083Y-5197283D01*
X19538717Y-5446000D01*
X15201755Y-5446000D01*
X15172757Y-5300222D01*
X15103975Y-5197283D01*
X15009745Y-5056256D01*
X14374744Y-4421256D01*
X14130778Y-4258243D01*
X13843000Y-4201000D01*
X11938000Y-4201000D01*
X11650222Y-4258243D01*
X11571221Y-4311030D01*
X11406256Y-4421256D01*
X10624795Y-5202717D01*
X10066020Y-5202717D01*
X9833668Y-5246437D01*
X9620267Y-5383757D01*
X9477103Y-5593283D01*
X9426737Y-5842000D01*
X702000Y-5842000D01*
X702000Y-3529757D01*
X6906368Y-3529757D01*
X7048276Y-3830698D01*
X7781860Y-4114321D01*
X8568141Y-4095622D01*
X9207724Y-3830698D01*
X9349632Y-3529757D01*
X9236866Y-3416991D01*
X19538347Y-3416991D01*
X19568012Y-3924146D01*
X19705020Y-4254912D01*
X19933365Y-4311030D01*
X20648395Y-3596000D01*
X21007605Y-3596000D01*
X21722635Y-4311030D01*
X21950980Y-4254912D01*
X22117653Y-3775009D01*
X22087988Y-3267854D01*
X21950980Y-2937088D01*
X21722635Y-2880970D01*
X21007605Y-3596000D01*
X20648395Y-3596000D01*
X19933365Y-2880970D01*
X19705020Y-2937088D01*
X19538347Y-3416991D01*
X9236866Y-3416991D01*
X8128000Y-2308125D01*
X6906368Y-3529757D01*
X702000Y-3529757D01*
X702000Y-1782380D01*
X6142199Y-1782380D01*
X6160898Y-2568661D01*
X6425822Y-3208244D01*
X6726763Y-3350152D01*
X7948395Y-2128520D01*
X8307605Y-2128520D01*
X9529237Y-3350152D01*
X9830178Y-3208244D01*
X10026150Y-2701365D01*
X20112970Y-2701365D01*
X20828000Y-3416395D01*
X21519948Y-2724447D01*
X35797052Y-2724447D01*
X38354000Y-5281395D01*
X40910948Y-2724447D01*
X40543563Y-2231260D01*
X39140925Y-1639200D01*
X37618484Y-1628973D01*
X36208019Y-2202139D01*
X36164437Y-2231260D01*
X35797052Y-2724447D01*
X21519948Y-2724447D01*
X21543030Y-2701365D01*
X21486912Y-2473020D01*
X21007009Y-2306347D01*
X20499854Y-2336012D01*
X20169088Y-2473020D01*
X20112970Y-2701365D01*
X10026150Y-2701365D01*
X10113801Y-2474660D01*
X10095102Y-1688379D01*
X9830178Y-1048796D01*
X9529237Y-906888D01*
X8307605Y-2128520D01*
X7948395Y-2128520D01*
X6726763Y-906888D01*
X6425822Y-1048796D01*
X6142199Y-1782380D01*
X702000Y-1782380D01*
X702000Y-702000D01*
X6918290Y-702000D01*
X6906368Y-727283D01*
X6906368Y-727283D01*
G37*
X6906368Y-727283D02*
X8128000Y-1948915D01*
X9349632Y-727283D01*
X9337710Y-702000D01*
X42986000Y-702000D01*
X42986000Y-62798000D01*
X6172422Y-62798000D01*
X6301792Y-62605238D01*
X4249420Y-60552865D01*
X2197048Y-62605238D01*
X2326418Y-62798000D01*
X702000Y-62798000D01*
X702000Y-59752907D01*
X1121438Y-59752907D01*
X1122143Y-60997155D01*
X1596941Y-62143418D01*
X2017442Y-62425632D01*
X4069815Y-60373260D01*
X4429025Y-60373260D01*
X6481398Y-62425632D01*
X6901899Y-62143418D01*
X7377402Y-60993613D01*
X7376697Y-59749365D01*
X6901899Y-58603102D01*
X6481398Y-58320888D01*
X4429025Y-60373260D01*
X4069815Y-60373260D01*
X2017442Y-58320888D01*
X1596941Y-58603102D01*
X1121438Y-59752907D01*
X702000Y-59752907D01*
X702000Y-58141282D01*
X2197048Y-58141282D01*
X4249420Y-60193655D01*
X6301792Y-58141282D01*
X6019578Y-57720781D01*
X4869773Y-57245278D01*
X3625525Y-57245983D01*
X2479262Y-57720781D01*
X2197048Y-58141282D01*
X702000Y-58141282D01*
X702000Y-54307141D01*
X3403464Y-54307141D01*
X3471891Y-54545833D01*
X3988082Y-54729235D01*
X4535166Y-54701140D01*
X4910109Y-54545833D01*
X4978536Y-54307141D01*
X4191000Y-53519605D01*
X3403464Y-54307141D01*
X702000Y-54307141D01*
X702000Y-53195416D01*
X869974Y-53363683D01*
X1375896Y-53573760D01*
X1923701Y-53574238D01*
X2429989Y-53365044D01*
X2658349Y-53137082D01*
X2801765Y-53137082D01*
X2829860Y-53684166D01*
X2985167Y-54059109D01*
X3223859Y-54127536D01*
X4011395Y-53340000D01*
X4370605Y-53340000D01*
X5158141Y-54127536D01*
X5396833Y-54059109D01*
X5580235Y-53542918D01*
X5552140Y-52995834D01*
X5396833Y-52620891D01*
X5158141Y-52552464D01*
X4370605Y-53340000D01*
X4011395Y-53340000D01*
X3223859Y-52552464D01*
X2985167Y-52620891D01*
X2801765Y-53137082D01*
X2658349Y-53137082D01*
X2817683Y-52978026D01*
X3027760Y-52472104D01*
X3028153Y-52021141D01*
X3403464Y-52021141D01*
X3453878Y-52197000D01*
X3403464Y-52372859D01*
X4191000Y-53160395D01*
X4978536Y-52372859D01*
X4928122Y-52197000D01*
X4978536Y-52021141D01*
X4191000Y-51233605D01*
X3403464Y-52021141D01*
X3028153Y-52021141D01*
X3028238Y-51924299D01*
X2819044Y-51418011D01*
X2455373Y-51053705D01*
X2658349Y-50851082D01*
X2801765Y-50851082D01*
X2829860Y-51398166D01*
X2985167Y-51773109D01*
X3223859Y-51841536D01*
X4011395Y-51054000D01*
X4370605Y-51054000D01*
X5158141Y-51841536D01*
X5396833Y-51773109D01*
X5580235Y-51256918D01*
X5552140Y-50709834D01*
X5396833Y-50334891D01*
X5158141Y-50266464D01*
X4370605Y-51054000D01*
X4011395Y-51054000D01*
X3223859Y-50266464D01*
X2985167Y-50334891D01*
X2801765Y-50851082D01*
X2658349Y-50851082D01*
X2817683Y-50692026D01*
X3027760Y-50186104D01*
X3028153Y-49735141D01*
X3403464Y-49735141D01*
X3453878Y-49911000D01*
X3403464Y-50086859D01*
X4191000Y-50874395D01*
X4978536Y-50086859D01*
X4928122Y-49911000D01*
X4978536Y-49735141D01*
X4191000Y-48947605D01*
X3403464Y-49735141D01*
X3028153Y-49735141D01*
X3028238Y-49638299D01*
X2819044Y-49132011D01*
X2455373Y-48767705D01*
X2658349Y-48565082D01*
X2801765Y-48565082D01*
X2829860Y-49112166D01*
X2985167Y-49487109D01*
X3223859Y-49555536D01*
X4011395Y-48768000D01*
X4370605Y-48768000D01*
X5158141Y-49555536D01*
X5396833Y-49487109D01*
X5580235Y-48970918D01*
X5552140Y-48423834D01*
X5396833Y-48048891D01*
X5158141Y-47980464D01*
X4370605Y-48768000D01*
X4011395Y-48768000D01*
X3223859Y-47980464D01*
X2985167Y-48048891D01*
X2801765Y-48565082D01*
X2658349Y-48565082D01*
X2817683Y-48406026D01*
X3027760Y-47900104D01*
X3028238Y-47352299D01*
X2819044Y-46846011D01*
X2727894Y-46754701D01*
X2813762Y-46754701D01*
X3022956Y-47260989D01*
X3409974Y-47648683D01*
X3443141Y-47662455D01*
X3403464Y-47800859D01*
X4191000Y-48588395D01*
X4978536Y-47800859D01*
X4938975Y-47662859D01*
X4969989Y-47650044D01*
X5357683Y-47263026D01*
X5567760Y-46757104D01*
X5568238Y-46209299D01*
X5359044Y-45703011D01*
X5267894Y-45611701D01*
X5353762Y-45611701D01*
X5562956Y-46117989D01*
X5926627Y-46482295D01*
X5564317Y-46843974D01*
X5354240Y-47349896D01*
X5353762Y-47897701D01*
X5562956Y-48403989D01*
X5926627Y-48768295D01*
X5564317Y-49129974D01*
X5354240Y-49635896D01*
X5353762Y-50183701D01*
X5562956Y-50689989D01*
X5926627Y-51054295D01*
X5564317Y-51415974D01*
X5354240Y-51921896D01*
X5353762Y-52469701D01*
X5562956Y-52975989D01*
X5949974Y-53363683D01*
X6455896Y-53573760D01*
X7003701Y-53574238D01*
X7509989Y-53365044D01*
X7897683Y-52978026D01*
X7909736Y-52949000D01*
X12358278Y-52949000D01*
X12421669Y-53102417D01*
X12682211Y-53363414D01*
X13022799Y-53504839D01*
X13391583Y-53505161D01*
X13732417Y-53364331D01*
X13993414Y-53103789D01*
X14134839Y-52763201D01*
X14135161Y-52394417D01*
X13994331Y-52053583D01*
X13733789Y-51792586D01*
X13393201Y-51651161D01*
X13337577Y-51651112D01*
X13261152Y-51600047D01*
X13391583Y-51600161D01*
X13732417Y-51459331D01*
X13993414Y-51198789D01*
X14134839Y-50858201D01*
X14135161Y-50489417D01*
X13994331Y-50148583D01*
X13733789Y-49887586D01*
X13393201Y-49746161D01*
X13344607Y-49746119D01*
X13293563Y-49695075D01*
X13391583Y-49695161D01*
X13732417Y-49554331D01*
X13993414Y-49293789D01*
X14134839Y-48953201D01*
X14135161Y-48584417D01*
X13994331Y-48243583D01*
X13733789Y-47982586D01*
X13393201Y-47841161D01*
X13344607Y-47841119D01*
X12596744Y-47093256D01*
X12352778Y-46930243D01*
X12065000Y-46873000D01*
X7910196Y-46873000D01*
X7899044Y-46846011D01*
X7535373Y-46481705D01*
X7897683Y-46120026D01*
X8107760Y-45614104D01*
X8108238Y-45066299D01*
X7899044Y-44560011D01*
X7512026Y-44172317D01*
X7478859Y-44158545D01*
X7518536Y-44020141D01*
X6731000Y-43232605D01*
X5943464Y-44020141D01*
X5983025Y-44158141D01*
X5952011Y-44170956D01*
X5564317Y-44557974D01*
X5354240Y-45063896D01*
X5353762Y-45611701D01*
X5267894Y-45611701D01*
X4972026Y-45315317D01*
X4938859Y-45301545D01*
X4978536Y-45163141D01*
X4191000Y-44375605D01*
X3403464Y-45163141D01*
X3443025Y-45301141D01*
X3412011Y-45313956D01*
X3024317Y-45700974D01*
X2814240Y-46206896D01*
X2813762Y-46754701D01*
X2727894Y-46754701D01*
X2455373Y-46481705D01*
X2817683Y-46120026D01*
X3027760Y-45614104D01*
X3028238Y-45066299D01*
X2819044Y-44560011D01*
X2455373Y-44195705D01*
X2658349Y-43993082D01*
X2801765Y-43993082D01*
X2829860Y-44540166D01*
X2985167Y-44915109D01*
X3223859Y-44983536D01*
X4011395Y-44196000D01*
X4370605Y-44196000D01*
X5158141Y-44983536D01*
X5396833Y-44915109D01*
X5580235Y-44398918D01*
X5552140Y-43851834D01*
X5396833Y-43476891D01*
X5158141Y-43408464D01*
X4370605Y-44196000D01*
X4011395Y-44196000D01*
X3223859Y-43408464D01*
X2985167Y-43476891D01*
X2801765Y-43993082D01*
X2658349Y-43993082D01*
X2817683Y-43834026D01*
X3027760Y-43328104D01*
X3027846Y-43228859D01*
X3403464Y-43228859D01*
X4191000Y-44016395D01*
X4978536Y-43228859D01*
X4910109Y-42990167D01*
X4515836Y-42850082D01*
X5341765Y-42850082D01*
X5369860Y-43397166D01*
X5525167Y-43772109D01*
X5763859Y-43840536D01*
X6551395Y-43053000D01*
X6910605Y-43053000D01*
X7698141Y-43840536D01*
X7936833Y-43772109D01*
X8120235Y-43255918D01*
X8092140Y-42708834D01*
X7936833Y-42333891D01*
X7698141Y-42265464D01*
X6910605Y-43053000D01*
X6551395Y-43053000D01*
X5763859Y-42265464D01*
X5525167Y-42333891D01*
X5341765Y-42850082D01*
X4515836Y-42850082D01*
X4393918Y-42806765D01*
X3846834Y-42834860D01*
X3471891Y-42990167D01*
X3403464Y-43228859D01*
X3027846Y-43228859D01*
X3028238Y-42780299D01*
X2819044Y-42274011D01*
X2631221Y-42085859D01*
X5943464Y-42085859D01*
X6731000Y-42873395D01*
X7518536Y-42085859D01*
X7450109Y-41847167D01*
X6933918Y-41663765D01*
X6386834Y-41691860D01*
X6011891Y-41847167D01*
X5943464Y-42085859D01*
X2631221Y-42085859D01*
X2432026Y-41886317D01*
X1926104Y-41676240D01*
X1378299Y-41675762D01*
X872011Y-41884956D01*
X702000Y-42054671D01*
X702000Y-37616718D01*
X2197048Y-37616718D01*
X2479262Y-38037219D01*
X3629067Y-38512722D01*
X4873315Y-38512017D01*
X6019578Y-38037219D01*
X6301792Y-37616718D01*
X4249420Y-35564345D01*
X2197048Y-37616718D01*
X702000Y-37616718D01*
X702000Y-34764387D01*
X1121438Y-34764387D01*
X1122143Y-36008635D01*
X1596941Y-37154898D01*
X2017442Y-37437112D01*
X4069815Y-35384740D01*
X4429025Y-35384740D01*
X6481398Y-37437112D01*
X6901899Y-37154898D01*
X7377402Y-36005093D01*
X7377289Y-35804873D01*
X14370192Y-35804873D01*
X14579472Y-36311371D01*
X14966651Y-36699226D01*
X15472782Y-36909390D01*
X16020813Y-36909868D01*
X16527311Y-36700588D01*
X16915166Y-36313409D01*
X17125330Y-35807278D01*
X17125808Y-35259247D01*
X16916528Y-34752749D01*
X16529349Y-34364894D01*
X16023218Y-34154730D01*
X15475187Y-34154252D01*
X14968689Y-34363532D01*
X14580834Y-34750711D01*
X14370670Y-35256842D01*
X14370192Y-35804873D01*
X7377289Y-35804873D01*
X7376697Y-34760845D01*
X6901899Y-33614582D01*
X6481398Y-33332368D01*
X4429025Y-35384740D01*
X4069815Y-35384740D01*
X2017442Y-33332368D01*
X1596941Y-33614582D01*
X1121438Y-34764387D01*
X702000Y-34764387D01*
X702000Y-33152762D01*
X2197048Y-33152762D01*
X4249420Y-35205135D01*
X6301792Y-33152762D01*
X6019578Y-32732261D01*
X5337048Y-32450000D01*
X5786000Y-32450000D01*
X5786000Y-30950000D01*
X6040000Y-30950000D01*
X6040000Y-32450000D01*
X6790000Y-32450000D01*
X7402959Y-32277551D01*
X7903266Y-31883660D01*
X8214753Y-31328293D01*
X8245199Y-31202179D01*
X8127755Y-30950000D01*
X6040000Y-30950000D01*
X5786000Y-30950000D01*
X3698245Y-30950000D01*
X3580801Y-31202179D01*
X3611247Y-31328293D01*
X3922734Y-31883660D01*
X4396971Y-32257026D01*
X3625525Y-32257463D01*
X2479262Y-32732261D01*
X2197048Y-33152762D01*
X702000Y-33152762D01*
X702000Y-30443821D01*
X3580801Y-30443821D01*
X3698245Y-30696000D01*
X5786000Y-30696000D01*
X5786000Y-29196000D01*
X6040000Y-29196000D01*
X6040000Y-30696000D01*
X8127755Y-30696000D01*
X8245199Y-30443821D01*
X8214753Y-30317707D01*
X7903266Y-29762340D01*
X7402959Y-29368449D01*
X6790000Y-29196000D01*
X6040000Y-29196000D01*
X5786000Y-29196000D01*
X5036000Y-29196000D01*
X4423041Y-29368449D01*
X3922734Y-29762340D01*
X3611247Y-30317707D01*
X3580801Y-30443821D01*
X702000Y-30443821D01*
X702000Y-28376370D01*
X7939235Y-28376370D01*
X8013807Y-28620241D01*
X8548134Y-28812005D01*
X9115173Y-28784692D01*
X9512193Y-28620241D01*
X9586765Y-28376370D01*
X8763000Y-27552605D01*
X7939235Y-28376370D01*
X702000Y-28376370D01*
X702000Y-24100000D01*
X3486000Y-24100000D01*
X3486000Y-25100000D01*
X3658449Y-25712959D01*
X4052340Y-26213266D01*
X4607707Y-26524753D01*
X4733821Y-26555199D01*
X4986000Y-26437755D01*
X4986000Y-24100000D01*
X5240000Y-24100000D01*
X5240000Y-26437755D01*
X5492179Y-26555199D01*
X5618293Y-26524753D01*
X6173660Y-26213266D01*
X6567551Y-25712959D01*
X6740000Y-25100000D01*
X6740000Y-24473000D01*
X7323717Y-24473000D01*
X7323717Y-26073000D01*
X7367437Y-26305352D01*
X7504757Y-26518753D01*
X7614374Y-26593652D01*
X7515759Y-26623807D01*
X7323995Y-27158134D01*
X7351308Y-27725173D01*
X7515759Y-28122193D01*
X7759630Y-28196765D01*
X8583395Y-27373000D01*
X8569253Y-27358858D01*
X8748858Y-27179253D01*
X8763000Y-27193395D01*
X8777143Y-27179253D01*
X8956748Y-27358858D01*
X8942605Y-27373000D01*
X9766370Y-28196765D01*
X10010241Y-28122193D01*
X10158199Y-27709927D01*
X10352543Y-28180275D01*
X10753614Y-28582047D01*
X11277907Y-28799752D01*
X11845603Y-28800248D01*
X12370275Y-28583457D01*
X12772047Y-28182386D01*
X12989752Y-27658093D01*
X12990248Y-27090397D01*
X12773457Y-26565725D01*
X12372386Y-26163953D01*
X11848093Y-25946248D01*
X11280397Y-25945752D01*
X10755725Y-26162543D01*
X10353953Y-26563614D01*
X10169404Y-27008059D01*
X10010241Y-26623807D01*
X9911721Y-26593681D01*
X10008753Y-26531243D01*
X10151917Y-26321717D01*
X10202283Y-26073000D01*
X10202283Y-24473000D01*
X10158563Y-24240648D01*
X10021243Y-24027247D01*
X9811717Y-23884083D01*
X9610472Y-23843330D01*
X9972047Y-23482386D01*
X10189752Y-22958093D01*
X10190248Y-22390397D01*
X9973457Y-21865725D01*
X9731084Y-21622928D01*
X9972047Y-21382386D01*
X10163201Y-20922035D01*
X10352543Y-21380275D01*
X10753614Y-21782047D01*
X11277907Y-21999752D01*
X11845603Y-22000248D01*
X12370275Y-21783457D01*
X12772047Y-21382386D01*
X12989752Y-20858093D01*
X12990248Y-20290397D01*
X12773457Y-19765725D01*
X12372386Y-19363953D01*
X11848093Y-19146248D01*
X11280397Y-19145752D01*
X10755725Y-19362543D01*
X10353953Y-19763614D01*
X10162799Y-20223965D01*
X9973457Y-19765725D01*
X9572386Y-19363953D01*
X9048093Y-19146248D01*
X8480397Y-19145752D01*
X7955725Y-19362543D01*
X7553953Y-19763614D01*
X7336248Y-20287907D01*
X7335752Y-20855603D01*
X7552543Y-21380275D01*
X7794916Y-21623072D01*
X7553953Y-21863614D01*
X7336248Y-22387907D01*
X7335752Y-22955603D01*
X7552543Y-23480275D01*
X7914482Y-23842846D01*
X7730648Y-23877437D01*
X7517247Y-24014757D01*
X7374083Y-24224283D01*
X7323717Y-24473000D01*
X6740000Y-24473000D01*
X6740000Y-24100000D01*
X5240000Y-24100000D01*
X4986000Y-24100000D01*
X3486000Y-24100000D01*
X702000Y-24100000D01*
X702000Y-22846000D01*
X3486000Y-22846000D01*
X3486000Y-23846000D01*
X4986000Y-23846000D01*
X4986000Y-21508245D01*
X5240000Y-21508245D01*
X5240000Y-23846000D01*
X6740000Y-23846000D01*
X6740000Y-22846000D01*
X6567551Y-22233041D01*
X6173660Y-21732734D01*
X5618293Y-21421247D01*
X5492179Y-21390801D01*
X5240000Y-21508245D01*
X4986000Y-21508245D01*
X4733821Y-21390801D01*
X4607707Y-21421247D01*
X4052340Y-21732734D01*
X3658449Y-22233041D01*
X3486000Y-22846000D01*
X702000Y-22846000D01*
X702000Y-17502179D01*
X3580801Y-17502179D01*
X3611247Y-17628293D01*
X3922734Y-18183660D01*
X4423041Y-18577551D01*
X5036000Y-18750000D01*
X5786000Y-18750000D01*
X5786000Y-17250000D01*
X6040000Y-17250000D01*
X6040000Y-18750000D01*
X6790000Y-18750000D01*
X7402959Y-18577551D01*
X7903266Y-18183660D01*
X8214753Y-17628293D01*
X8245199Y-17502179D01*
X8127755Y-17250000D01*
X6040000Y-17250000D01*
X5786000Y-17250000D01*
X3698245Y-17250000D01*
X3580801Y-17502179D01*
X702000Y-17502179D01*
X702000Y-16743821D01*
X3580801Y-16743821D01*
X3698245Y-16996000D01*
X5786000Y-16996000D01*
X5786000Y-15496000D01*
X6040000Y-15496000D01*
X6040000Y-16996000D01*
X8127755Y-16996000D01*
X8245199Y-16743821D01*
X8214753Y-16617707D01*
X7929863Y-16109761D01*
X8568141Y-16094582D01*
X9207724Y-15829658D01*
X9349632Y-15528717D01*
X8128000Y-14307085D01*
X8113858Y-14321228D01*
X7934253Y-14141623D01*
X7948395Y-14127480D01*
X8307605Y-14127480D01*
X9529237Y-15349112D01*
X9830178Y-15207204D01*
X10113801Y-14473620D01*
X10095102Y-13687339D01*
X9830178Y-13047756D01*
X9529237Y-12905848D01*
X8307605Y-14127480D01*
X7948395Y-14127480D01*
X6726763Y-12905848D01*
X6425822Y-13047756D01*
X6142199Y-13781340D01*
X6160898Y-14567621D01*
X6425822Y-15207204D01*
X6726761Y-15349111D01*
X6614610Y-15461262D01*
X6649348Y-15496000D01*
X6040000Y-15496000D01*
X5786000Y-15496000D01*
X5036000Y-15496000D01*
X4423041Y-15668449D01*
X3922734Y-16062340D01*
X3611247Y-16617707D01*
X3580801Y-16743821D01*
X702000Y-16743821D01*
X702000Y-12726243D01*
X6906368Y-12726243D01*
X8128000Y-13947875D01*
X9349632Y-12726243D01*
X9207724Y-12425302D01*
X8474140Y-12141679D01*
X7687859Y-12160378D01*
X7048276Y-12425302D01*
X6906368Y-12726243D01*
X702000Y-12726243D01*
X702000Y-9681750D01*
X9439020Y-9681750D01*
X9439020Y-10538718D01*
X9534475Y-10769167D01*
X9710853Y-10945545D01*
X9941302Y-11041000D01*
X10544270Y-11041000D01*
X10701020Y-10884250D01*
X10701020Y-9525000D01*
X9595770Y-9525000D01*
X9439020Y-9681750D01*
X702000Y-9681750D01*
X702000Y-5842000D01*
X9426737Y-5842000D01*
X9426737Y-7874000D01*
X9470457Y-8106352D01*
X9489366Y-8135737D01*
X9439020Y-8257282D01*
X9439020Y-9114250D01*
X9595770Y-9271000D01*
X10701020Y-9271000D01*
X10701020Y-9251000D01*
X10955020Y-9251000D01*
X10955020Y-9271000D01*
X10975020Y-9271000D01*
X10975020Y-9525000D01*
X10955020Y-9525000D01*
X10955020Y-10884250D01*
X11111770Y-11041000D01*
X11714738Y-11041000D01*
X11812658Y-11000440D01*
X11816283Y-11002917D01*
X12000000Y-11040120D01*
X12000000Y-16129000D01*
X12062952Y-16445479D01*
X12242223Y-16713777D01*
X13211249Y-17682803D01*
X13310669Y-17923417D01*
X13571211Y-18184414D01*
X13911799Y-18325839D01*
X14280583Y-18326161D01*
X14621417Y-18185331D01*
X14882414Y-17924789D01*
X15023839Y-17584201D01*
X15024161Y-17215417D01*
X14883331Y-16874583D01*
X14622789Y-16613586D01*
X14380556Y-16513002D01*
X13654000Y-15786446D01*
X13654000Y-11041052D01*
X13821352Y-11009563D01*
X14034753Y-10872243D01*
X14177917Y-10662717D01*
X14228283Y-10414000D01*
X14228283Y-8382000D01*
X14210847Y-8289335D01*
X16266000Y-10344488D01*
X16266000Y-18552000D01*
X15164145Y-18552000D01*
X15130789Y-18518586D01*
X14790201Y-18377161D01*
X14421417Y-18376839D01*
X14080583Y-18517669D01*
X13819586Y-18778211D01*
X13678161Y-19118799D01*
X13677839Y-19487583D01*
X13818669Y-19828417D01*
X14079211Y-20089414D01*
X14419799Y-20230839D01*
X14788583Y-20231161D01*
X15129417Y-20090331D01*
X15163808Y-20056000D01*
X16325512Y-20056000D01*
X19949000Y-23679488D01*
X19949000Y-25489512D01*
X19723120Y-25263631D01*
X19723161Y-25216417D01*
X19582331Y-24875583D01*
X19321789Y-24614586D01*
X18981201Y-24473161D01*
X18612417Y-24472839D01*
X18271583Y-24613669D01*
X18010586Y-24874211D01*
X17869161Y-25214799D01*
X17868839Y-25583583D01*
X18009669Y-25924417D01*
X18270211Y-26185414D01*
X18610799Y-26326839D01*
X18659393Y-26326881D01*
X19441000Y-27108489D01*
X19441000Y-30188511D01*
X18580120Y-29327632D01*
X18580161Y-29280417D01*
X18439331Y-28939583D01*
X18178789Y-28678586D01*
X17838201Y-28537161D01*
X17469417Y-28536839D01*
X17128583Y-28677669D01*
X16867586Y-28938211D01*
X16726161Y-29278799D01*
X16725839Y-29647583D01*
X16866669Y-29988417D01*
X17127211Y-30249414D01*
X17467799Y-30390839D01*
X17516393Y-30390881D01*
X18425000Y-31299489D01*
X18425000Y-33617119D01*
X18104417Y-33616839D01*
X17763583Y-33757669D01*
X17502586Y-34018211D01*
X17361161Y-34358799D01*
X17360839Y-34727583D01*
X17501669Y-35068417D01*
X17536000Y-35102808D01*
X17536000Y-40080855D01*
X17502586Y-40114211D01*
X17361161Y-40454799D01*
X17360839Y-40823583D01*
X17461000Y-41065991D01*
X17461000Y-42672000D01*
X17523952Y-42988479D01*
X17703223Y-43256777D01*
X19405795Y-44959349D01*
X19160583Y-45060669D01*
X19113647Y-45107524D01*
X19067789Y-45061586D01*
X18727201Y-44920161D01*
X18358417Y-44919839D01*
X18017583Y-45060669D01*
X17970647Y-45107524D01*
X17924789Y-45061586D01*
X17584201Y-44920161D01*
X17215417Y-44919839D01*
X16874583Y-45060669D01*
X16613586Y-45321211D01*
X16500000Y-45594755D01*
X16500000Y-42977145D01*
X16533414Y-42943789D01*
X16674839Y-42603201D01*
X16675161Y-42234417D01*
X16534331Y-41893583D01*
X16312402Y-41671266D01*
X16527311Y-41582468D01*
X16915166Y-41195289D01*
X17125330Y-40689158D01*
X17125808Y-40141127D01*
X16916528Y-39634629D01*
X16529349Y-39246774D01*
X16023218Y-39036610D01*
X15475187Y-39036132D01*
X14968689Y-39245412D01*
X14580834Y-39632591D01*
X14370670Y-40138722D01*
X14370192Y-40686753D01*
X14579472Y-41193251D01*
X14966651Y-41581106D01*
X15183877Y-41671306D01*
X14962586Y-41892211D01*
X14821161Y-42232799D01*
X14820839Y-42601583D01*
X14961669Y-42942417D01*
X14996000Y-42976808D01*
X14996000Y-48768000D01*
X15053243Y-49055778D01*
X15216256Y-49299744D01*
X17121256Y-51204744D01*
X17365222Y-51367757D01*
X17653000Y-51425000D01*
X18998855Y-51425000D01*
X19032211Y-51458414D01*
X19372799Y-51599839D01*
X19741583Y-51600161D01*
X20082417Y-51459331D01*
X20343414Y-51198789D01*
X20484839Y-50858201D01*
X20485161Y-50489417D01*
X20344331Y-50148583D01*
X20083789Y-49887586D01*
X19743201Y-49746161D01*
X19374417Y-49745839D01*
X19033583Y-49886669D01*
X18999192Y-49921000D01*
X17964488Y-49921000D01*
X16500000Y-48456512D01*
X16500000Y-46098738D01*
X16612669Y-46371417D01*
X16873211Y-46632414D01*
X17213799Y-46773839D01*
X17262393Y-46773881D01*
X26138256Y-55649744D01*
X26382222Y-55812757D01*
X26670000Y-55870000D01*
X26838066Y-55870000D01*
X26533662Y-56325572D01*
X26420197Y-56896000D01*
X26533662Y-57466428D01*
X26856784Y-57950013D01*
X27180031Y-58166000D01*
X26856784Y-58381987D01*
X26533662Y-58865572D01*
X26420197Y-59436000D01*
X26533662Y-60006428D01*
X26856784Y-60490013D01*
X27340369Y-60813135D01*
X27910797Y-60926600D01*
X27969203Y-60926600D01*
X28539631Y-60813135D01*
X29023216Y-60490013D01*
X29209018Y-60211942D01*
X29595705Y-60635976D01*
X30122229Y-60883038D01*
X30353000Y-60764440D01*
X30353000Y-59563000D01*
X30607000Y-59563000D01*
X30607000Y-60764440D01*
X30837771Y-60883038D01*
X31364295Y-60635976D01*
X31750000Y-60213019D01*
X32135705Y-60635976D01*
X32662229Y-60883038D01*
X32893000Y-60764440D01*
X32893000Y-59563000D01*
X33147000Y-59563000D01*
X33147000Y-60764440D01*
X33377771Y-60883038D01*
X33904295Y-60635976D01*
X34290000Y-60213019D01*
X34675705Y-60635976D01*
X35202229Y-60883038D01*
X35433000Y-60764440D01*
X35433000Y-59563000D01*
X33147000Y-59563000D01*
X32893000Y-59563000D01*
X30607000Y-59563000D01*
X30353000Y-59563000D01*
X30333000Y-59563000D01*
X30333000Y-59309000D01*
X30353000Y-59309000D01*
X30353000Y-59289000D01*
X30607000Y-59289000D01*
X30607000Y-59309000D01*
X32893000Y-59309000D01*
X32893000Y-59289000D01*
X33147000Y-59289000D01*
X33147000Y-59309000D01*
X35433000Y-59309000D01*
X35433000Y-59289000D01*
X35687000Y-59289000D01*
X35687000Y-59309000D01*
X35707000Y-59309000D01*
X35707000Y-59563000D01*
X35687000Y-59563000D01*
X35687000Y-60764440D01*
X35917771Y-60883038D01*
X36444295Y-60635976D01*
X36830982Y-60211942D01*
X37016784Y-60490013D01*
X37500369Y-60813135D01*
X38070797Y-60926600D01*
X38129203Y-60926600D01*
X38699631Y-60813135D01*
X39183216Y-60490013D01*
X39334902Y-60263000D01*
X39751000Y-60263000D01*
X40067479Y-60200048D01*
X40335777Y-60020777D01*
X40716777Y-59639778D01*
X40896048Y-59371479D01*
X40908476Y-59309000D01*
X40959000Y-59055000D01*
X40959000Y-55372000D01*
X40896048Y-55055521D01*
X40716777Y-54787223D01*
X39700777Y-53771223D01*
X39432479Y-53591952D01*
X39116000Y-53529000D01*
X38061554Y-53529000D01*
X35726581Y-51194027D01*
X35797053Y-51123555D01*
X36164437Y-51616740D01*
X37567075Y-52208800D01*
X39089516Y-52219027D01*
X40499981Y-51645861D01*
X40543563Y-51616740D01*
X40910948Y-51123553D01*
X38354000Y-48566605D01*
X38339858Y-48580748D01*
X38160253Y-48401143D01*
X38174395Y-48387000D01*
X38533605Y-48387000D01*
X41090553Y-50943948D01*
X41583740Y-50576563D01*
X42175800Y-49173925D01*
X42186027Y-47651484D01*
X41612861Y-46241019D01*
X41583740Y-46197437D01*
X41090553Y-45830052D01*
X38533605Y-48387000D01*
X38174395Y-48387000D01*
X35617447Y-45830052D01*
X35124260Y-46197437D01*
X34532200Y-47600075D01*
X34521973Y-49122516D01*
X35095139Y-50532981D01*
X35124260Y-50576563D01*
X35617445Y-50943947D01*
X35546973Y-51014419D01*
X34482000Y-49949446D01*
X34482000Y-45935554D01*
X34767107Y-45650447D01*
X35797052Y-45650447D01*
X38354000Y-48207395D01*
X40910948Y-45650447D01*
X40543563Y-45157260D01*
X39140925Y-44565200D01*
X37618484Y-44554973D01*
X36208019Y-45128139D01*
X36164437Y-45157260D01*
X35797052Y-45650447D01*
X34767107Y-45650447D01*
X37160777Y-43256777D01*
X37305657Y-43039948D01*
X37459283Y-43144917D01*
X37708000Y-43195283D01*
X39508000Y-43195283D01*
X39740352Y-43151563D01*
X39953753Y-43014243D01*
X40096917Y-42804717D01*
X40097171Y-42803465D01*
X40138657Y-42844951D01*
X40251818Y-42731790D01*
X40338663Y-42986023D01*
X40909248Y-43194501D01*
X41516181Y-43168756D01*
X41957337Y-42986023D01*
X42044183Y-42731788D01*
X41148000Y-41835605D01*
X41133858Y-41849748D01*
X40954253Y-41670143D01*
X40968395Y-41656000D01*
X41327605Y-41656000D01*
X42223788Y-42552183D01*
X42478023Y-42465337D01*
X42686501Y-41894752D01*
X42660756Y-41287819D01*
X42478023Y-40846663D01*
X42223788Y-40759817D01*
X41327605Y-41656000D01*
X40968395Y-41656000D01*
X40954253Y-41641858D01*
X41133858Y-41462253D01*
X41148000Y-41476395D01*
X42044183Y-40580212D01*
X41957337Y-40325977D01*
X41386752Y-40117499D01*
X40779819Y-40143244D01*
X40338663Y-40325977D01*
X40251818Y-40580210D01*
X40138657Y-40467049D01*
X40095143Y-40510563D01*
X39966243Y-40310247D01*
X39756717Y-40167083D01*
X39508000Y-40116717D01*
X37708000Y-40116717D01*
X37475648Y-40160437D01*
X37403000Y-40207185D01*
X37403000Y-38026460D01*
X37459283Y-38064917D01*
X37708000Y-38115283D01*
X39508000Y-38115283D01*
X39740352Y-38071563D01*
X39953753Y-37934243D01*
X40096917Y-37724717D01*
X40097171Y-37723465D01*
X40138657Y-37764951D01*
X40251818Y-37651790D01*
X40338663Y-37906023D01*
X40909248Y-38114501D01*
X41516181Y-38088756D01*
X41957337Y-37906023D01*
X42044183Y-37651788D01*
X41148000Y-36755605D01*
X41133858Y-36769748D01*
X40954253Y-36590143D01*
X40968395Y-36576000D01*
X41327605Y-36576000D01*
X42223788Y-37472183D01*
X42478023Y-37385337D01*
X42686501Y-36814752D01*
X42660756Y-36207819D01*
X42478023Y-35766663D01*
X42223788Y-35679817D01*
X41327605Y-36576000D01*
X40968395Y-36576000D01*
X40954253Y-36561858D01*
X41133858Y-36382253D01*
X41148000Y-36396395D01*
X42044183Y-35500212D01*
X41957337Y-35245977D01*
X41386752Y-35037499D01*
X40779819Y-35063244D01*
X40338663Y-35245977D01*
X40251818Y-35500210D01*
X40138657Y-35387049D01*
X40095143Y-35430563D01*
X39966243Y-35230247D01*
X39756717Y-35087083D01*
X39508000Y-35036717D01*
X37708000Y-35036717D01*
X37475648Y-35080437D01*
X37403000Y-35127185D01*
X37403000Y-33454460D01*
X37459283Y-33492917D01*
X37708000Y-33543283D01*
X39508000Y-33543283D01*
X39740352Y-33499563D01*
X39953753Y-33362243D01*
X40096917Y-33152717D01*
X40097171Y-33151465D01*
X40138657Y-33192951D01*
X40251818Y-33079790D01*
X40338663Y-33334023D01*
X40909248Y-33542501D01*
X41516181Y-33516756D01*
X41957337Y-33334023D01*
X42044183Y-33079788D01*
X41148000Y-32183605D01*
X41133858Y-32197748D01*
X40954253Y-32018143D01*
X40968395Y-32004000D01*
X41327605Y-32004000D01*
X42223788Y-32900183D01*
X42478023Y-32813337D01*
X42686501Y-32242752D01*
X42660756Y-31635819D01*
X42478023Y-31194663D01*
X42223788Y-31107817D01*
X41327605Y-32004000D01*
X40968395Y-32004000D01*
X40954253Y-31989858D01*
X41133858Y-31810253D01*
X41148000Y-31824395D01*
X42044183Y-30928212D01*
X41957337Y-30673977D01*
X41386752Y-30465499D01*
X40779819Y-30491244D01*
X40338663Y-30673977D01*
X40251818Y-30928210D01*
X40138657Y-30815049D01*
X40095143Y-30858563D01*
X39966243Y-30658247D01*
X39756717Y-30515083D01*
X39508000Y-30464717D01*
X37760837Y-30464717D01*
X40081777Y-28143777D01*
X40261048Y-27875479D01*
X40324000Y-27559000D01*
X40324000Y-17399000D01*
X40261048Y-17082521D01*
X40203237Y-16996000D01*
X40081778Y-16814223D01*
X37414777Y-14147223D01*
X37146479Y-13967952D01*
X36830000Y-13905000D01*
X26714639Y-13905000D01*
X26474201Y-13805161D01*
X26105417Y-13804839D01*
X25764583Y-13945669D01*
X25503586Y-14206211D01*
X25362161Y-14546799D01*
X25361839Y-14915583D01*
X25502669Y-15256417D01*
X25763211Y-15517414D01*
X26103799Y-15658839D01*
X26472583Y-15659161D01*
X26714991Y-15559000D01*
X36487446Y-15559000D01*
X38670000Y-17741555D01*
X38670000Y-27216446D01*
X36350739Y-29535707D01*
X36324048Y-29401521D01*
X36242048Y-29278799D01*
X36144778Y-29133223D01*
X34609000Y-27597446D01*
X34609000Y-23075554D01*
X35256061Y-22428493D01*
X35521718Y-22606000D01*
X35131166Y-22866959D01*
X34821831Y-23329911D01*
X34713207Y-23876000D01*
X34821831Y-24422089D01*
X35131166Y-24885041D01*
X35521718Y-25146000D01*
X35131166Y-25406959D01*
X34821831Y-25869911D01*
X34713207Y-26416000D01*
X34821831Y-26962089D01*
X35131166Y-27425041D01*
X35594118Y-27734376D01*
X36140207Y-27843000D01*
X37011793Y-27843000D01*
X37557882Y-27734376D01*
X38020834Y-27425041D01*
X38330169Y-26962089D01*
X38438793Y-26416000D01*
X38330169Y-25869911D01*
X38020834Y-25406959D01*
X37630282Y-25146000D01*
X38020834Y-24885041D01*
X38330169Y-24422089D01*
X38438793Y-23876000D01*
X38330169Y-23329911D01*
X38020834Y-22866959D01*
X37630282Y-22606000D01*
X38020834Y-22345041D01*
X38330169Y-21882089D01*
X38438793Y-21336000D01*
X38330169Y-20789911D01*
X38020834Y-20326959D01*
X37630282Y-20066000D01*
X38020834Y-19805041D01*
X38330169Y-19342089D01*
X38438793Y-18796000D01*
X38330169Y-18249911D01*
X38020834Y-17786959D01*
X37557882Y-17477624D01*
X37011793Y-17369000D01*
X36140207Y-17369000D01*
X35594118Y-17477624D01*
X35131166Y-17786959D01*
X34821831Y-18249911D01*
X34713207Y-18796000D01*
X34821831Y-19342089D01*
X35131166Y-19805041D01*
X35521718Y-20066000D01*
X35131166Y-20326959D01*
X34983553Y-20547877D01*
X34862521Y-20571952D01*
X34594222Y-20751223D01*
X33197223Y-22148223D01*
X33017952Y-22416521D01*
X32955000Y-22733000D01*
X32955000Y-23049000D01*
X30522470Y-23049000D01*
X30400834Y-22866959D01*
X30010282Y-22606000D01*
X30400834Y-22345041D01*
X30710169Y-21882089D01*
X30818793Y-21336000D01*
X30710169Y-20789911D01*
X30400834Y-20326959D01*
X30239982Y-20219481D01*
X30388352Y-20191563D01*
X30601753Y-20054243D01*
X30744917Y-19844717D01*
X30795283Y-19596000D01*
X30795283Y-17996000D01*
X30751563Y-17763648D01*
X30614243Y-17550247D01*
X30404717Y-17407083D01*
X30156000Y-17356717D01*
X27756000Y-17356717D01*
X27523648Y-17400437D01*
X27310247Y-17537757D01*
X27167083Y-17747283D01*
X27116717Y-17996000D01*
X27116717Y-19596000D01*
X27160437Y-19828352D01*
X27297757Y-20041753D01*
X27507283Y-20184917D01*
X27673402Y-20218557D01*
X27511166Y-20326959D01*
X27201831Y-20789911D01*
X27093207Y-21336000D01*
X27201831Y-21882089D01*
X27511166Y-22345041D01*
X27901718Y-22606000D01*
X27511166Y-22866959D01*
X27201831Y-23329911D01*
X27093207Y-23876000D01*
X27201831Y-24422089D01*
X27511166Y-24885041D01*
X27899165Y-25144294D01*
X27892578Y-25146225D01*
X27457156Y-25496761D01*
X27189023Y-25987243D01*
X27172029Y-26068217D01*
X27292115Y-26289000D01*
X28829000Y-26289000D01*
X28829000Y-26269000D01*
X29083000Y-26269000D01*
X29083000Y-26289000D01*
X30619885Y-26289000D01*
X30739971Y-26068217D01*
X30722977Y-25987243D01*
X30454844Y-25496761D01*
X30019422Y-25146225D01*
X30012835Y-25144294D01*
X30400834Y-24885041D01*
X30522470Y-24703000D01*
X32955000Y-24703000D01*
X32955000Y-27940000D01*
X33017952Y-28256479D01*
X33197223Y-28524777D01*
X34733000Y-30060555D01*
X34733000Y-33110738D01*
X34729201Y-33109161D01*
X34360417Y-33108839D01*
X34019583Y-33249669D01*
X33758586Y-33510211D01*
X33617161Y-33850799D01*
X33616839Y-34219583D01*
X33757669Y-34560417D01*
X33792000Y-34594808D01*
X33792000Y-34740512D01*
X32295853Y-36236659D01*
X32296161Y-35884417D01*
X32155331Y-35543583D01*
X31894789Y-35282586D01*
X31740000Y-35218312D01*
X31740000Y-32258000D01*
X31682757Y-31970222D01*
X31519744Y-31726256D01*
X26557271Y-26763783D01*
X27172029Y-26763783D01*
X27189023Y-26844757D01*
X27457156Y-27335239D01*
X27892578Y-27685775D01*
X28429000Y-27843000D01*
X28829000Y-27843000D01*
X28829000Y-26543000D01*
X29083000Y-26543000D01*
X29083000Y-27843000D01*
X29483000Y-27843000D01*
X30019422Y-27685775D01*
X30454844Y-27335239D01*
X30722977Y-26844757D01*
X30739971Y-26763783D01*
X30619885Y-26543000D01*
X29083000Y-26543000D01*
X28829000Y-26543000D01*
X27292115Y-26543000D01*
X27172029Y-26763783D01*
X26557271Y-26763783D01*
X18405000Y-18611512D01*
X18405000Y-10033000D01*
X18347757Y-9745222D01*
X18184744Y-9501256D01*
X16881041Y-8197553D01*
X35797052Y-8197553D01*
X36164437Y-8690740D01*
X37567075Y-9282800D01*
X39089516Y-9293027D01*
X40499981Y-8719861D01*
X40543563Y-8690740D01*
X40910948Y-8197553D01*
X38354000Y-5640605D01*
X35797052Y-8197553D01*
X16881041Y-8197553D01*
X15230000Y-6546512D01*
X15230000Y-5588000D01*
X15201755Y-5446000D01*
X19538717Y-5446000D01*
X19538717Y-6746000D01*
X19582437Y-6978352D01*
X19719757Y-7191753D01*
X19929283Y-7334917D01*
X20178000Y-7385283D01*
X21478000Y-7385283D01*
X21710352Y-7341563D01*
X21923753Y-7204243D01*
X22066917Y-6994717D01*
X22117283Y-6746000D01*
X22117283Y-6196516D01*
X34521973Y-6196516D01*
X35095139Y-7606981D01*
X35124260Y-7650563D01*
X35617447Y-8017948D01*
X38174395Y-5461000D01*
X38533605Y-5461000D01*
X41090553Y-8017948D01*
X41583740Y-7650563D01*
X42175800Y-6247925D01*
X42186027Y-4725484D01*
X41612861Y-3315019D01*
X41583740Y-3271437D01*
X41090553Y-2904052D01*
X38533605Y-5461000D01*
X38174395Y-5461000D01*
X35617447Y-2904052D01*
X35124260Y-3271437D01*
X34532200Y-4674075D01*
X34521973Y-6196516D01*
X22117283Y-6196516D01*
X22117283Y-5446000D01*
X22073563Y-5213648D01*
X21936243Y-5000247D01*
X21726717Y-4857083D01*
X21478000Y-4806717D01*
X21275097Y-4806717D01*
X21486912Y-4718980D01*
X21543030Y-4490635D01*
X20828000Y-3775605D01*
X20112970Y-4490635D01*
X20169088Y-4718980D01*
X20421710Y-4806717D01*
X20178000Y-4806717D01*
X19945648Y-4850437D01*
X19732247Y-4987757D01*
X19589083Y-5197283D01*
X19538717Y-5446000D01*
X15201755Y-5446000D01*
X15172757Y-5300222D01*
X15103975Y-5197283D01*
X15009745Y-5056256D01*
X14374744Y-4421256D01*
X14130778Y-4258243D01*
X13843000Y-4201000D01*
X11938000Y-4201000D01*
X11650222Y-4258243D01*
X11571221Y-4311030D01*
X11406256Y-4421256D01*
X10624795Y-5202717D01*
X10066020Y-5202717D01*
X9833668Y-5246437D01*
X9620267Y-5383757D01*
X9477103Y-5593283D01*
X9426737Y-5842000D01*
X702000Y-5842000D01*
X702000Y-3529757D01*
X6906368Y-3529757D01*
X7048276Y-3830698D01*
X7781860Y-4114321D01*
X8568141Y-4095622D01*
X9207724Y-3830698D01*
X9349632Y-3529757D01*
X9236866Y-3416991D01*
X19538347Y-3416991D01*
X19568012Y-3924146D01*
X19705020Y-4254912D01*
X19933365Y-4311030D01*
X20648395Y-3596000D01*
X21007605Y-3596000D01*
X21722635Y-4311030D01*
X21950980Y-4254912D01*
X22117653Y-3775009D01*
X22087988Y-3267854D01*
X21950980Y-2937088D01*
X21722635Y-2880970D01*
X21007605Y-3596000D01*
X20648395Y-3596000D01*
X19933365Y-2880970D01*
X19705020Y-2937088D01*
X19538347Y-3416991D01*
X9236866Y-3416991D01*
X8128000Y-2308125D01*
X6906368Y-3529757D01*
X702000Y-3529757D01*
X702000Y-1782380D01*
X6142199Y-1782380D01*
X6160898Y-2568661D01*
X6425822Y-3208244D01*
X6726763Y-3350152D01*
X7948395Y-2128520D01*
X8307605Y-2128520D01*
X9529237Y-3350152D01*
X9830178Y-3208244D01*
X10026150Y-2701365D01*
X20112970Y-2701365D01*
X20828000Y-3416395D01*
X21519948Y-2724447D01*
X35797052Y-2724447D01*
X38354000Y-5281395D01*
X40910948Y-2724447D01*
X40543563Y-2231260D01*
X39140925Y-1639200D01*
X37618484Y-1628973D01*
X36208019Y-2202139D01*
X36164437Y-2231260D01*
X35797052Y-2724447D01*
X21519948Y-2724447D01*
X21543030Y-2701365D01*
X21486912Y-2473020D01*
X21007009Y-2306347D01*
X20499854Y-2336012D01*
X20169088Y-2473020D01*
X20112970Y-2701365D01*
X10026150Y-2701365D01*
X10113801Y-2474660D01*
X10095102Y-1688379D01*
X9830178Y-1048796D01*
X9529237Y-906888D01*
X8307605Y-2128520D01*
X7948395Y-2128520D01*
X6726763Y-906888D01*
X6425822Y-1048796D01*
X6142199Y-1782380D01*
X702000Y-1782380D01*
X702000Y-702000D01*
X6918290Y-702000D01*
X6906368Y-727283D01*
M02*
