G04 #@! TF.FileFunction,Soldermask,Top*
%FSLAX46Y46*%
G04 Gerber Fmt 4.6, Leading zero omitted, Abs format (unit mm)*
G04 Created by KiCad (PCBNEW 4.0.7-e2-6376~58~ubuntu16.04.1) date Sun Jan 24 13:39:57 2021*
%MOMM*%
%LPD*%
G01*
G04 APERTURE LIST*
%ADD10C,0.100000*%
%ADD11C,1.901140*%
%ADD12R,1.100000X1.700000*%
%ADD13R,1.700000X1.700000*%
%ADD14C,1.700000*%
%ADD15R,1.700000X1.100000*%
%ADD16R,2.051000X2.051000*%
%ADD17R,2.200000X2.200000*%
%ADD18C,2.200000*%
%ADD19R,5.226000X3.194000*%
%ADD20R,1.924000X2.432000*%
%ADD21C,3.100020*%
%ADD22O,3.900000X2.400000*%
%ADD23R,2.000000X2.000000*%
%ADD24C,2.000000*%
%ADD25O,2.400000X4.400000*%
%ADD26R,2.127200X2.127200*%
%ADD27O,2.127200X2.127200*%
%ADD28C,6.800000*%
%ADD29R,1.200100X1.200100*%
%ADD30R,1.950000X1.700000*%
%ADD31R,1.162000X0.908000*%
%ADD32R,2.800000X2.000000*%
%ADD33O,2.800000X2.000000*%
%ADD34R,0.960000X0.700000*%
%ADD35R,6.000000X6.000000*%
%ADD36R,0.700000X0.960000*%
%ADD37C,5.401260*%
%ADD38C,1.900000*%
G04 APERTURE END LIST*
D10*
D11*
X15748000Y-35532060D03*
X15748000Y-40413940D03*
D12*
X12253000Y-35433000D03*
X10353000Y-35433000D03*
X12253000Y-41148000D03*
X10353000Y-41148000D03*
X19873000Y-54483000D03*
X17973000Y-54483000D03*
D13*
X20828000Y-6096000D03*
D14*
X20828000Y-3596000D03*
D12*
X28763000Y-45593000D03*
X26863000Y-45593000D03*
X18354000Y-32004000D03*
X20254000Y-32004000D03*
X28890000Y-3556000D03*
X26990000Y-3556000D03*
X29022000Y-32004000D03*
X30922000Y-32004000D03*
D15*
X33020000Y-21656000D03*
X33020000Y-23556000D03*
D16*
X20955000Y-10033000D03*
X24511000Y-10033000D03*
D17*
X38608000Y-32004000D03*
D18*
X41148000Y-32004000D03*
D17*
X38608000Y-36576000D03*
D18*
X41148000Y-36576000D03*
D17*
X38608000Y-41656000D03*
D18*
X41148000Y-41656000D03*
D19*
X21844000Y-20955000D03*
X21844000Y-14605000D03*
D20*
X12827000Y-9398000D03*
X12827000Y-6858000D03*
X10828020Y-6858000D03*
X10828020Y-9398000D03*
D21*
X8128000Y-14127480D03*
X8128000Y-2128520D03*
D22*
X5913000Y-17123000D03*
X5913000Y-30823000D03*
D23*
X8763000Y-25273000D03*
D24*
X8763000Y-22673000D03*
X8763000Y-27373000D03*
X8763000Y-20573000D03*
X11563000Y-27373000D03*
X11563000Y-20573000D03*
D25*
X5113000Y-23973000D03*
D26*
X38100000Y-56896000D03*
D27*
X38100000Y-59436000D03*
X35560000Y-56896000D03*
X35560000Y-59436000D03*
X33020000Y-56896000D03*
X33020000Y-59436000D03*
X30480000Y-56896000D03*
X30480000Y-59436000D03*
X27940000Y-56896000D03*
X27940000Y-59436000D03*
D28*
X38354000Y-48387000D03*
X38354000Y-5461000D03*
D29*
X17714000Y-21351240D03*
X15814000Y-21351240D03*
X16764000Y-23350220D03*
D12*
X14163000Y-52578000D03*
X16063000Y-52578000D03*
X14163000Y-50673000D03*
X16063000Y-50673000D03*
X14163000Y-48768000D03*
X16063000Y-48768000D03*
X17714000Y-27940000D03*
X15814000Y-27940000D03*
X17714000Y-25400000D03*
X15814000Y-25400000D03*
X12253000Y-44958000D03*
X10353000Y-44958000D03*
X12253000Y-46863000D03*
X10353000Y-46863000D03*
X19873000Y-52578000D03*
X17973000Y-52578000D03*
X21910000Y-32004000D03*
X23810000Y-32004000D03*
X10353000Y-48768000D03*
X12253000Y-48768000D03*
X10353000Y-50673000D03*
X12253000Y-50673000D03*
X10353000Y-52578000D03*
X12253000Y-52578000D03*
X15814000Y-19304000D03*
X17714000Y-19304000D03*
X33970000Y-14732000D03*
X32070000Y-14732000D03*
X36510000Y-32004000D03*
X34610000Y-32004000D03*
X36510000Y-36576000D03*
X34610000Y-36576000D03*
X36510000Y-41656000D03*
X34610000Y-41656000D03*
D30*
X19723000Y-61813000D03*
X11773000Y-61813000D03*
X19723000Y-57313000D03*
X11773000Y-57313000D03*
D31*
X26670000Y-6667500D03*
X26670000Y-8572500D03*
X29210000Y-6667500D03*
X26670000Y-7620000D03*
X29210000Y-8572500D03*
D32*
X28956000Y-18796000D03*
D33*
X36576000Y-26416000D03*
X28956000Y-21336000D03*
X36576000Y-23876000D03*
X28956000Y-23876000D03*
X36576000Y-21336000D03*
X28956000Y-26416000D03*
X36576000Y-18796000D03*
D34*
X21136000Y-36493000D03*
D35*
X24511000Y-39243000D03*
D34*
X21136000Y-36993000D03*
X21136000Y-37493000D03*
X21136000Y-37993000D03*
X21136000Y-38493000D03*
X21136000Y-38993000D03*
X21136000Y-39493000D03*
X21136000Y-39993000D03*
X21136000Y-40493000D03*
X21136000Y-40993000D03*
X21136000Y-41493000D03*
X21136000Y-41993000D03*
D36*
X21761000Y-42618000D03*
D34*
X27886000Y-41993000D03*
X27886000Y-41493000D03*
X27886000Y-40993000D03*
X27886000Y-40493000D03*
X27886000Y-39993000D03*
X27886000Y-39493000D03*
X27886000Y-38993000D03*
X27886000Y-38493000D03*
X27886000Y-37993000D03*
X27886000Y-37493000D03*
X27886000Y-36993000D03*
X27886000Y-36493000D03*
D36*
X27261000Y-35868000D03*
X26761000Y-35868000D03*
X26261000Y-35868000D03*
X25761000Y-35868000D03*
X25261000Y-35868000D03*
X24761000Y-35868000D03*
X24261000Y-35868000D03*
X23761000Y-35868000D03*
X23261000Y-35868000D03*
X22761000Y-35868000D03*
X22261000Y-35868000D03*
X21761000Y-35868000D03*
X22261000Y-42618000D03*
X22761000Y-42618000D03*
X23261000Y-42618000D03*
X23761000Y-42618000D03*
X24261000Y-42618000D03*
X24761000Y-42618000D03*
X25261000Y-42618000D03*
X25761000Y-42618000D03*
X26261000Y-42618000D03*
X26761000Y-42618000D03*
X27261000Y-42618000D03*
D37*
X4249420Y-60373260D03*
D38*
X6731000Y-52197000D03*
D37*
X4249420Y-35384740D03*
D38*
X6731000Y-49911000D03*
X6731000Y-47625000D03*
X6731000Y-45339000D03*
X6731000Y-43053000D03*
X4191000Y-53340000D03*
X4191000Y-51054000D03*
X4191000Y-48768000D03*
X4191000Y-46482000D03*
X4191000Y-44196000D03*
X1651000Y-52197000D03*
X1651000Y-49911000D03*
X1651000Y-47625000D03*
X1651000Y-45339000D03*
X1651000Y-43053000D03*
M02*
