G04 #@! TF.FileFunction,Legend,Top*
%FSLAX46Y46*%
G04 Gerber Fmt 4.6, Leading zero omitted, Abs format (unit mm)*
G04 Created by KiCad (PCBNEW 4.0.7-e2-6376~58~ubuntu16.04.1) date Sun Jan 24 13:39:57 2021*
%MOMM*%
%LPD*%
G01*
G04 APERTURE LIST*
%ADD10C,0.100000*%
%ADD11C,0.150000*%
%ADD12C,0.120000*%
%ADD13C,0.254000*%
%ADD14C,0.203200*%
%ADD15C,0.127000*%
%ADD16C,0.381000*%
%ADD17C,0.304800*%
G04 APERTURE END LIST*
D10*
D11*
X16748760Y-42672000D02*
X16347440Y-42872660D01*
X16347440Y-42872660D02*
X15748000Y-42974260D01*
X15748000Y-42974260D02*
X15247620Y-42872660D01*
X15247620Y-42872660D02*
X14549120Y-42473880D01*
X14549120Y-42473880D02*
X14147800Y-41871900D01*
X14147800Y-41871900D02*
X13947140Y-41272460D01*
X13947140Y-41272460D02*
X13947140Y-34673540D01*
X13947140Y-34673540D02*
X14147800Y-33972500D01*
X14147800Y-33972500D02*
X14447520Y-33573720D01*
X14447520Y-33573720D02*
X14947900Y-33172400D01*
X14947900Y-33172400D02*
X15547340Y-32971740D01*
X15547340Y-32971740D02*
X16047720Y-32971740D01*
X16047720Y-32971740D02*
X16548100Y-33172400D01*
X16548100Y-33172400D02*
X17147540Y-33672780D01*
X17147540Y-33672780D02*
X17447260Y-34173160D01*
X17447260Y-34173160D02*
X17548860Y-34673540D01*
X17548860Y-34772600D02*
X17548860Y-41374060D01*
X17548860Y-41374060D02*
X17447260Y-41772840D01*
X17447260Y-41772840D02*
X17147540Y-42273220D01*
X17147540Y-42273220D02*
X16647160Y-42773600D01*
X18077180Y-34782760D02*
X18028920Y-34323020D01*
X18028920Y-34323020D02*
X17917160Y-33924240D01*
X17917160Y-33924240D02*
X17698720Y-33492440D01*
X17698720Y-33492440D02*
X17467580Y-33202880D01*
X17467580Y-33202880D02*
X17117060Y-32872680D01*
X17117060Y-32872680D02*
X16578580Y-32583120D01*
X16578580Y-32583120D02*
X15979140Y-32453580D01*
X15979140Y-32453580D02*
X15468600Y-32453580D01*
X15468600Y-32453580D02*
X14767560Y-32623760D01*
X14767560Y-32623760D02*
X14178280Y-33022540D01*
X14178280Y-33022540D02*
X13807440Y-33482280D01*
X13807440Y-33482280D02*
X13599160Y-33903920D01*
X13599160Y-33903920D02*
X13439140Y-34353500D01*
X13439140Y-34353500D02*
X13408660Y-34792920D01*
X13627100Y-42133520D02*
X13848080Y-42511980D01*
X13848080Y-42511980D02*
X14127480Y-42832020D01*
X14127480Y-42832020D02*
X14457680Y-43083480D01*
X14457680Y-43083480D02*
X15008860Y-43383200D01*
X15008860Y-43383200D02*
X15478760Y-43492420D01*
X15478760Y-43492420D02*
X15938500Y-43512740D01*
X15938500Y-43512740D02*
X16398240Y-43423840D01*
X16398240Y-43423840D02*
X16847820Y-43233340D01*
X16847820Y-43233340D02*
X17317720Y-42872660D01*
X17317720Y-42872660D02*
X17637760Y-42522140D01*
X17637760Y-42522140D02*
X17868900Y-42133520D01*
X17868900Y-42133520D02*
X18008600Y-41704260D01*
X18008600Y-41704260D02*
X18077180Y-41262300D01*
X13418820Y-34772600D02*
X13418820Y-41224200D01*
X13418820Y-41224200D02*
X13456920Y-41643300D01*
X13456920Y-41643300D02*
X13627100Y-42133520D01*
X18077180Y-34772600D02*
X18077180Y-41224200D01*
D12*
X10703000Y-34553000D02*
X11903000Y-34553000D01*
X11903000Y-36313000D02*
X10703000Y-36313000D01*
X10703000Y-40268000D02*
X11903000Y-40268000D01*
X11903000Y-42028000D02*
X10703000Y-42028000D01*
X18323000Y-53603000D02*
X19523000Y-53603000D01*
X19523000Y-55363000D02*
X18323000Y-55363000D01*
D11*
X18329000Y-4771000D02*
X23327000Y-4771000D01*
X18337000Y-4631000D02*
X23319000Y-4631000D01*
X18353000Y-4491000D02*
X20733000Y-4491000D01*
X20923000Y-4491000D02*
X23303000Y-4491000D01*
X18377000Y-4351000D02*
X20338000Y-4351000D01*
X21318000Y-4351000D02*
X23279000Y-4351000D01*
X18410000Y-4211000D02*
X20171000Y-4211000D01*
X21485000Y-4211000D02*
X23246000Y-4211000D01*
X18451000Y-4071000D02*
X20064000Y-4071000D01*
X21592000Y-4071000D02*
X23205000Y-4071000D01*
X18501000Y-3931000D02*
X19993000Y-3931000D01*
X21663000Y-3931000D02*
X23155000Y-3931000D01*
X18562000Y-3791000D02*
X19949000Y-3791000D01*
X21707000Y-3791000D02*
X23094000Y-3791000D01*
X18632000Y-3651000D02*
X19930000Y-3651000D01*
X21726000Y-3651000D02*
X23024000Y-3651000D01*
X18714000Y-3511000D02*
X19932000Y-3511000D01*
X21724000Y-3511000D02*
X22942000Y-3511000D01*
X18809000Y-3371000D02*
X19957000Y-3371000D01*
X21699000Y-3371000D02*
X22847000Y-3371000D01*
X18920000Y-3231000D02*
X20005000Y-3231000D01*
X21651000Y-3231000D02*
X22736000Y-3231000D01*
X19048000Y-3091000D02*
X20083000Y-3091000D01*
X21573000Y-3091000D02*
X22608000Y-3091000D01*
X19197000Y-2951000D02*
X20200000Y-2951000D01*
X21456000Y-2951000D02*
X22459000Y-2951000D01*
X19376000Y-2811000D02*
X20388000Y-2811000D01*
X21268000Y-2811000D02*
X22280000Y-2811000D01*
X19595000Y-2671000D02*
X22061000Y-2671000D01*
X19884000Y-2531000D02*
X21772000Y-2531000D01*
X20356000Y-2391000D02*
X21300000Y-2391000D01*
X21728000Y-3596000D02*
G75*
G03X21728000Y-3596000I-900000J0D01*
G01*
X23365500Y-4846000D02*
G75*
G03X23365500Y-4846000I-2537500J0D01*
G01*
D12*
X27213000Y-44713000D02*
X28413000Y-44713000D01*
X28413000Y-46473000D02*
X27213000Y-46473000D01*
X19904000Y-32884000D02*
X18704000Y-32884000D01*
X18704000Y-31124000D02*
X19904000Y-31124000D01*
X27340000Y-2676000D02*
X28540000Y-2676000D01*
X28540000Y-4436000D02*
X27340000Y-4436000D01*
X30572000Y-32884000D02*
X29372000Y-32884000D01*
X29372000Y-31124000D02*
X30572000Y-31124000D01*
X32140000Y-23206000D02*
X32140000Y-22006000D01*
X33900000Y-22006000D02*
X33900000Y-23206000D01*
D13*
X24765000Y-11303000D02*
X24765000Y-8763000D01*
X25019000Y-11303000D02*
X25019000Y-8763000D01*
X20447000Y-8763000D02*
X20447000Y-11303000D01*
D14*
X25019000Y-11303000D02*
X20447000Y-11303000D01*
X20447000Y-8763000D02*
X25019000Y-8763000D01*
D12*
X41550335Y-30925392D02*
G75*
G03X38318000Y-30768484I-1672335J-1078608D01*
G01*
X41550335Y-33082608D02*
G75*
G02X38318000Y-33239516I-1672335J1078608D01*
G01*
X40919130Y-30924163D02*
G75*
G03X38837039Y-30924000I-1041130J-1079837D01*
G01*
X40919130Y-33083837D02*
G75*
G02X38837039Y-33084000I-1041130J1079837D01*
G01*
X38318000Y-30768000D02*
X38318000Y-30924000D01*
X38318000Y-33084000D02*
X38318000Y-33240000D01*
X41550335Y-35497392D02*
G75*
G03X38318000Y-35340484I-1672335J-1078608D01*
G01*
X41550335Y-37654608D02*
G75*
G02X38318000Y-37811516I-1672335J1078608D01*
G01*
X40919130Y-35496163D02*
G75*
G03X38837039Y-35496000I-1041130J-1079837D01*
G01*
X40919130Y-37655837D02*
G75*
G02X38837039Y-37656000I-1041130J1079837D01*
G01*
X38318000Y-35340000D02*
X38318000Y-35496000D01*
X38318000Y-37656000D02*
X38318000Y-37812000D01*
X41550335Y-40577392D02*
G75*
G03X38318000Y-40420484I-1672335J-1078608D01*
G01*
X41550335Y-42734608D02*
G75*
G02X38318000Y-42891516I-1672335J1078608D01*
G01*
X40919130Y-40576163D02*
G75*
G03X38837039Y-40576000I-1041130J-1079837D01*
G01*
X40919130Y-42735837D02*
G75*
G02X38837039Y-42736000I-1041130J1079837D01*
G01*
X38318000Y-40420000D02*
X38318000Y-40576000D01*
X38318000Y-42736000D02*
X38318000Y-42892000D01*
D11*
X19333981Y-12700000D02*
G75*
G03X19333981Y-12700000I-283981J0D01*
G01*
X24511000Y-13208000D02*
X19177000Y-13208000D01*
X24511000Y-12954000D02*
X19177000Y-12954000D01*
X19177000Y-16256000D02*
X19177000Y-12954000D01*
X24511000Y-16256000D02*
X24511000Y-12954000D01*
X24511000Y-19304000D02*
X24511000Y-22606000D01*
X24511000Y-22606000D02*
X19177000Y-22606000D01*
X19177000Y-22606000D02*
X19177000Y-19304000D01*
D15*
X-2159000Y-2032000D02*
X-2159000Y-14224000D01*
X-2159000Y-14224000D02*
X14859000Y-14224000D01*
X14859000Y-14224000D02*
X14859000Y-2032000D01*
X14859000Y-2032000D02*
X-2159000Y-2032000D01*
D12*
X13163000Y-32073000D02*
X163000Y-32073000D01*
X13163000Y-15873000D02*
X163000Y-15873000D01*
X13163000Y-15873000D02*
X13163000Y-32073000D01*
X163000Y-15873000D02*
X163000Y-32073000D01*
X43430000Y-62966000D02*
X22610000Y-62966000D01*
X22610000Y-62966000D02*
X22610000Y-53366000D01*
X22610000Y-53366000D02*
X43430000Y-53366000D01*
X43430000Y-53366000D02*
X43430000Y-62966000D01*
D11*
X15464840Y-23002240D02*
X15513100Y-23002240D01*
X18263820Y-22301200D02*
X18263820Y-23002240D01*
X18263820Y-23002240D02*
X18014900Y-23002240D01*
X15464840Y-23002240D02*
X15264180Y-23002240D01*
X15264180Y-23002240D02*
X15264180Y-22301200D01*
D12*
X15713000Y-53458000D02*
X14513000Y-53458000D01*
X14513000Y-51698000D02*
X15713000Y-51698000D01*
X15713000Y-51553000D02*
X14513000Y-51553000D01*
X14513000Y-49793000D02*
X15713000Y-49793000D01*
X15713000Y-49648000D02*
X14513000Y-49648000D01*
X14513000Y-47888000D02*
X15713000Y-47888000D01*
X16164000Y-27060000D02*
X17364000Y-27060000D01*
X17364000Y-28820000D02*
X16164000Y-28820000D01*
X16164000Y-24520000D02*
X17364000Y-24520000D01*
X17364000Y-26280000D02*
X16164000Y-26280000D01*
X10703000Y-44078000D02*
X11903000Y-44078000D01*
X11903000Y-45838000D02*
X10703000Y-45838000D01*
X10703000Y-45983000D02*
X11903000Y-45983000D01*
X11903000Y-47743000D02*
X10703000Y-47743000D01*
X18323000Y-51698000D02*
X19523000Y-51698000D01*
X19523000Y-53458000D02*
X18323000Y-53458000D01*
X23460000Y-32884000D02*
X22260000Y-32884000D01*
X22260000Y-31124000D02*
X23460000Y-31124000D01*
X11903000Y-49648000D02*
X10703000Y-49648000D01*
X10703000Y-47888000D02*
X11903000Y-47888000D01*
X11903000Y-51553000D02*
X10703000Y-51553000D01*
X10703000Y-49793000D02*
X11903000Y-49793000D01*
X11903000Y-53458000D02*
X10703000Y-53458000D01*
X10703000Y-51698000D02*
X11903000Y-51698000D01*
X17364000Y-20184000D02*
X16164000Y-20184000D01*
X16164000Y-18424000D02*
X17364000Y-18424000D01*
X32420000Y-13852000D02*
X33620000Y-13852000D01*
X33620000Y-15612000D02*
X32420000Y-15612000D01*
X34960000Y-31124000D02*
X36160000Y-31124000D01*
X36160000Y-32884000D02*
X34960000Y-32884000D01*
X34960000Y-35696000D02*
X36160000Y-35696000D01*
X36160000Y-37456000D02*
X34960000Y-37456000D01*
X34960000Y-40776000D02*
X36160000Y-40776000D01*
X36160000Y-42536000D02*
X34960000Y-42536000D01*
X18898000Y-62763000D02*
X18898000Y-63013000D01*
X18898000Y-63013000D02*
X12598000Y-63013000D01*
X12598000Y-63013000D02*
X12598000Y-62763000D01*
X18898000Y-58263000D02*
X18898000Y-60863000D01*
X12598000Y-56363000D02*
X12598000Y-56113000D01*
X12598000Y-56113000D02*
X18898000Y-56113000D01*
X18898000Y-56113000D02*
X18898000Y-56363000D01*
X12598000Y-60863000D02*
X12598000Y-58263000D01*
D15*
X28829000Y-9144000D02*
X27051000Y-9144000D01*
X27051000Y-9144000D02*
X27051000Y-6096000D01*
X27051000Y-6096000D02*
X28829000Y-6096000D01*
X28829000Y-6096000D02*
X28829000Y-9144000D01*
D12*
X31766000Y-17406000D02*
X30396000Y-17406000D01*
X30396000Y-17406000D02*
X30396000Y-27806000D01*
X30396000Y-27806000D02*
X35136000Y-27806000D01*
X35136000Y-27806000D02*
X35136000Y-17406000D01*
X35136000Y-17406000D02*
X33766000Y-17406000D01*
X33766000Y-17406000D02*
G75*
G02X31766000Y-17406000I-1000000J0D01*
G01*
D11*
X20836000Y-35568000D02*
X20836000Y-36018000D01*
X28186000Y-35568000D02*
X28186000Y-36118000D01*
X28186000Y-42918000D02*
X28186000Y-42368000D01*
X20836000Y-42918000D02*
X20836000Y-42368000D01*
X20836000Y-35568000D02*
X21386000Y-35568000D01*
X20836000Y-42918000D02*
X21386000Y-42918000D01*
X28186000Y-42918000D02*
X27636000Y-42918000D01*
X28186000Y-35568000D02*
X27636000Y-35568000D01*
X20836000Y-36018000D02*
X19561000Y-36018000D01*
D16*
X508000Y-37846000D02*
X-5334000Y-37846000D01*
X508000Y-32385000D02*
X8890000Y-32385000D01*
X8890000Y-63373000D02*
X508000Y-63373000D01*
X8890000Y-63373000D02*
X8890000Y-32385000D01*
X508000Y-36830000D02*
X-5334000Y-36830000D01*
X508000Y-33782000D02*
X-5334000Y-33782000D01*
X508000Y-61976000D02*
X-5334000Y-61976000D01*
X508000Y-58928000D02*
X-5334000Y-58928000D01*
X508000Y-57912000D02*
X-5334000Y-57912000D01*
X-5334000Y-57912000D02*
X-5334000Y-62992000D01*
X-5334000Y-62992000D02*
X381000Y-62992000D01*
X508000Y-32766000D02*
X-5334000Y-32766000D01*
X-5334000Y-32766000D02*
X-5334000Y-37846000D01*
X508000Y-39751000D02*
X-5334000Y-39751000D01*
X-5334000Y-39751000D02*
X-5334000Y-56007000D01*
X-5334000Y-56007000D02*
X508000Y-56007000D01*
X508000Y-32385000D02*
X508000Y-63373000D01*
D11*
X17176809Y-44553190D02*
X17176809Y-45029381D01*
X16843476Y-44029381D02*
X17176809Y-44553190D01*
X17510143Y-44029381D01*
X18367286Y-45029381D02*
X17795857Y-45029381D01*
X18081571Y-45029381D02*
X18081571Y-44029381D01*
X17986333Y-44172238D01*
X17891095Y-44267476D01*
X17795857Y-44315095D01*
X11136334Y-37822143D02*
X11088715Y-37869762D01*
X10945858Y-37917381D01*
X10850620Y-37917381D01*
X10707762Y-37869762D01*
X10612524Y-37774524D01*
X10564905Y-37679286D01*
X10517286Y-37488810D01*
X10517286Y-37345952D01*
X10564905Y-37155476D01*
X10612524Y-37060238D01*
X10707762Y-36965000D01*
X10850620Y-36917381D01*
X10945858Y-36917381D01*
X11088715Y-36965000D01*
X11136334Y-37012619D01*
X12088715Y-37917381D02*
X11517286Y-37917381D01*
X11803000Y-37917381D02*
X11803000Y-36917381D01*
X11707762Y-37060238D01*
X11612524Y-37155476D01*
X11517286Y-37203095D01*
X11009334Y-39600143D02*
X10961715Y-39647762D01*
X10818858Y-39695381D01*
X10723620Y-39695381D01*
X10580762Y-39647762D01*
X10485524Y-39552524D01*
X10437905Y-39457286D01*
X10390286Y-39266810D01*
X10390286Y-39123952D01*
X10437905Y-38933476D01*
X10485524Y-38838238D01*
X10580762Y-38743000D01*
X10723620Y-38695381D01*
X10818858Y-38695381D01*
X10961715Y-38743000D01*
X11009334Y-38790619D01*
X11390286Y-38790619D02*
X11437905Y-38743000D01*
X11533143Y-38695381D01*
X11771239Y-38695381D01*
X11866477Y-38743000D01*
X11914096Y-38790619D01*
X11961715Y-38885857D01*
X11961715Y-38981095D01*
X11914096Y-39123952D01*
X11342667Y-39695381D01*
X11961715Y-39695381D01*
X15962334Y-55094143D02*
X15914715Y-55141762D01*
X15771858Y-55189381D01*
X15676620Y-55189381D01*
X15533762Y-55141762D01*
X15438524Y-55046524D01*
X15390905Y-54951286D01*
X15343286Y-54760810D01*
X15343286Y-54617952D01*
X15390905Y-54427476D01*
X15438524Y-54332238D01*
X15533762Y-54237000D01*
X15676620Y-54189381D01*
X15771858Y-54189381D01*
X15914715Y-54237000D01*
X15962334Y-54284619D01*
X16295667Y-54189381D02*
X16914715Y-54189381D01*
X16581381Y-54570333D01*
X16724239Y-54570333D01*
X16819477Y-54617952D01*
X16867096Y-54665571D01*
X16914715Y-54760810D01*
X16914715Y-54998905D01*
X16867096Y-55094143D01*
X16819477Y-55141762D01*
X16724239Y-55189381D01*
X16438524Y-55189381D01*
X16343286Y-55141762D01*
X16295667Y-55094143D01*
X16851334Y-7977143D02*
X16803715Y-8024762D01*
X16660858Y-8072381D01*
X16565620Y-8072381D01*
X16422762Y-8024762D01*
X16327524Y-7929524D01*
X16279905Y-7834286D01*
X16232286Y-7643810D01*
X16232286Y-7500952D01*
X16279905Y-7310476D01*
X16327524Y-7215238D01*
X16422762Y-7120000D01*
X16565620Y-7072381D01*
X16660858Y-7072381D01*
X16803715Y-7120000D01*
X16851334Y-7167619D01*
X17708477Y-7405714D02*
X17708477Y-8072381D01*
X17470381Y-7024762D02*
X17232286Y-7739048D01*
X17851334Y-7739048D01*
X27646334Y-47600143D02*
X27598715Y-47647762D01*
X27455858Y-47695381D01*
X27360620Y-47695381D01*
X27217762Y-47647762D01*
X27122524Y-47552524D01*
X27074905Y-47457286D01*
X27027286Y-47266810D01*
X27027286Y-47123952D01*
X27074905Y-46933476D01*
X27122524Y-46838238D01*
X27217762Y-46743000D01*
X27360620Y-46695381D01*
X27455858Y-46695381D01*
X27598715Y-46743000D01*
X27646334Y-46790619D01*
X28551096Y-46695381D02*
X28074905Y-46695381D01*
X28027286Y-47171571D01*
X28074905Y-47123952D01*
X28170143Y-47076333D01*
X28408239Y-47076333D01*
X28503477Y-47123952D01*
X28551096Y-47171571D01*
X28598715Y-47266810D01*
X28598715Y-47504905D01*
X28551096Y-47600143D01*
X28503477Y-47647762D01*
X28408239Y-47695381D01*
X28170143Y-47695381D01*
X28074905Y-47647762D01*
X28027286Y-47600143D01*
X19137334Y-30711143D02*
X19089715Y-30758762D01*
X18946858Y-30806381D01*
X18851620Y-30806381D01*
X18708762Y-30758762D01*
X18613524Y-30663524D01*
X18565905Y-30568286D01*
X18518286Y-30377810D01*
X18518286Y-30234952D01*
X18565905Y-30044476D01*
X18613524Y-29949238D01*
X18708762Y-29854000D01*
X18851620Y-29806381D01*
X18946858Y-29806381D01*
X19089715Y-29854000D01*
X19137334Y-29901619D01*
X19994477Y-29806381D02*
X19804000Y-29806381D01*
X19708762Y-29854000D01*
X19661143Y-29901619D01*
X19565905Y-30044476D01*
X19518286Y-30234952D01*
X19518286Y-30615905D01*
X19565905Y-30711143D01*
X19613524Y-30758762D01*
X19708762Y-30806381D01*
X19899239Y-30806381D01*
X19994477Y-30758762D01*
X20042096Y-30711143D01*
X20089715Y-30615905D01*
X20089715Y-30377810D01*
X20042096Y-30282571D01*
X19994477Y-30234952D01*
X19899239Y-30187333D01*
X19708762Y-30187333D01*
X19613524Y-30234952D01*
X19565905Y-30282571D01*
X19518286Y-30377810D01*
X27773334Y-5563143D02*
X27725715Y-5610762D01*
X27582858Y-5658381D01*
X27487620Y-5658381D01*
X27344762Y-5610762D01*
X27249524Y-5515524D01*
X27201905Y-5420286D01*
X27154286Y-5229810D01*
X27154286Y-5086952D01*
X27201905Y-4896476D01*
X27249524Y-4801238D01*
X27344762Y-4706000D01*
X27487620Y-4658381D01*
X27582858Y-4658381D01*
X27725715Y-4706000D01*
X27773334Y-4753619D01*
X28106667Y-4658381D02*
X28773334Y-4658381D01*
X28344762Y-5658381D01*
X29805334Y-30711143D02*
X29757715Y-30758762D01*
X29614858Y-30806381D01*
X29519620Y-30806381D01*
X29376762Y-30758762D01*
X29281524Y-30663524D01*
X29233905Y-30568286D01*
X29186286Y-30377810D01*
X29186286Y-30234952D01*
X29233905Y-30044476D01*
X29281524Y-29949238D01*
X29376762Y-29854000D01*
X29519620Y-29806381D01*
X29614858Y-29806381D01*
X29757715Y-29854000D01*
X29805334Y-29901619D01*
X30376762Y-30234952D02*
X30281524Y-30187333D01*
X30233905Y-30139714D01*
X30186286Y-30044476D01*
X30186286Y-29996857D01*
X30233905Y-29901619D01*
X30281524Y-29854000D01*
X30376762Y-29806381D01*
X30567239Y-29806381D01*
X30662477Y-29854000D01*
X30710096Y-29901619D01*
X30757715Y-29996857D01*
X30757715Y-30044476D01*
X30710096Y-30139714D01*
X30662477Y-30187333D01*
X30567239Y-30234952D01*
X30376762Y-30234952D01*
X30281524Y-30282571D01*
X30233905Y-30330190D01*
X30186286Y-30425429D01*
X30186286Y-30615905D01*
X30233905Y-30711143D01*
X30281524Y-30758762D01*
X30376762Y-30806381D01*
X30567239Y-30806381D01*
X30662477Y-30758762D01*
X30710096Y-30711143D01*
X30757715Y-30615905D01*
X30757715Y-30425429D01*
X30710096Y-30330190D01*
X30662477Y-30282571D01*
X30567239Y-30234952D01*
X32980334Y-25757143D02*
X32932715Y-25804762D01*
X32789858Y-25852381D01*
X32694620Y-25852381D01*
X32551762Y-25804762D01*
X32456524Y-25709524D01*
X32408905Y-25614286D01*
X32361286Y-25423810D01*
X32361286Y-25280952D01*
X32408905Y-25090476D01*
X32456524Y-24995238D01*
X32551762Y-24900000D01*
X32694620Y-24852381D01*
X32789858Y-24852381D01*
X32932715Y-24900000D01*
X32980334Y-24947619D01*
X33456524Y-25852381D02*
X33647000Y-25852381D01*
X33742239Y-25804762D01*
X33789858Y-25757143D01*
X33885096Y-25614286D01*
X33932715Y-25423810D01*
X33932715Y-25042857D01*
X33885096Y-24947619D01*
X33837477Y-24900000D01*
X33742239Y-24852381D01*
X33551762Y-24852381D01*
X33456524Y-24900000D01*
X33408905Y-24947619D01*
X33361286Y-25042857D01*
X33361286Y-25280952D01*
X33408905Y-25376190D01*
X33456524Y-25423810D01*
X33551762Y-25471429D01*
X33742239Y-25471429D01*
X33837477Y-25423810D01*
X33885096Y-25376190D01*
X33932715Y-25280952D01*
D15*
X23788309Y-8079619D02*
X23788309Y-7063619D01*
X23939500Y-7063619D01*
X24030214Y-7112000D01*
X24090690Y-7208762D01*
X24120929Y-7305524D01*
X24151167Y-7499048D01*
X24151167Y-7644190D01*
X24120929Y-7837714D01*
X24090690Y-7934476D01*
X24030214Y-8031238D01*
X23939500Y-8079619D01*
X23788309Y-8079619D01*
X24755929Y-8079619D02*
X24393071Y-8079619D01*
X24574500Y-8079619D02*
X24574500Y-7063619D01*
X24514024Y-7208762D01*
X24453548Y-7305524D01*
X24393071Y-7353905D01*
D11*
X39139905Y-29496381D02*
X39139905Y-28496381D01*
X39378000Y-28496381D01*
X39520858Y-28544000D01*
X39616096Y-28639238D01*
X39663715Y-28734476D01*
X39711334Y-28924952D01*
X39711334Y-29067810D01*
X39663715Y-29258286D01*
X39616096Y-29353524D01*
X39520858Y-29448762D01*
X39378000Y-29496381D01*
X39139905Y-29496381D01*
X40092286Y-28591619D02*
X40139905Y-28544000D01*
X40235143Y-28496381D01*
X40473239Y-28496381D01*
X40568477Y-28544000D01*
X40616096Y-28591619D01*
X40663715Y-28686857D01*
X40663715Y-28782095D01*
X40616096Y-28924952D01*
X40044667Y-29496381D01*
X40663715Y-29496381D01*
X35456905Y-35123381D02*
X35456905Y-34123381D01*
X35695000Y-34123381D01*
X35837858Y-34171000D01*
X35933096Y-34266238D01*
X35980715Y-34361476D01*
X36028334Y-34551952D01*
X36028334Y-34694810D01*
X35980715Y-34885286D01*
X35933096Y-34980524D01*
X35837858Y-35075762D01*
X35695000Y-35123381D01*
X35456905Y-35123381D01*
X36361667Y-34123381D02*
X36980715Y-34123381D01*
X36647381Y-34504333D01*
X36790239Y-34504333D01*
X36885477Y-34551952D01*
X36933096Y-34599571D01*
X36980715Y-34694810D01*
X36980715Y-34932905D01*
X36933096Y-35028143D01*
X36885477Y-35075762D01*
X36790239Y-35123381D01*
X36504524Y-35123381D01*
X36409286Y-35075762D01*
X36361667Y-35028143D01*
X35583905Y-40203381D02*
X35583905Y-39203381D01*
X35822000Y-39203381D01*
X35964858Y-39251000D01*
X36060096Y-39346238D01*
X36107715Y-39441476D01*
X36155334Y-39631952D01*
X36155334Y-39774810D01*
X36107715Y-39965286D01*
X36060096Y-40060524D01*
X35964858Y-40155762D01*
X35822000Y-40203381D01*
X35583905Y-40203381D01*
X37012477Y-39536714D02*
X37012477Y-40203381D01*
X36774381Y-39155762D02*
X36536286Y-39870048D01*
X37155334Y-39870048D01*
X21510667Y-17708571D02*
X21177333Y-17708571D01*
X21177333Y-18232381D02*
X21177333Y-17232381D01*
X21653524Y-17232381D01*
X22558286Y-18232381D02*
X21986857Y-18232381D01*
X22272571Y-18232381D02*
X22272571Y-17232381D01*
X22177333Y-17375238D01*
X22082095Y-17470476D01*
X21986857Y-17518095D01*
D17*
X3302000Y-7420429D02*
X3302000Y-8509000D01*
X3229428Y-8726714D01*
X3084285Y-8871857D01*
X2866571Y-8944429D01*
X2721428Y-8944429D01*
X4826000Y-8944429D02*
X3955143Y-8944429D01*
X4390571Y-8944429D02*
X4390571Y-7420429D01*
X4245428Y-7638143D01*
X4100286Y-7783286D01*
X3955143Y-7855857D01*
D11*
X10842667Y-23455381D02*
X10842667Y-24169667D01*
X10795047Y-24312524D01*
X10699809Y-24407762D01*
X10556952Y-24455381D01*
X10461714Y-24455381D01*
X11271238Y-23550619D02*
X11318857Y-23503000D01*
X11414095Y-23455381D01*
X11652191Y-23455381D01*
X11747429Y-23503000D01*
X11795048Y-23550619D01*
X11842667Y-23645857D01*
X11842667Y-23741095D01*
X11795048Y-23883952D01*
X11223619Y-24455381D01*
X11842667Y-24455381D01*
X23518905Y-62174381D02*
X23518905Y-61174381D01*
X23899858Y-61174381D01*
X23995096Y-61222000D01*
X24042715Y-61269619D01*
X24090334Y-61364857D01*
X24090334Y-61507714D01*
X24042715Y-61602952D01*
X23995096Y-61650571D01*
X23899858Y-61698190D01*
X23518905Y-61698190D01*
X25042715Y-62174381D02*
X24471286Y-62174381D01*
X24757000Y-62174381D02*
X24757000Y-61174381D01*
X24661762Y-61317238D01*
X24566524Y-61412476D01*
X24471286Y-61460095D01*
D12*
X38365715Y-55628381D02*
X37794286Y-55628381D01*
X38080000Y-55628381D02*
X38080000Y-54628381D01*
X37984762Y-54771238D01*
X37889524Y-54866476D01*
X37794286Y-54914095D01*
D11*
X40917905Y-45410381D02*
X40917905Y-44410381D01*
X41298858Y-44410381D01*
X41394096Y-44458000D01*
X41441715Y-44505619D01*
X41489334Y-44600857D01*
X41489334Y-44743714D01*
X41441715Y-44838952D01*
X41394096Y-44886571D01*
X41298858Y-44934190D01*
X40917905Y-44934190D01*
X41870286Y-44505619D02*
X41917905Y-44458000D01*
X42013143Y-44410381D01*
X42251239Y-44410381D01*
X42346477Y-44458000D01*
X42394096Y-44505619D01*
X42441715Y-44600857D01*
X42441715Y-44696095D01*
X42394096Y-44838952D01*
X41822667Y-45410381D01*
X42441715Y-45410381D01*
X37615905Y-1713381D02*
X37615905Y-713381D01*
X37996858Y-713381D01*
X38092096Y-761000D01*
X38139715Y-808619D01*
X38187334Y-903857D01*
X38187334Y-1046714D01*
X38139715Y-1141952D01*
X38092096Y-1189571D01*
X37996858Y-1237190D01*
X37615905Y-1237190D01*
X38520667Y-713381D02*
X39139715Y-713381D01*
X38806381Y-1094333D01*
X38949239Y-1094333D01*
X39044477Y-1141952D01*
X39092096Y-1189571D01*
X39139715Y-1284810D01*
X39139715Y-1522905D01*
X39092096Y-1618143D01*
X39044477Y-1665762D01*
X38949239Y-1713381D01*
X38663524Y-1713381D01*
X38568286Y-1665762D01*
X38520667Y-1618143D01*
X19589762Y-24296619D02*
X19494524Y-24249000D01*
X19399286Y-24153762D01*
X19256429Y-24010905D01*
X19161190Y-23963286D01*
X19065952Y-23963286D01*
X19113571Y-24201381D02*
X19018333Y-24153762D01*
X18923095Y-24058524D01*
X18875476Y-23868048D01*
X18875476Y-23534714D01*
X18923095Y-23344238D01*
X19018333Y-23249000D01*
X19113571Y-23201381D01*
X19304048Y-23201381D01*
X19399286Y-23249000D01*
X19494524Y-23344238D01*
X19542143Y-23534714D01*
X19542143Y-23868048D01*
X19494524Y-24058524D01*
X19399286Y-24153762D01*
X19304048Y-24201381D01*
X19113571Y-24201381D01*
X20494524Y-24201381D02*
X19923095Y-24201381D01*
X20208809Y-24201381D02*
X20208809Y-23201381D01*
X20113571Y-23344238D01*
X20018333Y-23439476D01*
X19923095Y-23487095D01*
X14057334Y-55189381D02*
X13724000Y-54713190D01*
X13485905Y-55189381D02*
X13485905Y-54189381D01*
X13866858Y-54189381D01*
X13962096Y-54237000D01*
X14009715Y-54284619D01*
X14057334Y-54379857D01*
X14057334Y-54522714D01*
X14009715Y-54617952D01*
X13962096Y-54665571D01*
X13866858Y-54713190D01*
X13485905Y-54713190D01*
X15009715Y-55189381D02*
X14438286Y-55189381D01*
X14724000Y-55189381D02*
X14724000Y-54189381D01*
X14628762Y-54332238D01*
X14533524Y-54427476D01*
X14438286Y-54475095D01*
X21169334Y-50871381D02*
X20836000Y-50395190D01*
X20597905Y-50871381D02*
X20597905Y-49871381D01*
X20978858Y-49871381D01*
X21074096Y-49919000D01*
X21121715Y-49966619D01*
X21169334Y-50061857D01*
X21169334Y-50204714D01*
X21121715Y-50299952D01*
X21074096Y-50347571D01*
X20978858Y-50395190D01*
X20597905Y-50395190D01*
X21550286Y-49966619D02*
X21597905Y-49919000D01*
X21693143Y-49871381D01*
X21931239Y-49871381D01*
X22026477Y-49919000D01*
X22074096Y-49966619D01*
X22121715Y-50061857D01*
X22121715Y-50157095D01*
X22074096Y-50299952D01*
X21502667Y-50871381D01*
X22121715Y-50871381D01*
X21169334Y-49347381D02*
X20836000Y-48871190D01*
X20597905Y-49347381D02*
X20597905Y-48347381D01*
X20978858Y-48347381D01*
X21074096Y-48395000D01*
X21121715Y-48442619D01*
X21169334Y-48537857D01*
X21169334Y-48680714D01*
X21121715Y-48775952D01*
X21074096Y-48823571D01*
X20978858Y-48871190D01*
X20597905Y-48871190D01*
X21502667Y-48347381D02*
X22121715Y-48347381D01*
X21788381Y-48728333D01*
X21931239Y-48728333D01*
X22026477Y-48775952D01*
X22074096Y-48823571D01*
X22121715Y-48918810D01*
X22121715Y-49156905D01*
X22074096Y-49252143D01*
X22026477Y-49299762D01*
X21931239Y-49347381D01*
X21645524Y-49347381D01*
X21550286Y-49299762D01*
X21502667Y-49252143D01*
X19518334Y-28392381D02*
X19185000Y-27916190D01*
X18946905Y-28392381D02*
X18946905Y-27392381D01*
X19327858Y-27392381D01*
X19423096Y-27440000D01*
X19470715Y-27487619D01*
X19518334Y-27582857D01*
X19518334Y-27725714D01*
X19470715Y-27820952D01*
X19423096Y-27868571D01*
X19327858Y-27916190D01*
X18946905Y-27916190D01*
X20375477Y-27725714D02*
X20375477Y-28392381D01*
X20137381Y-27344762D02*
X19899286Y-28059048D01*
X20518334Y-28059048D01*
X19518334Y-25979381D02*
X19185000Y-25503190D01*
X18946905Y-25979381D02*
X18946905Y-24979381D01*
X19327858Y-24979381D01*
X19423096Y-25027000D01*
X19470715Y-25074619D01*
X19518334Y-25169857D01*
X19518334Y-25312714D01*
X19470715Y-25407952D01*
X19423096Y-25455571D01*
X19327858Y-25503190D01*
X18946905Y-25503190D01*
X20423096Y-24979381D02*
X19946905Y-24979381D01*
X19899286Y-25455571D01*
X19946905Y-25407952D01*
X20042143Y-25360333D01*
X20280239Y-25360333D01*
X20375477Y-25407952D01*
X20423096Y-25455571D01*
X20470715Y-25550810D01*
X20470715Y-25788905D01*
X20423096Y-25884143D01*
X20375477Y-25931762D01*
X20280239Y-25979381D01*
X20042143Y-25979381D01*
X19946905Y-25931762D01*
X19899286Y-25884143D01*
X13930334Y-45283381D02*
X13597000Y-44807190D01*
X13358905Y-45283381D02*
X13358905Y-44283381D01*
X13739858Y-44283381D01*
X13835096Y-44331000D01*
X13882715Y-44378619D01*
X13930334Y-44473857D01*
X13930334Y-44616714D01*
X13882715Y-44711952D01*
X13835096Y-44759571D01*
X13739858Y-44807190D01*
X13358905Y-44807190D01*
X14787477Y-44283381D02*
X14597000Y-44283381D01*
X14501762Y-44331000D01*
X14454143Y-44378619D01*
X14358905Y-44521476D01*
X14311286Y-44711952D01*
X14311286Y-45092905D01*
X14358905Y-45188143D01*
X14406524Y-45235762D01*
X14501762Y-45283381D01*
X14692239Y-45283381D01*
X14787477Y-45235762D01*
X14835096Y-45188143D01*
X14882715Y-45092905D01*
X14882715Y-44854810D01*
X14835096Y-44759571D01*
X14787477Y-44711952D01*
X14692239Y-44664333D01*
X14501762Y-44664333D01*
X14406524Y-44711952D01*
X14358905Y-44759571D01*
X14311286Y-44854810D01*
X13930334Y-47188381D02*
X13597000Y-46712190D01*
X13358905Y-47188381D02*
X13358905Y-46188381D01*
X13739858Y-46188381D01*
X13835096Y-46236000D01*
X13882715Y-46283619D01*
X13930334Y-46378857D01*
X13930334Y-46521714D01*
X13882715Y-46616952D01*
X13835096Y-46664571D01*
X13739858Y-46712190D01*
X13358905Y-46712190D01*
X14263667Y-46188381D02*
X14930334Y-46188381D01*
X14501762Y-47188381D01*
X21296334Y-52903381D02*
X20963000Y-52427190D01*
X20724905Y-52903381D02*
X20724905Y-51903381D01*
X21105858Y-51903381D01*
X21201096Y-51951000D01*
X21248715Y-51998619D01*
X21296334Y-52093857D01*
X21296334Y-52236714D01*
X21248715Y-52331952D01*
X21201096Y-52379571D01*
X21105858Y-52427190D01*
X20724905Y-52427190D01*
X21867762Y-52331952D02*
X21772524Y-52284333D01*
X21724905Y-52236714D01*
X21677286Y-52141476D01*
X21677286Y-52093857D01*
X21724905Y-51998619D01*
X21772524Y-51951000D01*
X21867762Y-51903381D01*
X22058239Y-51903381D01*
X22153477Y-51951000D01*
X22201096Y-51998619D01*
X22248715Y-52093857D01*
X22248715Y-52141476D01*
X22201096Y-52236714D01*
X22153477Y-52284333D01*
X22058239Y-52331952D01*
X21867762Y-52331952D01*
X21772524Y-52379571D01*
X21724905Y-52427190D01*
X21677286Y-52522429D01*
X21677286Y-52712905D01*
X21724905Y-52808143D01*
X21772524Y-52855762D01*
X21867762Y-52903381D01*
X22058239Y-52903381D01*
X22153477Y-52855762D01*
X22201096Y-52808143D01*
X22248715Y-52712905D01*
X22248715Y-52522429D01*
X22201096Y-52427190D01*
X22153477Y-52379571D01*
X22058239Y-52331952D01*
X22693334Y-30806381D02*
X22360000Y-30330190D01*
X22121905Y-30806381D02*
X22121905Y-29806381D01*
X22502858Y-29806381D01*
X22598096Y-29854000D01*
X22645715Y-29901619D01*
X22693334Y-29996857D01*
X22693334Y-30139714D01*
X22645715Y-30234952D01*
X22598096Y-30282571D01*
X22502858Y-30330190D01*
X22121905Y-30330190D01*
X23169524Y-30806381D02*
X23360000Y-30806381D01*
X23455239Y-30758762D01*
X23502858Y-30711143D01*
X23598096Y-30568286D01*
X23645715Y-30377810D01*
X23645715Y-29996857D01*
X23598096Y-29901619D01*
X23550477Y-29854000D01*
X23455239Y-29806381D01*
X23264762Y-29806381D01*
X23169524Y-29854000D01*
X23121905Y-29901619D01*
X23074286Y-29996857D01*
X23074286Y-30234952D01*
X23121905Y-30330190D01*
X23169524Y-30377810D01*
X23264762Y-30425429D01*
X23455239Y-30425429D01*
X23550477Y-30377810D01*
X23598096Y-30330190D01*
X23645715Y-30234952D01*
X18026143Y-49220381D02*
X17692809Y-48744190D01*
X17454714Y-49220381D02*
X17454714Y-48220381D01*
X17835667Y-48220381D01*
X17930905Y-48268000D01*
X17978524Y-48315619D01*
X18026143Y-48410857D01*
X18026143Y-48553714D01*
X17978524Y-48648952D01*
X17930905Y-48696571D01*
X17835667Y-48744190D01*
X17454714Y-48744190D01*
X18978524Y-49220381D02*
X18407095Y-49220381D01*
X18692809Y-49220381D02*
X18692809Y-48220381D01*
X18597571Y-48363238D01*
X18502333Y-48458476D01*
X18407095Y-48506095D01*
X19597571Y-48220381D02*
X19692810Y-48220381D01*
X19788048Y-48268000D01*
X19835667Y-48315619D01*
X19883286Y-48410857D01*
X19930905Y-48601333D01*
X19930905Y-48839429D01*
X19883286Y-49029905D01*
X19835667Y-49125143D01*
X19788048Y-49172762D01*
X19692810Y-49220381D01*
X19597571Y-49220381D01*
X19502333Y-49172762D01*
X19454714Y-49125143D01*
X19407095Y-49029905D01*
X19359476Y-48839429D01*
X19359476Y-48601333D01*
X19407095Y-48410857D01*
X19454714Y-48315619D01*
X19502333Y-48268000D01*
X19597571Y-48220381D01*
X18153143Y-50871381D02*
X17819809Y-50395190D01*
X17581714Y-50871381D02*
X17581714Y-49871381D01*
X17962667Y-49871381D01*
X18057905Y-49919000D01*
X18105524Y-49966619D01*
X18153143Y-50061857D01*
X18153143Y-50204714D01*
X18105524Y-50299952D01*
X18057905Y-50347571D01*
X17962667Y-50395190D01*
X17581714Y-50395190D01*
X19105524Y-50871381D02*
X18534095Y-50871381D01*
X18819809Y-50871381D02*
X18819809Y-49871381D01*
X18724571Y-50014238D01*
X18629333Y-50109476D01*
X18534095Y-50157095D01*
X20057905Y-50871381D02*
X19486476Y-50871381D01*
X19772190Y-50871381D02*
X19772190Y-49871381D01*
X19676952Y-50014238D01*
X19581714Y-50109476D01*
X19486476Y-50157095D01*
X10787143Y-55189381D02*
X10453809Y-54713190D01*
X10215714Y-55189381D02*
X10215714Y-54189381D01*
X10596667Y-54189381D01*
X10691905Y-54237000D01*
X10739524Y-54284619D01*
X10787143Y-54379857D01*
X10787143Y-54522714D01*
X10739524Y-54617952D01*
X10691905Y-54665571D01*
X10596667Y-54713190D01*
X10215714Y-54713190D01*
X11739524Y-55189381D02*
X11168095Y-55189381D01*
X11453809Y-55189381D02*
X11453809Y-54189381D01*
X11358571Y-54332238D01*
X11263333Y-54427476D01*
X11168095Y-54475095D01*
X12120476Y-54284619D02*
X12168095Y-54237000D01*
X12263333Y-54189381D01*
X12501429Y-54189381D01*
X12596667Y-54237000D01*
X12644286Y-54284619D01*
X12691905Y-54379857D01*
X12691905Y-54475095D01*
X12644286Y-54617952D01*
X12072857Y-55189381D01*
X12691905Y-55189381D01*
X16121143Y-18106381D02*
X15787809Y-17630190D01*
X15549714Y-18106381D02*
X15549714Y-17106381D01*
X15930667Y-17106381D01*
X16025905Y-17154000D01*
X16073524Y-17201619D01*
X16121143Y-17296857D01*
X16121143Y-17439714D01*
X16073524Y-17534952D01*
X16025905Y-17582571D01*
X15930667Y-17630190D01*
X15549714Y-17630190D01*
X17073524Y-18106381D02*
X16502095Y-18106381D01*
X16787809Y-18106381D02*
X16787809Y-17106381D01*
X16692571Y-17249238D01*
X16597333Y-17344476D01*
X16502095Y-17392095D01*
X17406857Y-17106381D02*
X18025905Y-17106381D01*
X17692571Y-17487333D01*
X17835429Y-17487333D01*
X17930667Y-17534952D01*
X17978286Y-17582571D01*
X18025905Y-17677810D01*
X18025905Y-17915905D01*
X17978286Y-18011143D01*
X17930667Y-18058762D01*
X17835429Y-18106381D01*
X17549714Y-18106381D01*
X17454476Y-18058762D01*
X17406857Y-18011143D01*
X32250143Y-13025381D02*
X31916809Y-12549190D01*
X31678714Y-13025381D02*
X31678714Y-12025381D01*
X32059667Y-12025381D01*
X32154905Y-12073000D01*
X32202524Y-12120619D01*
X32250143Y-12215857D01*
X32250143Y-12358714D01*
X32202524Y-12453952D01*
X32154905Y-12501571D01*
X32059667Y-12549190D01*
X31678714Y-12549190D01*
X33202524Y-13025381D02*
X32631095Y-13025381D01*
X32916809Y-13025381D02*
X32916809Y-12025381D01*
X32821571Y-12168238D01*
X32726333Y-12263476D01*
X32631095Y-12311095D01*
X34059667Y-12358714D02*
X34059667Y-13025381D01*
X33821571Y-11977762D02*
X33583476Y-12692048D01*
X34202524Y-12692048D01*
X34790143Y-30551381D02*
X34456809Y-30075190D01*
X34218714Y-30551381D02*
X34218714Y-29551381D01*
X34599667Y-29551381D01*
X34694905Y-29599000D01*
X34742524Y-29646619D01*
X34790143Y-29741857D01*
X34790143Y-29884714D01*
X34742524Y-29979952D01*
X34694905Y-30027571D01*
X34599667Y-30075190D01*
X34218714Y-30075190D01*
X35742524Y-30551381D02*
X35171095Y-30551381D01*
X35456809Y-30551381D02*
X35456809Y-29551381D01*
X35361571Y-29694238D01*
X35266333Y-29789476D01*
X35171095Y-29837095D01*
X36647286Y-29551381D02*
X36171095Y-29551381D01*
X36123476Y-30027571D01*
X36171095Y-29979952D01*
X36266333Y-29932333D01*
X36504429Y-29932333D01*
X36599667Y-29979952D01*
X36647286Y-30027571D01*
X36694905Y-30122810D01*
X36694905Y-30360905D01*
X36647286Y-30456143D01*
X36599667Y-30503762D01*
X36504429Y-30551381D01*
X36266333Y-30551381D01*
X36171095Y-30503762D01*
X36123476Y-30456143D01*
X34917143Y-38678381D02*
X34583809Y-38202190D01*
X34345714Y-38678381D02*
X34345714Y-37678381D01*
X34726667Y-37678381D01*
X34821905Y-37726000D01*
X34869524Y-37773619D01*
X34917143Y-37868857D01*
X34917143Y-38011714D01*
X34869524Y-38106952D01*
X34821905Y-38154571D01*
X34726667Y-38202190D01*
X34345714Y-38202190D01*
X35869524Y-38678381D02*
X35298095Y-38678381D01*
X35583809Y-38678381D02*
X35583809Y-37678381D01*
X35488571Y-37821238D01*
X35393333Y-37916476D01*
X35298095Y-37964095D01*
X36726667Y-37678381D02*
X36536190Y-37678381D01*
X36440952Y-37726000D01*
X36393333Y-37773619D01*
X36298095Y-37916476D01*
X36250476Y-38106952D01*
X36250476Y-38487905D01*
X36298095Y-38583143D01*
X36345714Y-38630762D01*
X36440952Y-38678381D01*
X36631429Y-38678381D01*
X36726667Y-38630762D01*
X36774286Y-38583143D01*
X36821905Y-38487905D01*
X36821905Y-38249810D01*
X36774286Y-38154571D01*
X36726667Y-38106952D01*
X36631429Y-38059333D01*
X36440952Y-38059333D01*
X36345714Y-38106952D01*
X36298095Y-38154571D01*
X36250476Y-38249810D01*
X34917143Y-43758381D02*
X34583809Y-43282190D01*
X34345714Y-43758381D02*
X34345714Y-42758381D01*
X34726667Y-42758381D01*
X34821905Y-42806000D01*
X34869524Y-42853619D01*
X34917143Y-42948857D01*
X34917143Y-43091714D01*
X34869524Y-43186952D01*
X34821905Y-43234571D01*
X34726667Y-43282190D01*
X34345714Y-43282190D01*
X35869524Y-43758381D02*
X35298095Y-43758381D01*
X35583809Y-43758381D02*
X35583809Y-42758381D01*
X35488571Y-42901238D01*
X35393333Y-42996476D01*
X35298095Y-43044095D01*
X36202857Y-42758381D02*
X36869524Y-42758381D01*
X36440952Y-43758381D01*
X14414667Y-60094762D02*
X14557524Y-60142381D01*
X14795620Y-60142381D01*
X14890858Y-60094762D01*
X14938477Y-60047143D01*
X14986096Y-59951905D01*
X14986096Y-59856667D01*
X14938477Y-59761429D01*
X14890858Y-59713810D01*
X14795620Y-59666190D01*
X14605143Y-59618571D01*
X14509905Y-59570952D01*
X14462286Y-59523333D01*
X14414667Y-59428095D01*
X14414667Y-59332857D01*
X14462286Y-59237619D01*
X14509905Y-59190000D01*
X14605143Y-59142381D01*
X14843239Y-59142381D01*
X14986096Y-59190000D01*
X15319429Y-59142381D02*
X15557524Y-60142381D01*
X15748001Y-59428095D01*
X15938477Y-60142381D01*
X16176572Y-59142381D01*
X17081334Y-60142381D02*
X16509905Y-60142381D01*
X16795619Y-60142381D02*
X16795619Y-59142381D01*
X16700381Y-59285238D01*
X16605143Y-59380476D01*
X16509905Y-59428095D01*
D15*
X27329190Y-9488714D02*
X27329190Y-10105571D01*
X27359429Y-10178143D01*
X27389667Y-10214429D01*
X27450143Y-10250714D01*
X27571095Y-10250714D01*
X27631571Y-10214429D01*
X27661810Y-10178143D01*
X27692048Y-10105571D01*
X27692048Y-9488714D01*
X27964190Y-9561286D02*
X27994428Y-9525000D01*
X28054905Y-9488714D01*
X28206095Y-9488714D01*
X28266571Y-9525000D01*
X28296809Y-9561286D01*
X28327048Y-9633857D01*
X28327048Y-9706429D01*
X28296809Y-9815286D01*
X27933952Y-10250714D01*
X28327048Y-10250714D01*
D11*
X32004095Y-15858381D02*
X32004095Y-16667905D01*
X32051714Y-16763143D01*
X32099333Y-16810762D01*
X32194571Y-16858381D01*
X32385048Y-16858381D01*
X32480286Y-16810762D01*
X32527905Y-16763143D01*
X32575524Y-16667905D01*
X32575524Y-15858381D01*
X32956476Y-15858381D02*
X33575524Y-15858381D01*
X33242190Y-16239333D01*
X33385048Y-16239333D01*
X33480286Y-16286952D01*
X33527905Y-16334571D01*
X33575524Y-16429810D01*
X33575524Y-16667905D01*
X33527905Y-16763143D01*
X33480286Y-16810762D01*
X33385048Y-16858381D01*
X33099333Y-16858381D01*
X33004095Y-16810762D01*
X32956476Y-16763143D01*
X23749095Y-32745381D02*
X23749095Y-33554905D01*
X23796714Y-33650143D01*
X23844333Y-33697762D01*
X23939571Y-33745381D01*
X24130048Y-33745381D01*
X24225286Y-33697762D01*
X24272905Y-33650143D01*
X24320524Y-33554905D01*
X24320524Y-32745381D01*
X25320524Y-33745381D02*
X24749095Y-33745381D01*
X25034809Y-33745381D02*
X25034809Y-32745381D01*
X24939571Y-32888238D01*
X24844333Y-32983476D01*
X24749095Y-33031095D01*
D17*
X-3755571Y-48387000D02*
X-2667000Y-48387000D01*
X-2449286Y-48459572D01*
X-2304143Y-48604715D01*
X-2231571Y-48822429D01*
X-2231571Y-48967572D01*
X-3755571Y-47806429D02*
X-3755571Y-46863000D01*
X-3175000Y-47371000D01*
X-3175000Y-47153286D01*
X-3102429Y-47008143D01*
X-3029857Y-46935572D01*
X-2884714Y-46863000D01*
X-2521857Y-46863000D01*
X-2376714Y-46935572D01*
X-2304143Y-47008143D01*
X-2231571Y-47153286D01*
X-2231571Y-47588714D01*
X-2304143Y-47733857D01*
X-2376714Y-47806429D01*
M02*
