M48
;DRILL file {KiCad 4.0.7-e2-6376~58~ubuntu16.04.1} date Sun Jan 24 13:39:24 2021
;FORMAT={-:-/ absolute / metric / decimal}
FMAT,2
METRIC,TZ
T1C0.400
T2C0.800
T3C0.800
T4C0.900
T5C1.000
T6C1.016
T7C2.301
T8C3.200
T9C3.200
%
G90
G05
M71
T1
X13.208Y-48.768
X13.208Y-50.673
X13.208Y-52.578
X14.097Y-17.399
X14.351Y-21.336
X14.605Y-19.304
X15.748Y-42.418
X17.399Y-45.847
X17.653Y-29.464
X18.288Y-34.544
X18.288Y-40.64
X18.542Y-45.847
X18.796Y-25.4
X19.558Y-50.673
X19.685Y-45.847
X22.606Y-45.593
X23.368Y-46.101
X24.003Y-24.003
X24.003Y-45.466
X24.384Y-7.747
X26.289Y-14.732
X29.083Y-35.433
X29.083Y-43.688
X31.115Y-28.829
X31.369Y-36.068
X31.369Y-37.211
X31.496Y-38.1
X31.496Y-39.116
X31.496Y-40.132
X34.544Y-34.036
X34.544Y-39.116
X34.544Y-40.132
T2
X8.763Y-20.573
X8.763Y-22.673
X8.763Y-25.273
X8.763Y-27.373
X10.828Y-6.858
X10.828Y-9.398
X11.563Y-20.573
X11.563Y-27.373
X12.827Y-6.858
X12.827Y-9.398
X20.828Y-3.596
X20.828Y-6.096
X28.956Y-18.796
X28.956Y-21.336
X28.956Y-23.876
X28.956Y-26.416
X36.576Y-18.796
X36.576Y-21.336
X36.576Y-23.876
X36.576Y-26.416
T3
X15.748Y-35.532
X15.748Y-40.414
T4
X38.608Y-32.004
X38.608Y-36.576
X38.608Y-41.656
X41.148Y-32.004
X41.148Y-36.576
X41.148Y-41.656
T5
X1.651Y-43.053
X1.651Y-45.339
X1.651Y-47.625
X1.651Y-49.911
X1.651Y-52.197
X4.191Y-44.196
X4.191Y-46.482
X4.191Y-48.768
X4.191Y-51.054
X4.191Y-53.34
X6.731Y-43.053
X6.731Y-45.339
X6.731Y-47.625
X6.731Y-49.911
X6.731Y-52.197
T6
X27.94Y-56.896
X27.94Y-59.436
X30.48Y-56.896
X30.48Y-59.436
X33.02Y-56.896
X33.02Y-59.436
X35.56Y-56.896
X35.56Y-59.436
X38.1Y-56.896
X38.1Y-59.436
T7
X8.128Y-2.129
X8.128Y-14.127
T8
X38.354Y-5.461
X38.354Y-48.387
T9
X4.249Y-35.385
X4.249Y-60.373
T5
X5.113Y-22.973G85X5.113Y-24.973
G05
X6.663Y-17.123G85X5.163Y-17.123
G05
X6.663Y-30.823G85X5.163Y-30.823
G05
T0
M30
